/* XPM */
static char *_ba07942c3344a3fa32e4a7d1f730b3e[] = {
/* columns rows colors chars-per-pixel */
"64 64 86 1 ",
"  c #450400",
". c #4E0000",
"X c #560300",
"o c #520004",
"O c #580000",
"+ c #590100",
"@ c #5A0000",
"# c #590002",
"$ c #5A0002",
"% c #5B0103",
"& c #5D0000",
"* c #5E0001",
"= c #620001",
"- c #650000",
"; c #650101",
": c #7E0100",
"> c #533F1C",
", c #563F20",
"< c #604323",
"1 c #6A4727",
"2 c #744E2A",
"3 c #7C5534",
"4 c #800000",
"5 c #830000",
"6 c #810003",
"7 c #860200",
"8 c #860005",
"9 c #880000",
"0 c #890101",
"q c #8B0101",
"w c #890300",
"e c #8A0202",
"r c #8C0003",
"t c #950100",
"y c #960002",
"u c #940202",
"i c #990100",
"p c #9A0000",
"a c #9B0100",
"s c #9A0001",
"d c #9B0101",
"f c #9C0100",
"g c #9E0000",
"h c #9C0003",
"j c #A30100",
"k c #A50100",
"l c #A60000",
"z c #A80000",
"x c #A80100",
"c c #A90100",
"v c #AA0000",
"b c #AD0100",
"n c #B20000",
"m c #B30000",
"M c #B40001",
"N c #B60000",
"B c #B60002",
"V c #B40202",
"C c #B80002",
"Z c #BF0302",
"A c #C80100",
"S c #CB0101",
"D c #CA0300",
"F c #C80002",
"G c #CD0000",
"H c #D50000",
"J c #875B38",
"K c #8A5C38",
"L c #916037",
"P c #9A6637",
"I c #98623C",
"U c #A56A3E",
"Y c #B56E40",
"T c #AF7044",
"R c #B47446",
"E c #BE7845",
"W c #BF7B4C",
"Q c #BF7D4D",
"! c #CD8553",
"~ c #CD8555",
"^ c #D68D5A",
"/ c #D88C5A",
"( c #E49A69",
") c #E69B71",
"_ c #ffff",
"` c #0FFFFF",
/* pixels */
"________________________________________________________________",
"________________________________________________________________",
"________________________________________________________________",
"________________________________________________________________",
"________________________________________________________________",
"________________________________________________________________",
"________________________________________________________________",
"________________________________________________________________",
"________________________________________________________________",
"________________________________________________________________",
"________________________________________________________________",
"________________________________________________________________",
"________________________________________________________________",
"________________________________________________________________",
"________________________________________________________________",
"________________________________________________________________",
"________________________________________________________________",
"________________________________________________________________",
"________________________________________________________________",
"________________________________________________________________",
"________________________________________________________________",
"________________________________________________________________",
"________________________________________________________________",
"________________________________________________________________",
"________________________________________________________________",
"________________________________________________________________",
"________________________________________________________________",
"________________________________________________________________",
"________________________________________________________________",
"________________________________________________________________",
"________________________________________________________________",
"________________________________________________________________",
"________________________________________________________________",
"________________________________________________________________",
"________________________________________________________________",
"________________________________________________________________",
"________________________________________________________________",
"________________________________________________________________",
"________________________________________________________________",
"________________________________________________________________",
"________________________________________________________________",
"________________________________________________________________",
"________________________________________________________________",
"________________________________________________________________",
"________________________________________________________________",
"________________________________________________________________",
"________________________________________________________________",
"________________________________________________________________",
"________________________________________________________________",
"________________________________________________________________",
"________________________________________________________________",
"_______________________J/)E_J/)E`J/)E_L(^Y`_____________________",
"_______________________2T!I_2T!I_2T!I_3~RK______________________",
"_______________________,PQ1_,PQ1_,PQ1_<WU>______________________",
"_______________________tNy._tNy._tNy._hn4 ______________________",
"_______________________nSp;_nSp;_nSp;_MA0@______________________",
"_______________________BHq+_BHq+_BHq+_CFwO______________________",
"_______________________kGd*_kGd*_kGd*_vVtX______________________",
"_______________________jDf$_jDf$_jDf$_ac9&______________________",
"_______________________jZs#_jZs#_jZs#_izr+______________________",
"_______________________bm7@_bm7@_bm7@_xx8+______________________",
"_______________________in:+_in:+_in:+_gl5+______________________",
"_______________________6u=%_6u=%_6u=%_eg-o______________________",
"________________________________________________________________"
};
