/* XPM */
static char * bar_filling_xpm[] = {
"192 21 4 1",
" 	c None",
".	c #FFFFFF",
"+	c #666666",
"@	c #808080",
"....+@....+@....+@....+@....+@....+@....+@....+@....+@....+@....+@....+@....+@....+@....+@....+@....+@....+@....+@....+@....+@....+@....+@....+@....+@....+@....+@....+@....+@....+@....+@....+@",
"....+@....+@....+@....+@....+@....+@....+@....+@....+@....+@....+@....+@....+@....+@....+@....+@....+@....+@....+@....+@....+@....+@....+@....+@....+@....+@....+@....+@....+@....+@....+@....+@",
"....+@....+@....+@....+@....+@....+@....+@....+@....+@....+@....+@....+@....+@....+@....+@....+@....+@....+@....+@....+@....+@....+@....+@....+@....+@....+@....+@....+@....+@....+@....+@....+@",
"....+@....+@....+@....+@....+@....+@....+@....+@....+@....+@....+@....+@....+@....+@....+@....+@....+@....+@....+@....+@....+@....+@....+@....+@....+@....+@....+@....+@....+@....+@....+@....+@",
"....+@....+@....+@....+@....+@....+@....+@....+@....+@....+@....+@....+@....+@....+@....+@....+@....+@....+@....+@....+@....+@....+@....+@....+@....+@....+@....+@....+@....+@....+@....+@....+@",
"....+@....+@....+@....+@....+@....+@....+@....+@....+@....+@....+@....+@....+@....+@....+@....+@....+@....+@....+@....+@....+@....+@....+@....+@....+@....+@....+@....+@....+@....+@....+@....+@",
"....+@....+@....+@....+@....+@....+@....+@....+@....+@....+@....+@....+@....+@....+@....+@....+@....+@....+@....+@....+@....+@....+@....+@....+@....+@....+@....+@....+@....+@....+@....+@....+@",
"....+@....+@....+@....+@....+@....+@....+@....+@....+@....+@....+@....+@....+@....+@....+@....+@....+@....+@....+@....+@....+@....+@....+@....+@....+@....+@....+@....+@....+@....+@....+@....+@",
"....+@....+@....+@....+@....+@....+@....+@....+@....+@....+@....+@....+@....+@....+@....+@....+@....+@....+@....+@....+@....+@....+@....+@....+@....+@....+@....+@....+@....+@....+@....+@....+@",
"....+@....+@....+@....+@....+@....+@....+@....+@....+@....+@....+@....+@....+@....+@....+@....+@....+@....+@....+@....+@....+@....+@....+@....+@....+@....+@....+@....+@....+@....+@....+@....+@",
"....+@....+@....+@....+@....+@....+@....+@....+@....+@....+@....+@....+@....+@....+@....+@....+@....+@....+@....+@....+@....+@....+@....+@....+@....+@....+@....+@....+@....+@....+@....+@....+@",
"....+@....+@....+@....+@....+@....+@....+@....+@....+@....+@....+@....+@....+@....+@....+@....+@....+@....+@....+@....+@....+@....+@....+@....+@....+@....+@....+@....+@....+@....+@....+@....+@",
"....+@....+@....+@....+@....+@....+@....+@....+@....+@....+@....+@....+@....+@....+@....+@....+@....+@....+@....+@....+@....+@....+@....+@....+@....+@....+@....+@....+@....+@....+@....+@....+@",
"....+@....+@....+@....+@....+@....+@....+@....+@....+@....+@....+@....+@....+@....+@....+@....+@....+@....+@....+@....+@....+@....+@....+@....+@....+@....+@....+@....+@....+@....+@....+@....+@",
"....+@....+@....+@....+@....+@....+@....+@....+@....+@....+@....+@....+@....+@....+@....+@....+@....+@....+@....+@....+@....+@....+@....+@....+@....+@....+@....+@....+@....+@....+@....+@....+@",
"....+@....+@....+@....+@....+@....+@....+@....+@....+@....+@....+@....+@....+@....+@....+@....+@....+@....+@....+@....+@....+@....+@....+@....+@....+@....+@....+@....+@....+@....+@....+@....+@",
"....+@....+@....+@....+@....+@....+@....+@....+@....+@....+@....+@....+@....+@....+@....+@....+@....+@....+@....+@....+@....+@....+@....+@....+@....+@....+@....+@....+@....+@....+@....+@....+@",
"....+@....+@....+@....+@....+@....+@....+@....+@....+@....+@....+@....+@....+@....+@....+@....+@....+@....+@....+@....+@....+@....+@....+@....+@....+@....+@....+@....+@....+@....+@....+@....+@",
"....+@....+@....+@....+@....+@....+@....+@....+@....+@....+@....+@....+@....+@....+@....+@....+@....+@....+@....+@....+@....+@....+@....+@....+@....+@....+@....+@....+@....+@....+@....+@....+@",
"....+@....+@....+@....+@....+@....+@....+@....+@....+@....+@....+@....+@....+@....+@....+@....+@....+@....+@....+@....+@....+@....+@....+@....+@....+@....+@....+@....+@....+@....+@....+@....+@",
"....+@....+@....+@....+@....+@....+@....+@....+@....+@....+@....+@....+@....+@....+@....+@....+@....+@....+@....+@....+@....+@....+@....+@....+@....+@....+@....+@....+@....+@....+@....+@....+@"};
