/* XPM */
static char *_b3ee3e329c24cacce661b4977225306[] = {
/* columns rows colors chars-per-pixel */
"23 23 97 2 ",
"   c #180F03",
".  c #1D1806",
"X  c #18181A",
"o  c #241707",
"O  c #2F1D02",
"+  c #321F02",
"@  c #302006",
"#  c #3F2706",
"$  c #25262A",
"%  c #2F2F2E",
"&  c #312F2C",
"*  c #32322F",
"=  c #422804",
"-  c #4C2F03",
";  c #4B2D04",
":  c #4F3603",
">  c #543403",
",  c #573F03",
"<  c #513E05",
"1  c #534103",
"2  c #554202",
"3  c #554203",
"4  c #51420F",
"5  c #574819",
"6  c #624A04",
"7  c #635202",
"8  c #635303",
"9  c #635304",
"0  c #504830",
"q  c #635926",
"w  c #404145",
"e  c #434447",
"r  c #4C4B48",
"t  c #54534F",
"y  c #4B4C50",
"u  c #865706",
"i  c #8C5605",
"p  c #925A05",
"a  c #935C05",
"s  c #886305",
"d  c #866803",
"f  c #866805",
"g  c #967805",
"h  c #887229",
"j  c #948003",
"k  c #948105",
"l  c #BF9407",
"z  c #96882D",
"x  c #CA8607",
"c  c #CE9908",
"v  c #D59008",
"b  c #E89C08",
"n  c #DFAC07",
"m  c #DFAC08",
"M  c #DFAD08",
"N  c #F1A409",
"B  c #CFAA31",
"V  c #FCC307",
"C  c #F7C509",
"Z  c #FEC009",
"A  c #FCC309",
"S  c #FDC409",
"D  c #FEC408",
"F  c #FEC409",
"G  c #FFC409",
"H  c #FEC509",
"J  c #FDC40A",
"K  c #FFC808",
"L  c #FFCE09",
"P  c #FFCF09",
"I  c #F3D205",
"U  c #FFDD05",
"Y  c #F3D309",
"T  c #F3D409",
"R  c #FFD209",
"E  c #FFDD09",
"W  c #FFDE09",
"Q  c #FFDF09",
"!  c #FFC813",
"~  c #FFE006",
"^  c #FFE009",
"/  c #FFE209",
"(  c #FFCC29",
")  c #878067",
"_  c #F7DE46",
"`  c #FFE94A",
"'  c #FFEA4A",
"]  c #FFEC4A",
"[  c #D5C07D",
"{  c #8C8B84",
"}  c #939189",
"|  c #93918A",
" . c #93928A",
".. c #CBBC8A",
"X. c #E9D48E",
"o. c #F2DA8D",
"O. c None",
/* pixels */
"O.O.O.O.O.O.O.O.O.O.O.. O.O.O.O.O.O.O.O.O.O.O.",
"O.O.O.O.O.O.O.O.O.O.4 l < O.O.O.O.O.O.O.O.O.O.",
"O.O.O.O.O.O.O.O.O.& B K c @ O.O.O.O.O.O.O.O.O.",
"O.O.O.O.O.O.O.O.O.) ( V Z u O.O.O.O.O.O.O.O.O.",
"O.O.O.O.O.O.O.O.$ ..! A G x o O.O.O.O.O.O.O.O.",
"O.O.O.O.O.O.O.O.w X.A A G b # O.O.O.O.O.O.O.O.",
"O.O.O.O.O.O.O.O.y o.G G G N ; O.O.O.O.O.O.O.O.",
"O.O.O.O.O.O.O.O.e [ n M M v = O.O.O.O.O.O.O.O.",
"O.O.O.O.O.O.O.O.% q 7 7 9 6 O O.O.O.O.O.O.O.O.",
"O.O.O.O.O.O.O.O.{ _ I T T C i O.O.O.O.O.O.O.O.",
"O.O.O.O.O.O.O.O. .` U E E P p O.O.O.O.O.O.O.O.",
"O.O.O.O.O.O.O.O. .` U E E P p O.O.O.O.O.O.O.O.",
"O.O.O.O.O.O.O.O. .` U E ^ P p O.O.O.O.O.O.O.O.",
"O.O.O.O.O.O.O.O. .` U E E P p O.O.O.O.O.O.O.O.",
"O.O.O.O.O.O.O.O. .` U E E P p O.O.O.O.O.O.O.O.",
"O.O.O.O.O.O.O.O. .` U E E P p O.O.O.O.O.O.O.O.",
"O.O.O.O.O.O.O.O. .` U E E P p O.O.O.O.O.O.O.O.",
"O.O.O.O.O.O.O.O. .` U E E P p O.O.O.O.O.O.O.O.",
"O.O.O.O.O.O.O.O. .] ~ ^ ^ R a O.O.O.O.O.O.O.O.",
"O.O.O.O.O.O.O.O.t z j k k g > O.O.O.O.O.O.O.O.",
"O.O.O.O.O.O.O.O.X 0 1 1 1 :   O.O.O.O.O.O.O.O.",
"O.O.O.O.O.O.O.O.r h d f f s - O.O.O.O.O.O.O.O.",
"O.O.O.O.O.O.O.O.* 5 3 3 3 , + O.O.O.O.O.O.O.O."
};
