/* XPM */
static char * button_on_xpm[] = {
"162 72 19 1",
" 	c None",
".	c #65FFFF",
"+	c #97FFFF",
"@	c #9AFFFF",
"#	c #8EFFFF",
"$	c #82FFFF",
"%	c #84FFFF",
"&	c #79FFFF",
"*	c #6DFFFF",
"=	c #63FFFF",
"-	c #5BFFFF",
";	c #5EFFFF",
">	c #56FFFF",
",	c #54FFFF",
"'	c #52FFFF",
")	c #4FFFFF",
"!	c #4CFFFF",
"~	c #49FFFF",
"{	c #91FFFF",
"               ....................................................................................................................................               ",
"               ....................................................................................................................................               ",
"               ....................................................................................................................................               ",
"         ......++++++@@@@@@+++@@@@@@++++++@@@+++@@@@@@++++++@@@++++++@@@+++@@@@@@@@@@@@+++@@@++++++@@@++++++@@@@@@+++@@@++++++@@@@@@+++@@@@@@++++++......         ",
"         ......++++++@@@@@@+++@@@@@@++++++@@@+++@@@@@@++++++@@@++++++@@@+++@@@@@@@@@@@@+++@@@++++++@@@++++++@@@@@@+++@@@++++++@@@@@@+++@@@@@@++++++......         ",
"         ......++++++@@@@@@+++@@@@@@++++++@@@+++@@@@@@++++++@@@++++++@@@+++@@@@@@@@@@@@+++@@@++++++@@@++++++@@@@@@+++@@@++++++@@@@@@+++@@@@@@++++++......         ",
"      ...################################################################################################################################################...      ",
"      ...################################################################################################################################################...      ",
"      ...################################################################################################################################################...      ",
"   ...###$$$%%%%%%%%%%%%$$$%%%%%%%%%%%%%%%%%%%%%$$$%%%$$$%%%%%%%%%%%%$$$%%%$$$%%%%%%$$$%%%$$$%%%%%%%%%%%%$$$%%%$$$%%%%%%%%%%%%%%%%%%%%%$$$%%%%%%%%%%%%$$$###...   ",
"   ...###$$$%%%%%%%%%%%%$$$%%%%%%%%%%%%%%%%%%%%%$$$%%%$$$%%%%%%%%%%%%$$$%%%$$$%%%%%%$$$%%%$$$%%%%%%%%%%%%$$$%%%$$$%%%%%%%%%%%%%%%%%%%%%$$$%%%%%%%%%%%%$$$###...   ",
"   ...###$$$%%%%%%%%%%%%$$$%%%%%%%%%%%%%%%%%%%%%$$$%%%$$$%%%%%%%%%%%%$$$%%%$$$%%%%%%$$$%%%$$$%%%%%%%%%%%%$$$%%%$$$%%%%%%%%%%%%%%%%%%%%%$$$%%%%%%%%%%%%$$$###...   ",
"   ...###%%%&&&&&&&&&&&&&&&&&&&&&&&&&&&&&&&&&&&&&&&&&&&&&&&&&&&&&&&&&&&&&&&&&&&&&&&&&&&&&&&&&&&&&&&&&&&&&&&&&&&&&&&&&&&&&&&&&&&&&&&&&&&&&&&&&&&&&&&&&&%%%###...   ",
"   ...###%%%&&&&&&&&&&&&&&&&&&&&&&&&&&&&&&&&&&&&&&&&&&&&&&&&&&&&&&&&&&&&&&&&&&&&&&&&&&&&&&&&&&&&&&&&&&&&&&&&&&&&&&&&&&&&&&&&&&&&&&&&&&&&&&&&&&&&&&&&&&%%%###...   ",
"   ...###%%%&&&&&&&&&&&&&&&&&&&&&&&&&&&&&&&&&&&&&&&&&&&&&&&&&&&&&&&&&&&&&&&&&&&&&&&&&&&&&&&&&&&&&&&&&&&&&&&&&&&&&&&&&&&&&&&&&&&&&&&&&&&&&&&&&&&&&&&&&&%%%###...   ",
"...@@@###%%%&&&************************************************************************************************************************************&&&%%%###@@@...",
"...@@@###%%%&&&************************************************************************************************************************************&&&%%%###@@@...",
"...@@@###%%%&&&************************************************************************************************************************************&&&%%%###@@@...",
"...+++###$$$&&&***...======.........============...===............===........................===............===...============.........======...***&&&$$$###+++...",
"...+++###$$$&&&***...======.........============...===............===........................===............===...============.........======...***&&&$$$###+++...",
"...+++###$$$&&&***...======.........============...===............===........................===............===...============.........======...***&&&$$$###+++...",
"...+++###%%%&&&***===------------;;;------------;;;------;;;------------;;;------------;;;------------;;;------;;;------------;;;------------===***&&&%%%###+++...",
"...+++###%%%&&&***===------------;;;------------;;;------;;;------------;;;------------;;;------------;;;------;;;------------;;;------------===***&&&%%%###+++...",
"...+++###%%%&&&***===------------;;;------------;;;------;;;------------;;;------------;;;------------;;;------;;;------------;;;------------===***&&&%%%###+++...",
"...@@@###%%%&&&***...--->>>,,,,,,>>>>>>>>>,,,>>>>>>>>>>>>,,,,,,,,,,,,,,,>>>,,,>>>>>>,,,>>>,,,,,,,,,,,,,,,>>>>>>>>>>>>,,,>>>>>>>>>,,,,,,>>>---...***&&&%%%###@@@...",
"...@@@###%%%&&&***...--->>>,,,,,,>>>>>>>>>,,,>>>>>>>>>>>>,,,,,,,,,,,,,,,>>>,,,>>>>>>,,,>>>,,,,,,,,,,,,,,,>>>>>>>>>>>>,,,>>>>>>>>>,,,,,,>>>---...***&&&%%%###@@@...",
"...@@@###%%%&&&***...--->>>,,,,,,>>>>>>>>>,,,>>>>>>>>>>>>,,,,,,,,,,,,,,,>>>,,,>>>>>>,,,>>>,,,,,,,,,,,,,,,>>>>>>>>>>>>,,,>>>>>>>>>,,,,,,>>>---...***&&&%%%###@@@...",
"...+++###%%%&&&***===---,,,'''''''''''''''''''''''''''''''''''''''''')))'''''''''''''''''')))'''''''''''''''''''''''''''''''''''''''''',,,---===***&&&%%%###+++...",
"...+++###%%%&&&***===---,,,'''''''''''''''''''''''''''''''''''''''''')))'''''''''''''''''')))'''''''''''''''''''''''''''''''''''''''''',,,---===***&&&%%%###+++...",
"...+++###%%%&&&***===---,,,'''''''''''''''''''''''''''''''''''''''''')))'''''''''''''''''')))'''''''''''''''''''''''''''''''''''''''''',,,---===***&&&%%%###+++...",
"...+++###%%%&&&***===;;;,,,)))!!!!!!!!!!!!!!!!!!!!!!!!!!!!!!!!!!!!!!!!!!!!!!!!!!!!!!!!!!!!!!!!!!!!!!!!!!!!!!!!!!!!!!!!!!!!!!!!!!!!!!))),,,;;;===***&&&%%%###+++...",
"...+++###%%%&&&***===;;;,,,)))!!!!!!!!!!!!!!!!!!!!!!!!!!!!!!!!!!!!!!!!!!!!!!!!!!!!!!!!!!!!!!!!!!!!!!!!!!!!!!!!!!!!!!!!!!!!!!!!!!!!!!))),,,;;;===***&&&%%%###+++...",
"...+++###%%%&&&***===;;;,,,)))!!!!!!!!!!!!!!!!!!!!!!!!!!!!!!!!!!!!!!!!!!!!!!!!!!!!!!!!!!!!!!!!!!!!!!!!!!!!!!!!!!!!!!!!!!!!!!!!!!!!!!))),,,;;;===***&&&%%%###+++...",
"...@@@###%%%&&&***...--->>>)))!!!!!!!!!!!!!!!!!!!!!~~~!!!~~~~~~~~~~~~~~~!!!~~~~~~~~~~~~!!!~~~~~~~~~~~~~~~!!!~~~!!!!!!!!!!!!!!!!!!!!!)))>>>---...***&&&%%%###@@@...",
"...@@@###%%%&&&***...--->>>)))!!!!!!!!!!!!!!!!!!!!!~~~!!!~~~~~~~~~~~~~~~!!!~~~~~~~~~~~~!!!~~~~~~~~~~~~~~~!!!~~~!!!!!!!!!!!!!!!!!!!!!)))>>>---...***&&&%%%###@@@...",
"...@@@###%%%&&&***...--->>>)))!!!!!!!!!!!!!!!!!!!!!~~~!!!~~~~~~~~~~~~~~~!!!~~~~~~~~~~~~!!!~~~~~~~~~~~~~~~!!!~~~!!!!!!!!!!!!!!!!!!!!!)))>>>---...***&&&%%%###@@@...",
"...+++###%%%&&&***...---,,,'''!!!~~~~~~~~~~~~~~~~~~~~~~~~~~~~~~~~~~~~~~~~~~~~~~~~~~~~~~~~~~~~~~~~~~~~~~~~~~~~~~~~~~~~~~~~~~~~~~~~!!!''',,,---...***&&&%%%###+++...",
"...+++###%%%&&&***...---,,,'''!!!~~~~~~~~~~~~~~~~~~~~~~~~~~~~~~~~~~~~~~~~~~~~~~~~~~~~~~~~~~~~~~~~~~~~~~~~~~~~~~~~~~~~~~~~~~~~~~~~!!!''',,,---...***&&&%%%###+++...",
"...+++###%%%&&&***...---,,,'''!!!~~~~~~~~~~~~~~~~~~~~~~~~~~~~~~~~~~~~~~~~~~~~~~~~~~~~~~~~~~~~~~~~~~~~~~~~~~~~~~~~~~~~~~~~~~~~~~~~!!!''',,,---...***&&&%%%###+++...",
"...@@@###%%%&&&***...;;;,,,)))~~~!!!!!!!!!~~~~~~~~~!!!!!!!!!~~~!!!!!!~~~~~~~~~~~~~~~~~~~~~~~~!!!!!!~~~!!!!!!!!!~~~~~~~~~!!!!!!!!!~~~))),,,;;;...***&&&%%%###@@@...",
"...@@@###%%%&&&***...;;;,,,)))~~~!!!!!!!!!~~~~~~~~~!!!!!!!!!~~~!!!!!!~~~~~~~~~~~~~~~~~~~~~~~~!!!!!!~~~!!!!!!!!!~~~~~~~~~!!!!!!!!!~~~))),,,;;;...***&&&%%%###@@@...",
"...@@@###%%%&&&***...;;;,,,)))~~~!!!!!!!!!~~~~~~~~~!!!!!!!!!~~~!!!!!!~~~~~~~~~~~~~~~~~~~~~~~~!!!!!!~~~!!!!!!!!!~~~~~~~~~!!!!!!!!!~~~))),,,;;;...***&&&%%%###@@@...",
"...+++###%%%&&&***...---,,,!!!!!!!!!!!!!!!!!!!!!!!!!!!!!!!!!!!!!!!!!!!!!!!!!!!!!!!!!!!!!!!!!!!!!!!!!!!!!!!!!!!!!!!!!!!!!!!!!!!!!!!!!!!!,,,---...***&&&%%%###+++...",
"...+++###%%%&&&***...---,,,!!!!!!!!!!!!!!!!!!!!!!!!!!!!!!!!!!!!!!!!!!!!!!!!!!!!!!!!!!!!!!!!!!!!!!!!!!!!!!!!!!!!!!!!!!!!!!!!!!!!!!!!!!!!,,,---...***&&&%%%###+++...",
"...+++###%%%&&&***...---,,,!!!!!!!!!!!!!!!!!!!!!!!!!!!!!!!!!!!!!!!!!!!!!!!!!!!!!!!!!!!!!!!!!!!!!!!!!!!!!!!!!!!!!!!!!!!!!!!!!!!!!!!!!!!!,,,---...***&&&%%%###+++...",
"...@@@###%%%&&&***===---''''''''''''''''''''')))''''''''''''''''''))))))''''''))))))''''''))))))'''''''''''''''''')))'''''''''''''''''''''---===***&&&%%%###@@@...",
"...@@@###%%%&&&***===---''''''''''''''''''''')))''''''''''''''''''))))))''''''))))))''''''))))))'''''''''''''''''')))'''''''''''''''''''''---===***&&&%%%###@@@...",
"...@@@###%%%&&&***===---''''''''''''''''''''')))''''''''''''''''''))))))''''''))))))''''''))))))'''''''''''''''''')))'''''''''''''''''''''---===***&&&%%%###@@@...",
"...+++###%%%&&&***...,,,>>>>>>>>>>>>>>>>>>>>>>>>,,,>>>,,,>>>>>>>>>,,,>>>,,,>>>>>>>>>>>>,,,>>>,,,>>>>>>>>>,,,>>>,,,>>>>>>>>>>>>>>>>>>>>>>>>,,,...***&&&%%%###+++...",
"...+++###%%%&&&***...,,,>>>>>>>>>>>>>>>>>>>>>>>>,,,>>>,,,>>>>>>>>>,,,>>>,,,>>>>>>>>>>>>,,,>>>,,,>>>>>>>>>,,,>>>,,,>>>>>>>>>>>>>>>>>>>>>>>>,,,...***&&&%%%###+++...",
"...+++###%%%&&&***...,,,>>>>>>>>>>>>>>>>>>>>>>>>,,,>>>,,,>>>>>>>>>,,,>>>,,,>>>>>>>>>>>>,,,>>>,,,>>>>>>>>>,,,>>>,,,>>>>>>>>>>>>>>>>>>>>>>>>,,,...***&&&%%%###+++...",
"...+++###$$$&&&***------------;;;;;;;;;---;;;;;;---;;;---;;;------------;;;;;;;;;;;;;;;;;;------------;;;---;;;---;;;;;;---;;;;;;;;;------------***&&&$$$###+++...",
"...+++###$$$&&&***------------;;;;;;;;;---;;;;;;---;;;---;;;------------;;;;;;;;;;;;;;;;;;------------;;;---;;;---;;;;;;---;;;;;;;;;------------***&&&$$$###+++...",
"...+++###$$$&&&***------------;;;;;;;;;---;;;;;;---;;;---;;;------------;;;;;;;;;;;;;;;;;;------------;;;---;;;---;;;;;;---;;;;;;;;;------------***&&&$$$###+++...",
"...@@@###%%%&&&...=========......===.................................===...===......===...===.................................===......=========...&&&%%%###@@@...",
"...@@@###%%%&&&...=========......===.................................===...===......===...===.................................===......=========...&&&%%%###@@@...",
"...@@@###%%%&&&...=========......===.................................===...===......===...===.................................===......=========...&&&%%%###@@@...",
"   ...###%%%&&&************************************************************************************************************************************&&&%%%###...   ",
"   ...###%%%&&&************************************************************************************************************************************&&&%%%###...   ",
"   ...###%%%&&&************************************************************************************************************************************&&&%%%###...   ",
"   ...###%%%%%%&&&&&&&&&&&&&&&&&&&&&&&&&&&&&&&&&&&&&&&&&&&&&&&&&&&&&&&&&&&&&&&&&&&&&&&&&&&&&&&&&&&&&&&&&&&&&&&&&&&&&&&&&&&&&&&&&&&&&&&&&&&&&&&&&&&&%%%%%%###...   ",
"   ...###%%%%%%&&&&&&&&&&&&&&&&&&&&&&&&&&&&&&&&&&&&&&&&&&&&&&&&&&&&&&&&&&&&&&&&&&&&&&&&&&&&&&&&&&&&&&&&&&&&&&&&&&&&&&&&&&&&&&&&&&&&&&&&&&&&&&&&&&&&%%%%%%###...   ",
"   ...###%%%%%%&&&&&&&&&&&&&&&&&&&&&&&&&&&&&&&&&&&&&&&&&&&&&&&&&&&&&&&&&&&&&&&&&&&&&&&&&&&&&&&&&&&&&&&&&&&&&&&&&&&&&&&&&&&&&&&&&&&&&&&&&&&&&&&&&&&&%%%%%%###...   ",
"      ...######%%%%%%%%%%%%$$$%%%%%%$$$%%%%%%$$$%%%$$$%%%$$$%%%%%%%%%%%%%%%%%%%%%%%%%%%%%%%%%%%%%%%%%%$$$%%%$$$%%%$$$%%%%%%$$$%%%%%%$$$%%%%%%%%%%%%######...      ",
"      ...######%%%%%%%%%%%%$$$%%%%%%$$$%%%%%%$$$%%%$$$%%%$$$%%%%%%%%%%%%%%%%%%%%%%%%%%%%%%%%%%%%%%%%%%$$$%%%$$$%%%$$$%%%%%%$$$%%%%%%$$$%%%%%%%%%%%%######...      ",
"      ...######%%%%%%%%%%%%$$$%%%%%%$$$%%%%%%$$$%%%$$$%%%$$$%%%%%%%%%%%%%%%%%%%%%%%%%%%%%%%%%%%%%%%%%%$$$%%%$$$%%%$$$%%%%%%$$$%%%%%%$$$%%%%%%%%%%%%######...      ",
"         ......#################################{{{############################################################{{{#################################......         ",
"         ......#################################{{{############################################################{{{#################################......         ",
"         ......#################################{{{############################################################{{{#################################......         ",
"               ....................................................................................................................................               ",
"               ....................................................................................................................................               ",
"               ....................................................................................................................................               "};
