/* XPM */
static char * button_off_xpm[] = {
"162 72 19 1",
" 	c None",
".	c #42F6F6",
"+	c #73FAFA",
"@	c #76FAFA",
"#	c #69F9F9",
"$	c #5EF8F8",
"%	c #60F8F8",
"&	c #55F8F8",
"*	c #4AF6F6",
"=	c #41F5F5",
"-	c #38F5F5",
";	c #3BF5F5",
">	c #33F5F5",
",	c #31F4F4",
"'	c #2FF4F4",
")	c #2CF4F4",
"!	c #29F4F4",
"~	c #27F4F4",
"{	c #6DF9F9",
"               ....................................................................................................................................               ",
"               ....................................................................................................................................               ",
"               ....................................................................................................................................               ",
"         ......++++++@@@@@@+++@@@@@@++++++@@@+++@@@@@@++++++@@@++++++@@@+++@@@@@@@@@@@@+++@@@++++++@@@++++++@@@@@@+++@@@++++++@@@@@@+++@@@@@@++++++......         ",
"         ......++++++@@@@@@+++@@@@@@++++++@@@+++@@@@@@++++++@@@++++++@@@+++@@@@@@@@@@@@+++@@@++++++@@@++++++@@@@@@+++@@@++++++@@@@@@+++@@@@@@++++++......         ",
"         ......++++++@@@@@@+++@@@@@@++++++@@@+++@@@@@@++++++@@@++++++@@@+++@@@@@@@@@@@@+++@@@++++++@@@++++++@@@@@@+++@@@++++++@@@@@@+++@@@@@@++++++......         ",
"      ...################################################################################################################################################...      ",
"      ...################################################################################################################################################...      ",
"      ...################################################################################################################################################...      ",
"   ...###$$$%%%%%%%%%%%%$$$%%%%%%%%%%%%%%%%%%%%%$$$%%%$$$%%%%%%%%%%%%$$$%%%$$$%%%%%%$$$%%%$$$%%%%%%%%%%%%$$$%%%$$$%%%%%%%%%%%%%%%%%%%%%$$$%%%%%%%%%%%%$$$###...   ",
"   ...###$$$%%%%%%%%%%%%$$$%%%%%%%%%%%%%%%%%%%%%$$$%%%$$$%%%%%%%%%%%%$$$%%%$$$%%%%%%$$$%%%$$$%%%%%%%%%%%%$$$%%%$$$%%%%%%%%%%%%%%%%%%%%%$$$%%%%%%%%%%%%$$$###...   ",
"   ...###$$$%%%%%%%%%%%%$$$%%%%%%%%%%%%%%%%%%%%%$$$%%%$$$%%%%%%%%%%%%$$$%%%$$$%%%%%%$$$%%%$$$%%%%%%%%%%%%$$$%%%$$$%%%%%%%%%%%%%%%%%%%%%$$$%%%%%%%%%%%%$$$###...   ",
"   ...###%%%&&&&&&&&&&&&&&&&&&&&&&&&&&&&&&&&&&&&&&&&&&&&&&&&&&&&&&&&&&&&&&&&&&&&&&&&&&&&&&&&&&&&&&&&&&&&&&&&&&&&&&&&&&&&&&&&&&&&&&&&&&&&&&&&&&&&&&&&&&%%%###...   ",
"   ...###%%%&&&&&&&&&&&&&&&&&&&&&&&&&&&&&&&&&&&&&&&&&&&&&&&&&&&&&&&&&&&&&&&&&&&&&&&&&&&&&&&&&&&&&&&&&&&&&&&&&&&&&&&&&&&&&&&&&&&&&&&&&&&&&&&&&&&&&&&&&&%%%###...   ",
"   ...###%%%&&&&&&&&&&&&&&&&&&&&&&&&&&&&&&&&&&&&&&&&&&&&&&&&&&&&&&&&&&&&&&&&&&&&&&&&&&&&&&&&&&&&&&&&&&&&&&&&&&&&&&&&&&&&&&&&&&&&&&&&&&&&&&&&&&&&&&&&&&%%%###...   ",
"...@@@###%%%&&&************************************************************************************************************************************&&&%%%###@@@...",
"...@@@###%%%&&&************************************************************************************************************************************&&&%%%###@@@...",
"...@@@###%%%&&&************************************************************************************************************************************&&&%%%###@@@...",
"...+++###$$$&&&***...======.........============...===............===........................===............===...============.........======...***&&&$$$###+++...",
"...+++###$$$&&&***...======.........============...===............===........................===............===...============.........======...***&&&$$$###+++...",
"...+++###$$$&&&***...======.........============...===............===........................===............===...============.........======...***&&&$$$###+++...",
"...+++###%%%&&&***===------------;;;------------;;;------;;;------------;;;------------;;;------------;;;------;;;------------;;;------------===***&&&%%%###+++...",
"...+++###%%%&&&***===------------;;;------------;;;------;;;------------;;;------------;;;------------;;;------;;;------------;;;------------===***&&&%%%###+++...",
"...+++###%%%&&&***===------------;;;------------;;;------;;;------------;;;------------;;;------------;;;------;;;------------;;;------------===***&&&%%%###+++...",
"...@@@###%%%&&&***...--->>>,,,,,,>>>>>>>>>,,,>>>>>>>>>>>>,,,,,,,,,,,,,,,>>>,,,>>>>>>,,,>>>,,,,,,,,,,,,,,,>>>>>>>>>>>>,,,>>>>>>>>>,,,,,,>>>---...***&&&%%%###@@@...",
"...@@@###%%%&&&***...--->>>,,,,,,>>>>>>>>>,,,>>>>>>>>>>>>,,,,,,,,,,,,,,,>>>,,,>>>>>>,,,>>>,,,,,,,,,,,,,,,>>>>>>>>>>>>,,,>>>>>>>>>,,,,,,>>>---...***&&&%%%###@@@...",
"...@@@###%%%&&&***...--->>>,,,,,,>>>>>>>>>,,,>>>>>>>>>>>>,,,,,,,,,,,,,,,>>>,,,>>>>>>,,,>>>,,,,,,,,,,,,,,,>>>>>>>>>>>>,,,>>>>>>>>>,,,,,,>>>---...***&&&%%%###@@@...",
"...+++###%%%&&&***===---,,,'''''''''''''''''''''''''''''''''''''''''')))'''''''''''''''''')))'''''''''''''''''''''''''''''''''''''''''',,,---===***&&&%%%###+++...",
"...+++###%%%&&&***===---,,,'''''''''''''''''''''''''''''''''''''''''')))'''''''''''''''''')))'''''''''''''''''''''''''''''''''''''''''',,,---===***&&&%%%###+++...",
"...+++###%%%&&&***===---,,,'''''''''''''''''''''''''''''''''''''''''')))'''''''''''''''''')))'''''''''''''''''''''''''''''''''''''''''',,,---===***&&&%%%###+++...",
"...+++###%%%&&&***===;;;,,,)))!!!!!!!!!!!!!!!!!!!!!!!!!!!!!!!!!!!!!!!!!!!!!!!!!!!!!!!!!!!!!!!!!!!!!!!!!!!!!!!!!!!!!!!!!!!!!!!!!!!!!!))),,,;;;===***&&&%%%###+++...",
"...+++###%%%&&&***===;;;,,,)))!!!!!!!!!!!!!!!!!!!!!!!!!!!!!!!!!!!!!!!!!!!!!!!!!!!!!!!!!!!!!!!!!!!!!!!!!!!!!!!!!!!!!!!!!!!!!!!!!!!!!!))),,,;;;===***&&&%%%###+++...",
"...+++###%%%&&&***===;;;,,,)))!!!!!!!!!!!!!!!!!!!!!!!!!!!!!!!!!!!!!!!!!!!!!!!!!!!!!!!!!!!!!!!!!!!!!!!!!!!!!!!!!!!!!!!!!!!!!!!!!!!!!!))),,,;;;===***&&&%%%###+++...",
"...@@@###%%%&&&***...--->>>)))!!!!!!!!!!!!!!!!!!!!!~~~!!!~~~~~~~~~~~~~~~!!!~~~~~~~~~~~~!!!~~~~~~~~~~~~~~~!!!~~~!!!!!!!!!!!!!!!!!!!!!)))>>>---...***&&&%%%###@@@...",
"...@@@###%%%&&&***...--->>>)))!!!!!!!!!!!!!!!!!!!!!~~~!!!~~~~~~~~~~~~~~~!!!~~~~~~~~~~~~!!!~~~~~~~~~~~~~~~!!!~~~!!!!!!!!!!!!!!!!!!!!!)))>>>---...***&&&%%%###@@@...",
"...@@@###%%%&&&***...--->>>)))!!!!!!!!!!!!!!!!!!!!!~~~!!!~~~~~~~~~~~~~~~!!!~~~~~~~~~~~~!!!~~~~~~~~~~~~~~~!!!~~~!!!!!!!!!!!!!!!!!!!!!)))>>>---...***&&&%%%###@@@...",
"...+++###%%%&&&***...---,,,'''!!!~~~~~~~~~~~~~~~~~~~~~~~~~~~~~~~~~~~~~~~~~~~~~~~~~~~~~~~~~~~~~~~~~~~~~~~~~~~~~~~~~~~~~~~~~~~~~~~~!!!''',,,---...***&&&%%%###+++...",
"...+++###%%%&&&***...---,,,'''!!!~~~~~~~~~~~~~~~~~~~~~~~~~~~~~~~~~~~~~~~~~~~~~~~~~~~~~~~~~~~~~~~~~~~~~~~~~~~~~~~~~~~~~~~~~~~~~~~~!!!''',,,---...***&&&%%%###+++...",
"...+++###%%%&&&***...---,,,'''!!!~~~~~~~~~~~~~~~~~~~~~~~~~~~~~~~~~~~~~~~~~~~~~~~~~~~~~~~~~~~~~~~~~~~~~~~~~~~~~~~~~~~~~~~~~~~~~~~~!!!''',,,---...***&&&%%%###+++...",
"...@@@###%%%&&&***...;;;,,,)))~~~!!!!!!!!!~~~~~~~~~!!!!!!!!!~~~!!!!!!~~~~~~~~~~~~~~~~~~~~~~~~!!!!!!~~~!!!!!!!!!~~~~~~~~~!!!!!!!!!~~~))),,,;;;...***&&&%%%###@@@...",
"...@@@###%%%&&&***...;;;,,,)))~~~!!!!!!!!!~~~~~~~~~!!!!!!!!!~~~!!!!!!~~~~~~~~~~~~~~~~~~~~~~~~!!!!!!~~~!!!!!!!!!~~~~~~~~~!!!!!!!!!~~~))),,,;;;...***&&&%%%###@@@...",
"...@@@###%%%&&&***...;;;,,,)))~~~!!!!!!!!!~~~~~~~~~!!!!!!!!!~~~!!!!!!~~~~~~~~~~~~~~~~~~~~~~~~!!!!!!~~~!!!!!!!!!~~~~~~~~~!!!!!!!!!~~~))),,,;;;...***&&&%%%###@@@...",
"...+++###%%%&&&***...---,,,!!!!!!!!!!!!!!!!!!!!!!!!!!!!!!!!!!!!!!!!!!!!!!!!!!!!!!!!!!!!!!!!!!!!!!!!!!!!!!!!!!!!!!!!!!!!!!!!!!!!!!!!!!!!,,,---...***&&&%%%###+++...",
"...+++###%%%&&&***...---,,,!!!!!!!!!!!!!!!!!!!!!!!!!!!!!!!!!!!!!!!!!!!!!!!!!!!!!!!!!!!!!!!!!!!!!!!!!!!!!!!!!!!!!!!!!!!!!!!!!!!!!!!!!!!!,,,---...***&&&%%%###+++...",
"...+++###%%%&&&***...---,,,!!!!!!!!!!!!!!!!!!!!!!!!!!!!!!!!!!!!!!!!!!!!!!!!!!!!!!!!!!!!!!!!!!!!!!!!!!!!!!!!!!!!!!!!!!!!!!!!!!!!!!!!!!!!,,,---...***&&&%%%###+++...",
"...@@@###%%%&&&***===---''''''''''''''''''''')))''''''''''''''''''))))))''''''))))))''''''))))))'''''''''''''''''')))'''''''''''''''''''''---===***&&&%%%###@@@...",
"...@@@###%%%&&&***===---''''''''''''''''''''')))''''''''''''''''''))))))''''''))))))''''''))))))'''''''''''''''''')))'''''''''''''''''''''---===***&&&%%%###@@@...",
"...@@@###%%%&&&***===---''''''''''''''''''''')))''''''''''''''''''))))))''''''))))))''''''))))))'''''''''''''''''')))'''''''''''''''''''''---===***&&&%%%###@@@...",
"...+++###%%%&&&***...,,,>>>>>>>>>>>>>>>>>>>>>>>>,,,>>>,,,>>>>>>>>>,,,>>>,,,>>>>>>>>>>>>,,,>>>,,,>>>>>>>>>,,,>>>,,,>>>>>>>>>>>>>>>>>>>>>>>>,,,...***&&&%%%###+++...",
"...+++###%%%&&&***...,,,>>>>>>>>>>>>>>>>>>>>>>>>,,,>>>,,,>>>>>>>>>,,,>>>,,,>>>>>>>>>>>>,,,>>>,,,>>>>>>>>>,,,>>>,,,>>>>>>>>>>>>>>>>>>>>>>>>,,,...***&&&%%%###+++...",
"...+++###%%%&&&***...,,,>>>>>>>>>>>>>>>>>>>>>>>>,,,>>>,,,>>>>>>>>>,,,>>>,,,>>>>>>>>>>>>,,,>>>,,,>>>>>>>>>,,,>>>,,,>>>>>>>>>>>>>>>>>>>>>>>>,,,...***&&&%%%###+++...",
"...+++###$$$&&&***------------;;;;;;;;;---;;;;;;---;;;---;;;------------;;;;;;;;;;;;;;;;;;------------;;;---;;;---;;;;;;---;;;;;;;;;------------***&&&$$$###+++...",
"...+++###$$$&&&***------------;;;;;;;;;---;;;;;;---;;;---;;;------------;;;;;;;;;;;;;;;;;;------------;;;---;;;---;;;;;;---;;;;;;;;;------------***&&&$$$###+++...",
"...+++###$$$&&&***------------;;;;;;;;;---;;;;;;---;;;---;;;------------;;;;;;;;;;;;;;;;;;------------;;;---;;;---;;;;;;---;;;;;;;;;------------***&&&$$$###+++...",
"...@@@###%%%&&&...=========......===.................................===...===......===...===.................................===......=========...&&&%%%###@@@...",
"...@@@###%%%&&&...=========......===.................................===...===......===...===.................................===......=========...&&&%%%###@@@...",
"...@@@###%%%&&&...=========......===.................................===...===......===...===.................................===......=========...&&&%%%###@@@...",
"   ...###%%%&&&************************************************************************************************************************************&&&%%%###...   ",
"   ...###%%%&&&************************************************************************************************************************************&&&%%%###...   ",
"   ...###%%%&&&************************************************************************************************************************************&&&%%%###...   ",
"   ...###%%%%%%&&&&&&&&&&&&&&&&&&&&&&&&&&&&&&&&&&&&&&&&&&&&&&&&&&&&&&&&&&&&&&&&&&&&&&&&&&&&&&&&&&&&&&&&&&&&&&&&&&&&&&&&&&&&&&&&&&&&&&&&&&&&&&&&&&&&%%%%%%###...   ",
"   ...###%%%%%%&&&&&&&&&&&&&&&&&&&&&&&&&&&&&&&&&&&&&&&&&&&&&&&&&&&&&&&&&&&&&&&&&&&&&&&&&&&&&&&&&&&&&&&&&&&&&&&&&&&&&&&&&&&&&&&&&&&&&&&&&&&&&&&&&&&&%%%%%%###...   ",
"   ...###%%%%%%&&&&&&&&&&&&&&&&&&&&&&&&&&&&&&&&&&&&&&&&&&&&&&&&&&&&&&&&&&&&&&&&&&&&&&&&&&&&&&&&&&&&&&&&&&&&&&&&&&&&&&&&&&&&&&&&&&&&&&&&&&&&&&&&&&&&%%%%%%###...   ",
"      ...######%%%%%%%%%%%%$$$%%%%%%$$$%%%%%%$$$%%%$$$%%%$$$%%%%%%%%%%%%%%%%%%%%%%%%%%%%%%%%%%%%%%%%%%$$$%%%$$$%%%$$$%%%%%%$$$%%%%%%$$$%%%%%%%%%%%%######...      ",
"      ...######%%%%%%%%%%%%$$$%%%%%%$$$%%%%%%$$$%%%$$$%%%$$$%%%%%%%%%%%%%%%%%%%%%%%%%%%%%%%%%%%%%%%%%%$$$%%%$$$%%%$$$%%%%%%$$$%%%%%%$$$%%%%%%%%%%%%######...      ",
"      ...######%%%%%%%%%%%%$$$%%%%%%$$$%%%%%%$$$%%%$$$%%%$$$%%%%%%%%%%%%%%%%%%%%%%%%%%%%%%%%%%%%%%%%%%$$$%%%$$$%%%$$$%%%%%%$$$%%%%%%$$$%%%%%%%%%%%%######...      ",
"         ......#################################{{{############################################################{{{#################################......         ",
"         ......#################################{{{############################################################{{{#################################......         ",
"         ......#################################{{{############################################################{{{#################################......         ",
"               ....................................................................................................................................               ",
"               ....................................................................................................................................               ",
"               ....................................................................................................................................               "};
