/* XPM */
static char *_7641_03c824c436f64847bdceb67f17e000d657bdbb48b47c18ef65cdd6bc4583b7fb[] = {
/* columns rows colors chars-per-pixel */
"64 64 24 1 ",
"  c #969696",
". c #989898",
"X c #999999",
"o c #9A9A9A",
"O c #9B9B9B",
"+ c #9c9c9c",
"@ c #9D9D9D",
"# c #9e9e9e",
"$ c #9F9F9F",
"% c #A0A0A0",
"& c #a1a1a1",
"* c #A2A2A2",
"= c #a3a3a3",
"- c #A4A4A4",
"; c #A5A5A5",
": c #a6a6a6",
"> c #A7A7A7",
", c #a8a8a8",
"< c #A9A9A9",
"1 c #AAAAAA",
"2 c #ababab",
"3 c #ACACAC",
"4 c #adadad",
"5 c #AEAEAE",
/* pixels */
" #%#%$@%%%$$$%%&%%$$$$%%#@%%+$&+.&%O@#@##@++@$$%$#####$$%@$$+%=@",
"#>,:,>;,<<,>>>>,,,>>>>,,<:,,->>%%12>1213,,>>>,,,::>>>>>,<:,,;,<=",
"&<1,21,1432<<<<<111<<1113,<<>1<&@>,;,<,<1<<,,,,,>><1111<2<33,11=",
"#>,:,>;,1<,>>>>,,,>>>>,,>=-::1<%$12><1>>;:::;;;:=-:>,,>:,>11>,,%",
"$>,:<,:,<<,>>,<<,,>>>>,,,-;>,21%%12,11,,:><<,,<1-;><1<<,>:12,1<&",
"$,<><,:<<<,,,<11,,,>>,,,1><1,1,$o;:-><>,-:<<,><1,,<22221,>12,11*",
"$>,:,,;,<<,>>>,<>>>::>>><>12><,%$<1>1435*;>>;-;>,,,<<<<<<>11>,,&",
"$,<><,:<21<,>>,,,,>>>>,,>:23<12-$,,-:,,<:<21,:><,,>>>>,,2<21>,,%",
"#>,;>>>21<,,>>>,1,><<>,1-:::><>=+<:<3><>;::>>>>>-:>:;:,22331<<:&",
"%<1>,>;<,,>>>>,,<>:,,>>1:,>:::-%+,:<2><>;:>>>>>>;:>:::,1<221<<:&",
"%<2,<>;,>>>>,<<1>;;>>:><>,>:;:=$+,:,2><>::>>,>>>>>>>::>,,11<<<:*",
"+:<,1,:<<<,,<<11:;;>>::,;>>::>;&+,;,1:<,>>>,,,>>,,,>>:>>>,<,<<:*",
"O;,><>;,<<,,,,,,>::,,>><:,,>>,:*+,;>1:<,>>,,,,>><,,,,>>::,<,<<>=",
"#><:>;=:,,>:::::,>><<>>,<11,,,;&+,;:<;,,,,,,,,>><,,,<,>:><<<<1>=",
"$,<:>;->,,>>>>>><,,1<>:>,<<>>,;&+,-:<;,,,,<<,,>><,>,<<,:,11<11>=",
"#:,;>>>2<<,<<112<,,1<:;:-:>:><>-+,-:<;,,<<<<,,>>,>>,11,:<12111>=",
"@><><,>1<<,,,:-*,>:,<1<>,><1><,&%,<><,;><<<,,>>>,,,,,,,,,,>><2>&",
"@><><,>11<,>>:;=,>>,<1,>,><1><,&%,,:,>;>,,,,,,,,,,,,,,,,><<,>,:=",
"@><><,>11<>:>::;,>>,<<,>,><1><,&$>>->:;,>>>,,<<<,,,,,,,,:12<::;=",
"@><><,>11<>::>>:>>,,<<,,,><1><,&%>>->>;<>>,,,,<<,,,,,,,,,22<>>;=",
"@><><,>11,>:>,,>>>,<,,,,,><1><,&%>,;,,:<<<,,,,>><<<<<<<<221,11>&",
"@><><,>1<,>>,,,,:,<<,,,<,><1><,&$>,><<><<<<,,>>><<<<<<<<21,,12>&",
"@><><,>1,>>,<<,>:,<<,>,<,><1><,&@:,>1<:,,,,,,,,,<<<<<<<<,<,>,<:*",
"@><><,>1>>>,11<>:,<<,>,<,><1><,&O;,>1,;:>>>,,<<<<<<<<<<<-,<,::;=",
"%,,:,>;,<,,>>,,<,,,,,<112,11,21*+<>,<;<1<<<<1233,,,<111,1,22,11=",
"$>,:,>;>>>>::>>>>>>>>,,<<:,<><,&+<:>,=>>>>>,,<11,>>,11<,<>11><<*",
"#><,1<:,,,<<<<,,<<,,,<111><1>1<&$3,<1;,,,,,,<<12<,,<121<<,11><<*",
"+;,>1<:>,<1111<,1<<<<<111><1,1<*%3,<2:<,<,,,<<11,,>,<<,>,:<<:,,&",
"O->:<,;:>,<<<<,><,,,,,,,<:,,:<,%#<:,2><,>>>>>>,,>>:>,,>;>;>,;>>%",
"$,1,21><<<<11<<<1<<,,,<<1><1>1<&$1:,3<2<<,,,,,,<1<<<11<><,11><<*",
"$,<><,:,,,>>>>,,,,>>:::>,:,,:,,%#<-:1><:>>>:::>><,,,<,>:<><1:<<*",
"o&*$&%$&=*&%%&*=**&&%%%%=%*=%=*oo-$&-%*$*&&%%%&&*&&&*&%$*%==%**O",
"X%%#&%@#$$$#####$%&%$#@#&#$$+%*+X%$+$$$*#########%$++%&$%&%%&*$o",
"$:>;,>-:>>>>>:::>,<,>::::->>;,<*$>>->>:<>>>>>>>>;>>;;,,::>::>,;%",
"%,,>11><11111<<<<122<,,<:;<2,11=%,<>1<><11111111><1,<11,,<,><1>*",
"$:>:11><,,,,,,>>>,<,>::>:;,<:,,&@:,:<>;>>>>>>>>>;:>>>,>:>,>>,<:&",
"$:>:11,1<<<,,,,,>,<<,>>,2<11><1=#><,1<:,>>>>>>>>::>,<,>><<<,<1>=",
"#::;<1><<<<<,,,,>,<<,,,,3<21><1-$,1,21><,,,,,,,,>:><<>>,,<,,<1>*",
"#;:;,,:,,>>>>>>>:>,,>>>,:;,<:<<*#>,:<,;,,,,,,,,,,;;>,::<>>>:><:&",
"%,,>11,<,,,,>>>>:,<<,,,<**><><,&$>,:,,:,<<<<<<<<<:;,,:>1,<,><1>*",
"%<1,<,:1,*%:1,><1<>::><1>,,,<1>*#>,>1<:<>,<11<,,>,<<>>,<1<>>13,&",
"#><:,:;,>-=:<<,,<<>>>><<>,,,<1>*#>,>1<:<;;:,,<<<>,<<>>,<<<>>12>&",
"$,1,<,>1>>::,21>,,,,,,,,,,,,<1:*#>,>1<:<>,,,<122>,<,,>,<,,>><1>&",
"$,1,<,>1:<,;>22:>,,<<,,>,<,,<1:&#>,>1<:<21<,>,,<,,,,,,,,,,>:,<:&",
"+;>;>:;,:<,;:1<;>><<<<>>,<<,<1:&#>,>1<:<1<,>::::,,,,,,,,>,,>,<:*",
"+:,:,>:<>,,::,>:>,,<<,,><<<,<<:%#>,>1<:<1<<<,<<<<,>,,<,>><<>,<:*",
"#,1,11,3<,,<,::,,,,,,,,,<1<,<<;%#>,>1<:<1111<<,,<,>><<,>><1,,<>=",
"#><><<,23,,21;;1,,,,,,,,<1<,<<;%#>,>1<:<>>>>;=&%<,>><<,>>11<,<>-",
"#>,:<<>1,<11,>,<:>,>::<2:;1311,#$>,><,;>::>>,,,,<<<>::,111<,<1:&",
"#:,:,,:,>,<<,>,1;>,>>>,1<:<1>1,%%,1,1<:,,,,,,,,>,,,:;;:,:>::,<>*",
"#:>;,>;>:>,,,,,<;:,,,>,<2>,,;<<*$,<,1<><<<<<,,>>,<,>;;:>;:::><:*",
"$>,:,>->,,<<,,,<;:,,,,>>2>,,;<<*#:,:<,:,<<<<<,,,111,>:>,<<,>,,;%",
"%,<><,;,11<<<<,,:>>,<,>:<:<<><<&@:,:<,:,,,,<<<<<<<<,>:>,<<,>,,;%",
"%,<><,:,1<,,<<,>,>>>,,>:,:<2<1,$#><,11>1>>,,<<<<:>,>:::>;:::><:*",
"#>,:<,:<>:;:,<<,<,::,,,:,:<1,1,%#><>11,1>,,,,,,,;:>>>:>,:>::,<>*",
"@;>;,,:,-==;,<<,1,::>,,><:<<><<&@;>:<<><,,,,>>:::>,<,,<111<,<1:&",
"&:<<<11<<,,,,,,,,,<<,,>><>12<2<&%,1,21,2,,,,,,,,>>>>>>::><<<<1>=",
"#-,>:>,><<,,,,,,,,<<<,>><><1><>$%,<,11,1,,,,,,,,>>,>>>>:>,>;;>;*",
"#;1<::,<11111<<<111111<<3<22,1,%%<1,21,21111<<<<>>>>>:::1<>--::=",
"#:31::,1111<<<<<<<111<<,2,12,1<&$,<>1<>1111<,,,>>>::::::11,::>:=",
"#:21:;,<<<,,,,,,,,<<<,,>,;>,:<<&#:,:<,:<<<,,>>::<,>>>>>>,<<>>>;&",
"&,32,,<1222211111222211<,;>,>11=%<1,21,21111<<<<<<,>>>,,<12111:*",
"&:1<>>>><<<<<,,,<<<<<<,,,;>>;<<*$><>1<>1,,,,,>>>>:;---;:>,,:>,:=",
"+%**&*&$****&&&&*****&&&-&**%==+.&*%=*%=%%%%%%&&-=&%%&*=**&#$&&#"
};
