/* XPM */
static char *ef24ccdc729d41c3ebbbbd18167ee816[] = {
/* columns rows colors chars-per-pixel */
"64 64 142 2 ",
"   c #0",
".  c #04071F",
"X  c #04081F",
"o  c #050924",
"O  c #060A29",
"+  c #121430",
"@  c #6B3B07",
"#  c #6B3908",
"$  c #6B4404",
"%  c #6B4B01",
"&  c #7E4608",
"*  c #7A5D1A",
"=  c #153B53",
"-  c #14335A",
";  c #16404E",
":  c #194774",
">  c #1C5675",
",  c #1D5C76",
"<  c #236279",
"1  c #9B5E07",
"2  c #965608",
"3  c #975808",
"4  c #995A08",
"5  c #855011",
"6  c #895518",
"7  c #9E6206",
"8  c #9F6519",
"9  c #A06506",
"0  c #A36A05",
"q  c #AC6D08",
"w  c #AE7A02",
"e  c #AE7008",
"r  c #B27407",
"t  c #B67A06",
"y  c #B87E06",
"u  c #B07208",
"i  c #A46C15",
"p  c #B17514",
"a  c #B3791A",
"s  c #8B7134",
"d  c #A56E27",
"f  c #AB782B",
"g  c #B67E24",
"h  c #BC8206",
"j  c #B88127",
"k  c #BA852E",
"l  c #B68836",
"z  c #BC8934",
"x  c #C48D04",
"c  c #C79103",
"v  c #CA9503",
"b  c #D09D02",
"n  c #CE9628",
"m  c #CF9729",
"M  c #D09A2F",
"N  c #C08F3E",
"B  c #D3A13C",
"V  c #DCB53D",
"C  c #F5C417",
"Z  c #F9C717",
"A  c #FBCB17",
"S  c #FFD017",
"D  c #FFD11C",
"F  c #C29344",
"G  c #C39B52",
"H  c #D5A543",
"J  c #D7A849",
"K  c #DEB946",
"L  c #DEBA47",
"P  c #D7AE53",
"I  c #DBB25C",
"U  c #E0BD51",
"Y  c #DEBE6C",
"T  c #E0BD71",
"R  c #E1C058",
"E  c #FFDE5D",
"W  c #DFC06C",
"Q  c #FFDF60",
"!  c #1E5A8C",
"~  c #356E84",
"^  c #397287",
"/  c #3C7388",
"(  c #247699",
")  c #267A9A",
"_  c #267B9B",
"`  c #2A819E",
"'  c #3C8BA6",
"]  c #2D95BE",
"[  c #4F8194",
"{  c #528495",
"}  c #568798",
"|  c #628F9E",
" . c #63909E",
".. c #428FA9",
"X. c #6691A2",
"o. c #769DAA",
"O. c #7CA2AC",
"+. c #2D99C1",
"@. c #3CA1C6",
"#. c #41A4C8",
"$. c #49A8CA",
"%. c #5EA9C6",
"&. c #61ABC7",
"*. c #6EB2CC",
"=. c #72B4CD",
"-. c #70BFDF",
";. c #ffff",
":. c #71C0DF",
">. c #71C2E0",
",. c #7DC6E2",
"<. c #80A3AC",
"1. c #E5C785",
"2. c #E8D08C",
"3. c #FEE88F",
"4. c #FEE990",
"5. c #EFDEA8",
"6. c #FBEBAD",
"7. c #FDEDB3",
"8. c #FEEFB9",
"9. c #FFF0B3",
"0. c #FFF1BC",
"q. c #82BDD2",
"w. c #8EC4D7",
"e. c #9BCBDA",
"r. c #A2CEDA",
"t. c #85CAE4",
"y. c #8DCDE5",
"u. c #92CFE5",
"i. c #92D0E7",
"p. c #9AD3E7",
"a. c #97D2E8",
"s. c #9BD4E9",
"d. c #A7D9E9",
"f. c #A9D9E8",
"g. c #ABDAE8",
"h. c #F6EAC1",
"j. c #FFF3C4",
"k. c #FFF5CD",
"l. c #FEF6D3",
"z. c #FEF7DA",
"x. c #FEF8DD",
"c. c #FEFAE4",
/* pixels */
";.;.;.;.;.;.;.;.;.;.;.;.;.;.;.;.;.;.;.;.;.;.;.;.;.;.;.;.;.;.;.;.;.;.;.;.;.;.;.;.;.;.;.;.;.;.;.;.;.;.;.;.;.;.;.;.;.;.;.;.;.;.;.;.",
";.;.;.;.;.;.;.;.;.;.;.;.;.;.;.;.;.;.;.;.;.;.;.;.;.;.;.;.;.;.;.;.;.;.;.;.;.;.;.;.;.;.;.;.;.;.;.;.;.;.;.;.;.;.;.;.;.;.;.;.;.;.;.;.",
";.;.;.;.;.;.;.;.;.;.;.;.;.;.;.;.;.;.;.;.;.;.;.;.;.;.;.;.;.;.;.;.;.;.;.;.;.;.;.;.;.;.;.;.;.;.;.;.;.;.;.;.;.;.;.;.;.;.;.;.;.;.;.;.",
";.;.;.;.;.;.;.;.;.;.;.;.;.;.;.;.;.;.;.;.;.;.;.;.;.;.;.;.;.;.;.;.;.;.;.;.;.;.;.;.;.;.;.;.;.;.;.;.;.;.;.;.;.;.;.;.;.;.;.;.;.;.;.;.",
";.;.;.;.;.;.;.;.;.;.;.;.;.;.;.;.;.;.;.;.;.;.;.;.;.;.;.;.;.;.;.;.;.;.;.;.;.;.;.;.;.;.;.;.;.;.;.;.;.;.;.;.;.;.;.;.;.;.;.;.;.;.;.;.",
";.;.;.;.;.;.;.;.;.;.;.;.;.;.;.;.;.;.;.;.;.;.;.;.;.;.;.;.;.;.;.;.;.;.;.;.;.;.;.;.;.;.;.;.;.;.;.;.;.;.;.;.;.;.;.;.;.;.;.;.;.;.;.;.",
";.;.;.;.;.;.;.;.;.;.;.;.;.;.;.;.;.;.;.;.;.;.;.;.;.;.;.;.;.;.;.;.;.;.;.;.;.;.;.;.;.;.;.;.;.;.;.;.;.;.;.;.;.;.;.;.;.;.;.;.;.;.;.;.",
";.;.;.;.;.;.;.;.;.;.;.;.;.;.;.;.;.;.;.;.;.;.;.;.;.;.;.;.;.;.;.;.;.;.;.;.;.;.;.;.;.;.;.;.;.;.;.;.;.;.;.;.;.;.;.;.;.;.;.;.;.;.;.;.",
";.;.;.;.;.;.;.;.;.;.;.;.;.;.;.;.;.;.;.;.;.;.;.;.;.;.;.;.;.;.;.;.;.;.;.;.;.;.;.;.;.;.;.;.;.;.;.;.;.;.;.;.;.;.;.;.;.;.;.;.;.;.;.;.",
";.;.;.;.;.;.;.;.;.;.;.;.;.;.;.;.;.;.;.;.;.;.;.;.;.;.;.;.;.;.;.;.;.;.;.;.;.;.;.;.;.;.;.;.;.;.;.;.;.;.;.;.;.;.;.;.;.;.;.;.;.;.;.;.",
";.;.;.;.;.;.;.;.;.;.;.;.;.;.;.;.;.;.;.;.;.;.;.;.;.;.;.;.;.;.;.;.;.;.;.;.;.;.;.;.;.;.;.;.;.;.;.;.;.;.;.;.;.;.;.;.;.;.;.;.;.;.;.;.",
";.;.;.;.;.;.;.;.;.;.;.;.;.;.;.;.;.;.;.;.;.;.;.;.;.;.;.;.;.;.;.;.;.;.;.;.;.;.;.;.;.;.;.;.;.;.;.;.;.;.;.;.;.;.;.;.;.;.;.;.;.;.;.;.",
";.;.;.;.;.;.;.;.;.;.;.;.;.;.;.;.;.;.;.;.;.;.;.;.;.;.;.;.;.;.;.;.;.;.;.;.;.;.;.;.;.;.;.;.;.;.;.;.;.;.;.;.;.;.;.;.;.;.;.;.;.;.;.;.",
";.;.;.;.;.;.;.;.;.;.;.;.;.;.;.;.;.;.;.;.;.;.;.;.;.;.;.;.;.;.;.;.;.;.;.;.;.;.;.;.;.;.;.;.;.;.;.;.;.;.;.;.;.;.;.;.;.;.;.;.;.;.;.;.",
";.;.;.;.;.;.;.;.;.;.;.;.;.;.;.;.;.;.;.;.;.;.;.;.;.;.;.;.;.;.;.;.;.;.;.;.;.;.;.;.;.;.;.;.;.;.;.;.;.;.;.;.;.;.;.;.;.;.;.;.;.;.;.;.",
";.;.;.;.;.;.;.;.;.;.;.;.;.;.;.;.;.;.;.;.;.;.;.;.;.;.;.;.;.;.;.;.;.;.;.;.;.;.;.;.;.;.;.;.;.;.;.;.;.;.;.;.;.;.;.;.;.;.;.;.;.;.;.;.",
";.;.;.;.;.;.;.;.;.;.;.;.;.;.;.;.;.;.;.;.;.;.;.;.;.;.;.;.;.;.;.;.;.;.;.;.;.;.;.;.;.;.;.;.;.;.;.;.;.;.;.;.;.;.;.;.;.;.;.;.;.;.;.;.",
";.;.;.;.;.;.;.;.;.;.;.;.;.;.;.;.;.;.;.;.;.;.;.;.;.;.;.;.;.;.;.;.;.;.;.;.;.;.;.;.;.;.;.;.;.;.;.;.;.;.;.;.;.;.;.;.;.;.;.;.;.;.;.;.",
";.;.;.;.;.;.;.;.;.;.;.;.;.;.;.;.;.;.;.;.;.;.;.;.;.;.;.;.;.;.;.;.;.;.;.;.;.;.;.;.;.;.;.;.;.;.;.;.;.;.;.;.;.;.;.;.;.;.;.;.;.;.;.;.",
";.;.;.;.;.;.;.;.;.;.;.;.;.;.;.;.;.;.;.;.;.;.;.;.;.;.;.;.;.;.;.;.;.;.;.;.;.;.;.;.;.;.;.;.;.;.;.;.;.;.;.;.;.;.;.;.;.;.;.;.;.;.;.;.",
";.;.;.;.;.;.;.;.;.;.;.;.;.;.;.;.;.;.;.;.;.;.;.;.;.;.;.;.;.;.;.;.;.;.;.;.;.;.;.;.;.;.;.;.;.;.;.;.;.;.;.;.;.;.;.;.;.;.;.;.;.;.;.;.",
";.;.;.;.;.;.;.;.;.;.;.;.;.;.;.;.;.;.;.;.;.;.;.;.;.;.;.;.;.;.;.;.;.;.;.;.;.;.;.;.;.;.;.;.;.;.;.;.;.;.;.;.;.;.;.;.;.;.;.;.;.;.;.;.",
";.;.;.;.;.;.;.;.;.;.;.;.;.;.;.;.;.;.;.;.;.;.;.;.;.;.;.;.;.;.;.;.;.;.;.;.;.;.;.;.;.;.;.;.;.;.;.;.;.;.;.;.;.;.;.;.;.;.;.;.;.;.;.;.",
";.;.;.;.;.;.;.;.;.;.;.;.;.;.;.;.;.;.;.;.;.;.;.;.;.;.;.;.;.;.;.;.;.;.;.;.;.;.;.;.;.;.;.;.;.;.;.;.;.;.;.;.;.;.;.;.;.;.;.;.;.;.;.;.",
";.;.;.;.;.;.;.;.;.;.;.;.;.;.;.;.;.;.;.;.;.;.;.;.;.;.;.;.;.;.;.;.;.;.;.;.;.;.;.;.;.;.;.;.;.;.;.;.;.;.;.;.;.;.;.;.;.;.;.;.;.;.;.;.",
";.;.;.;.;.;.;.;.;.;.;.;.;.;.;.;.;.;.;.;.;.;.;.;.;.;.;.;.;.;.;.;.;.;.;.;.;.;.;.;.;.;.;.;.;.;.;.;.;.;.;.;.;.;.;.;.;.;.;.;.;.;.;.;.",
";.;.;.;.;.;.;.;.;.;.;.;.;.;.;.;.;.;.;.;.;.;.;.;.;.;.;.;.;.;.;.;.;.;.;.;.;.;.;.;.;.;.;.;.;.;.;.;.;.;.;.;.;.;.;.;.;.;.;.;.;.;.;.;.",
";.;.;.;.;.;.;.;.;.;.;.;.;.;.;.;.;.;.;.;.;.;.;.;.;.;.;.;.;.;.;.;.;.;.;.;.;.;.;.;.;.;.;.;.;.;.;.;.;.;.;.;.;.;.;.;.;.;.;.;.;.;.;.;.",
";.;.;.;.;.;.;.;.;.;.;.;.;.;.;.;.;.;.;.;.;.;.;.;.;.;.;.;.;.;.;.;.;.;.;.;.;.;.;.;.;.;.;.;.;.;.;.;.;.;.;.;.;.;.;.;.;.;.;.;.;.;.;.;.",
";.;.;.;.;.;.;.;.;.;.;.;.;.;.s % % % ;.;.;.;.;.s % ;.;.;.;.;.s % % % ;.;.;.;.;.s % ;.;.;.;.;.s % % % % ;.;.;.;.;.;.;.;.;.;.;.;.;.",
";.;.;.;.;.;.;.;.;.;.;.;.;.;.R b b b ; ; ; ; ; R b ; ; ; ; ; R b b b ; ; ; ; ; R b ; ; ; ; ; R b b b % ;.;.;.;.;.;.;.;.;.;.;.;.;.",
";.;.;.;.;.;.;.;.;.;.;.;.;.;.4.D D D < < ` ` ` 4.D < < ` ` ` 4.D D D < < ` ` _ 3.S , , ` _ _ 3.S S S % ;.;.;.;.;.;.;.;.;.;.;.;.;.",
";.;.;.;.;.;.;.;.;.;.;.;.;.;.x.0.0.0.^ ..$.$.$.x.0.^ ..$.$.$.x.j.0.0.^ ' #.#.@.l.9., ` +.+.+.z.9.9.9.% ;.;.;.;.;.;.;.;.;.;.;.;.;.",
";.;.;.;.;.;.;.;.;.;.;.;.;.;.c.j.j.j. .w.p.s.s.c.j.| w.p.p.p.c.j.j.j.} -.y.t.t.x.9.< %.>.>.>.c.9.9.9.% ;.;.;.;.;.;.;.;.;.;.;.;.;.",
";.;.;.;.;.;.;.;.;.;.;.;.;.;.c.l.k.k.<.r.g.g.g.c.k.O.r.g.f.d.c.j.k.j.X.w.a.u.y.c.0.^ *.,.,.,.c.0.0.0.* ;.;.;.;.;.;.;.;.;.;.;.;.;.",
";.;.;.;.;.;.;.;.;.;.;.;.;.;.c.k.k.l.<.r.g.g.g.c.k.O.r.g.g.f.c.l.l.l.o.e.s.s.a.c.j.{ q.u.i.i.c.j.j.j.s ;.;.;.;.;.;.;.;.;.;.;.;.;.",
";.;.;.;.;.;.;.;.;.;.;.;.;.;.c.l.k.l.O.r.g.f.g.c.l.O.e.g.d.d.c.l.k.k.X.w.s.a.u.c.j.[ q.u.y.y.c.j.j.j.s ;.;.;.;.;.;.;.;.;.;.;.;.;.",
";.;.;.;.;.;.;.;.;.;.;.;.;.;.c.j.j.j.{ w.i.p.i.c.j.{ =.y.t.t.c.0.8.0./ *.,.,.,.c.0.~ *.:.,.,.c.7.8.7.* ;.;.;.;.;.;.;.;.;.;.;.;.;.",
";.;.;.;.;.;.;.;.;.;.;.;.;.;.c.7.7.9.< &.:.:.:.c.7.< &.:.:.:.c.7.7.7.< %.-.-.-.c.7., %.-.-.-.c.7.7.7.% ;.;.;.;.;.;.;.;.;.;.;.;.;.",
";.;.;.;.;.;.;.;.;.;.;.;.;.;.x.A A D , _ +.] +.x.A < ` +.+.+.x.A A A , _ +.] +.c.D , _ +.+.+.c.A A A % ;.;.;.;.;.;.;.;.;.;.;.;.;.",
";.;.;.;.;.;.;.;.;.;.;.;.;.;.l.A A A , _ +.] +.l.A , ` ] ] ] z.Z A A , _ +.] +.l.C , ) +.] ] l.Z A A % ;.;.;.;.;.;.;.;.;.;.;.;.;.",
";.;.;.;.;.;.;.;.;.;.;.;.;.;.j.A Z Z , _ ] ] ] h.v , ) ] ] ] 8.v v v , _ ] +.] h.v > ( ] ] ] j.C C Z $ ;.;.;.;.;.;.;.;.;.;.;.;.;.",
";.;.;.;.;.;.;.;.;.;.;.;.;.;.5.v v v ; , ( ( _ 5.v = > ( ) ( 5.c v v = , ( ( ( 5.v = , ( ( ( 6.C C C % ;.;.;.;.;.;.;.;.;.;.;.;.;.",
";.;.;.;.;.;.;.;.;.;.;.;.;.;.2.c c c = > ( ( ( 2.c = , ( ( ( 2.x x x = , ( ( ( 2.c = > ( ( ( 2.x x x $ ;.;.;.;.;.;.;.;.;.;.;.;.;.",
";.;.;.;.;.;.;.;.;.;.;.;.;.;.W c x c = > > > > W x = > > > > Y x x x = > > > > Y x = > > > > Y h x x $ ;.;.;.;.;.;.;.;.;.;.;.;.;.",
";.;.;.;.;.;.;.;.;.;.;.;.;.;.G 0 0 0 = = = = = G 0 = = = % % % % % % % % % = = G 9 = = = = = P x h h $ ;.;.;.;.;.;.;.;.;.;.;.;.;.",
";.;.;.;.;.;.;.;.;.;.;.;.;.;.l 0 7 0 h S 9.7.9.9.9.D S b % E j.j.j.j.j.Q % b D 7.7.7.7.7.D S y 9 7 0 @ ;.;.;.;.;.;.;.;.;.;.;.;.;.",
";.;.;.;.;.;.;.;.;.;.;.;.;.;.f 0 7 7 7 y h h h 7 h h 7 7 % V V K K L L U % 7 7 y 9 7 9 y t 1 9 9 7 7 @ ;.;.;.;.;.;.;.;.;.;.;.;.;.",
";.;.;.;.;.;.;.;.;.;.;.;.;.;.i 7 7 7 7 t t t t 1 t t 9 1   b           b   1 4 t 1 1 1 t t 1 1 1 7 1 @ ;.;.;.;.;.;.;.;.;.;.;.;.;.",
";.;.;.;.;.;.;.;.;.;.;.;.;.;.. . . . . . X . . . . X X X   b %       % b   . o o . o . o . o o o X o o ;.;.;.;.;.;.;.;.;.;.;.;.;.",
";.;.;.;.;.;.;.;.;.;.;.;.;.;.@ 1 1 1 1 3 r r r r 3 r r 4   w b % % % b w   1 4 4 r 4 4 4 u u 2 4 1 3 @ ;.;.;.;.;.;.;.;.;.;.;.;.;.",
";.;.;.;.;.;.;.;.;.;.;.;.;.;.@ 3 4 3 4 2 r r r r 3 r r 4 4   w b b b t   2 1 4 4 u 3 3 3 u q 2 2 3 3 @ ;.;.;.;.;.;.;.;.;.;.;.;.;.",
";.;.;.;.;.;.;.;.;.;.;.;.;.;.o o . . o o o o o o o o o o e 3           3 # O o + o o o o O O + O o o o ;.;.;.;.;.;.;.;.;.;.;.;.;.",
";.;.;.;.;.;.;.;.;.;.;.;.;.;.;.5 5 5 - - - - - 5 5 - - - o e 4 e q 3 3 @ o - - 6 5 - - - - - 6 5 5 @ ;.;.;.;.;.;.;.;.;.;.;.;.;.;.",
";.;.;.;.;.;.;.;.;.;.;.;.;.;.;.8 4 2 - : : : : 8 3 - : : : o O e q 3 O O - : : d 2 - : : : : d 2 2 # ;.;.;.;.;.;.;.;.;.;.;.;.;.;.",
";.;.;.;.;.;.;.;.;.;.;.;.;.;.;.j e e : ! ! ! : g q : ! ! ! : # O O o - : ! ! : z q : ! ! ! : g q q # ;.;.;.;.;.;.;.;.;.;.;.;.;.;.",
";.;.;.;.;.;.;.;.;.;.;.;.;.;.;.z q q : ! ! ! ! N q : ! ! ! ! f 2 3 3 : ! ! ! ! F q : ! ! ! ! F q q # ;.;.;.;.;.;.;.;.;.;.;.;.;.;.",
";.;.;.;.;.;.;.;.;.;.;.;.;.;.;.F q q : ! ! ! ! F q : ! ! ! ! F q q q : ! ! ! ! F q : ! ! ! ! F q q # ;.;.;.;.;.;.;.;.;.;.;.;.;.;.",
";.;.;.;.;.;.;.;.;.;.;.;.;.;.;.F q q : ! ! ! ! F q : ! ! ! ! F q q q : ! ! ! ! F q : ! ! ! ! F q q # ;.;.;.;.;.;.;.;.;.;.;.;.;.;.",
";.;.;.;.;.;.;.;.;.;.;.;.;.;.;.F q q - : : : : F q - : : : : F q q q - : : : : z q - : : : : F q q # ;.;.;.;.;.;.;.;.;.;.;.;.;.;.",
";.;.;.;.;.;.;.;.;.;.;.;.;.;.;.N q q p m m n n p a a M B J H g p u p g I 1.T J g g g H P H m q q q # ;.;.;.;.;.;.;.;.;.;.;.;.;.;.",
";.;.;.;.;.;.;.;.;.;.;.;.;.;.;.k q q 3 3 2 2 2 2 q 2 2 2 2 2 2 q q q 2 2 2 2 2 2 q 2 2 2 2 2 2 q q # ;.;.;.;.;.;.;.;.;.;.;.;.;.;.",
";.;.;.;.;.;.;.;.;.;.;.;.;.;.;.O 4 3 @ O O O O O O O O O O O O O O O O O O O O O O O O O O O & 2 2 O ;.;.;.;.;.;.;.;.;.;.;.;.;.;.",
";.;.;.;.;.;.;.;.;.;.;.;.;.;.;.O O O O ;.;.;.;.;.;.;.;.;.;.;.;.;.;.;.;.;.;.;.;.;.;.;.;.;.;.;.O O O o ;.;.;.;.;.;.;.;.;.;.;.;.;.;."
};
