/* XPM */
static char *_566072477305[] = {
/* columns rows colors chars-per-pixel */
"46 46 6 1 ",
"  c #0",
". c #ababab",
"X c #bfbfbf",
"o c #c7c7c7",
"O c #D0D0D0",
"+ c #d3d3d3",
/* pixels */
"                                              ",
"                                              ",
"                                              ",
"                                              ",
"                                              ",
"                                              ",
"                                              ",
"                                              ",
"                      ..                      ",
"                      ..                      ",
"                      ..                      ",
"                      ..                      ",
"                XX    XX    XX                ",
"                XX    XX    XX                ",
"                oo    oo    oo                ",
"                oo    oo    oo                ",
"            XXoo++    ++    ++ooXX            ",
"            XXoo++    ++    ++ooXX            ",
"                                              ",
"                                              ",
"                                              ",
"                                              ",
"        ....XXoo++    +O    ++ooXX....        ",
"        ....XXoo++    +O    ++ooXX....        ",
"                                              ",
"                                              ",
"                                              ",
"                                              ",
"            XXoo++    ++    ++ooXX            ",
"            XXoo++    ++    ++ooXX            ",
"                oo    oo    oo                ",
"                oo    oo    oo                ",
"                XX    XX    XX                ",
"                XX    XX    XX                ",
"                      ..                      ",
"                      ..                      ",
"                      ..                      ",
"                      ..                      ",
"                                              ",
"                                              ",
"                                              ",
"                                              ",
"                                              ",
"                                              ",
"                                              ",
"                                              "
};
