/* XPM */
static char *_f5012a26bb8431ff8816e05bace9662[] = {
/* columns rows colors chars-per-pixel */
"64 64 157 2 ",
"   c #000000",
".  c #090909",
"X  c #201B08",
"o  c #2D1D10",
"O  c #25210C",
"+  c #2B230D",
"@  c #33230F",
"#  c #252211",
"$  c #2B2311",
"%  c #332A12",
"&  c #3E2E14",
"*  c #3D321B",
"=  c #423116",
"-  c #4B3515",
";  c #40311E",
":  c #4A361B",
">  c #4A381C",
",  c #50361B",
"<  c #533B1A",
"1  c #5C3A1F",
"2  c #463A20",
"3  c #4E3B21",
"4  c #523D22",
"5  c #5F3A27",
"6  c #59392C",
"7  c #673E22",
"8  c #5D411E",
"9  c #64421E",
"0  c #72431F",
"q  c #4E462F",
"w  c #5D4423",
"e  c #544629",
"r  c #53412D",
"t  c #5D4429",
"y  c #5D492E",
"u  c #5C4535",
"i  c #524C34",
"p  c #624322",
"a  c #6A4524",
"s  c #6A4924",
"d  c #664428",
"f  c #63492B",
"g  c #6B4A2B",
"h  c #724622",
"j  c #744D25",
"k  c #744D2C",
"l  c #7B4E2B",
"z  c #715025",
"x  c #73512B",
"c  c #79542A",
"v  c #664536",
"b  c #775331",
"n  c #705A39",
"m  c #7E5B3B",
"M  c #575D48",
"N  c #9D5914",
"B  c #9A581B",
"V  c #A15A15",
"C  c #825126",
"Z  c #83552E",
"A  c #92582A",
"S  c #855733",
"D  c #895633",
"F  c #825934",
"G  c #8C5D36",
"H  c #8B513A",
"J  c #835B3A",
"K  c #8F5E3A",
"L  c #935D35",
"P  c #9A5D35",
"I  c #935E3B",
"U  c #985B3C",
"Y  c #8D6235",
"T  c #8A623C",
"R  c #936436",
"E  c #9B6135",
"W  c #94633C",
"Q  c #9B633A",
"!  c #9B693C",
"~  c #A46A3D",
"^  c #A96C3F",
"/  c #8B6842",
"(  c #966441",
")  c #9A6241",
"_  c #936943",
"`  c #9C6A42",
"'  c #9E6F49",
"]  c #9D734B",
"[  c #96784B",
"{  c #9C665C",
"}  c #9F7452",
"|  c #A26644",
" . c #A26B44",
".. c #AA6E43",
"X. c #A46C49",
"o. c #B36C44",
"O. c #A47145",
"+. c #AD7246",
"@. c #A6734A",
"#. c #AC754B",
"$. c #AB7C4E",
"%. c #B27345",
"&. c #B4734C",
"*. c #B9764C",
"=. c #B6784F",
"-. c #BB7B4C",
";. c #AA7251",
":. c #A15F60",
">. c #C5764B",
",. c #C47D4E",
"<. c #CA7D4E",
"1. c #CD7E51",
"2. c #C97F58",
"3. c #D77A73",
"4. c #A38166",
"5. c #C4804F",
"6. c #CC804D",
"7. c #D2824D",
"8. c #C68253",
"9. c #CB8253",
"0. c #C58358",
"q. c #C98558",
"w. c #D18353",
"e. c #D38B56",
"r. c #D88B57",
"t. c #D48B5B",
"y. c #CE9057",
"u. c #FDA35C",
"i. c #D48C64",
"p. c #D39461",
"a. c #DA9365",
"s. c #DB976E",
"d. c #DC986B",
"f. c #E39364",
"g. c #E79A66",
"h. c #E1976A",
"j. c #E99768",
"k. c #E39C6B",
"l. c #E99969",
"z. c #F19B60",
"x. c #EA9870",
"c. c #F09F74",
"v. c #FDA460",
"b. c #ECA675",
"n. c #EBA679",
"m. c #EEAD7C",
"M. c #F4A975",
"N. c #F3AB7B",
"B. c #7909E1",
"V. c #CB8786",
"C. c #D99F9E",
"Z. c #F6B284",
"A. c #F5BB89",
"S. c #FEBA8B",
"D. c #FFBC91",
"F. c #FFC398",
"G. c #FAC7A9",
/* pixels */
"B.  B.  B.  B.  B.  B.  B.  B.  B.  B.  B.  B.  B.  B.  B.  B.  B.  B.  B.  B.  B.  B.  B.  B.  B.  B.  B.  B.  B.  B.  B.  B.  ",
"  B.  B.  B.  B.  B.  B.  B.  B.  B.  B.  B.  B.  B.  B.  B.  B.  B.  B.  B.  B.  B.  B.  B.  B.  B.  B.  B.  B.  B.  B.  B.  B.",
"B.  B.  B.  B.  B.  B.  B.  B.  B.  B.  B.  B.  B.  B.  B.  B.  B.  B.  B.  B.  B.  B.  B.  B.  B.  B.  B.  B.  B.  B.  B.  B.  ",
"  B.  B.  B.  B.  B.  B.  B.  B.  B.  B.  B.  B.  B.  B.  B.  B.  B.  B.  B.  B.  B.  B.  B.  B.  B.  B.  B.  B.  B.  B.  B.  B.",
"B.  B.                                                                                                                  B.  B.  ",
"  B.  B.                                                                                                                  B.  B.",
"B.  B.                                                                                                                  B.  B.  ",
"  B.  B.                                                                                                                  B.  B.",
"B.  B.                                                                                                                  B.  B.  ",
"  B.  B.                                                                                                                  B.  B.",
"B.  B.                                                                                                                  B.  B.  ",
"  B.  B.                                                                                                                  B.  B.",
"B.  B.                                                                                                                  B.  B.  ",
"  B.  B.                                                                                                                  B.  B.",
"B.  B.                                                                                                                  B.  B.  ",
"  B.  B.                                                                                                                  B.  B.",
"B.  B.                                                                                                                  B.  B.  ",
"  B.  B.                                                                                                                  B.  B.",
"B.  B.                                      . . . .                                                                     B.  B.  ",
"  B.  B.                                . .   .   .                                                                       B.  B.",
"B.  B.                            . . . .     .                                                                         B.  B.  ",
"  B.  B.                                            s b T ! O.O. .W J g t                                                 B.  B.",
"B.  B.                                        # e x _ 5.,.9.-.+.R Q G T x s > $                                         B.  B.  ",
"  B.  B.                                      % x Z Z ! %.D  .L l c l k 9 > % +                                           B.  B.",
"B.  B.                                      O * 9 k C ! I Y I J S 1 - p 2 % o $ $                                       B.  B.  ",
"  B.  B.                                    O & - < c , W s a G > a - & t + % & $                                         B.  B.",
"B.  B.                                      O > , k f G 8 s k j Y K W F F 7 = : +                                       B.  B.  ",
"  B.  B.                                    O > 8 G  ./ X.'  .O.%.+.~ ! @._ 3 : +                                         B.  B.",
"B.  B.                                      O > z Q 9.<.%.! +.^ ..~ #.9.1.=.p > +                                       B.  B.  ",
"  B.  B.                                    O > j Q f.j.q.-.~ W ! ,.q.l.b.=.x - +                                         B.  B.",
"B.  B.                                      O > j %.Z.D.k.k.9.e.w.j.x.D.S.t.j - @                                       B.  B.  ",
"  B.  B.                                  $.0 > x f 9 ' d.=.z &.Z #.k. .< a k 2 s +.                                      B.  B.",
"B.  B.                                    ] 0 r | R ; i * $ = @.5 @ q X r ! ! 6 h '                                     B.  B.  ",
"  B.  B.                                  k p F %.K V.:.u u J y.! 5 v { C.' #.H 9 a                                       B.  B.",
"B.  B.                                    J p D 3.t.&.U +.9.e.v.a.1.^ I X.9.3.H 9 m                                     B.  B.  ",
"  B.  B.                                  / 8 G w.a.h.0.v.S.l.M.c.D.u.0.f.g.w.L 9 G                                       B.  B.",
"B.  B.                                      8 D ~ o.6.u.G.a.q.A.s.a.G.u.y.*. .D w                                       B.  B.  ",
"  B.  B.                                    y c U ^ p.N.t.@.) 4.` ..i.M.n.%.Q n M                                         B.  B.",
"B.  B.                                        s -.E n.r.8.@. .( X.} 8.e.Z.0.,.a                                         B.  B.  ",
"  B.  B.                                      4 [ ~ f.9.r.m.F.d.S.m.r.w.l.-.o.>                                           B.  B.",
"B.  B.                                          T o.e.A 0 B V N B V l P e.,.F                                           B.  B.  ",
"  B.  B.                                        < U >.2.<.a.g.u.z.r.<.<.9.X.<                                             B.  B.",
"B.  B.                                            d ,.f.<.^ L l K ..1.f.9.T                                             B.  B.  ",
"  B.  B.                                        . . m q.7.6.w.b.r.1.i.*.E                                                 B.  B.",
"B.  B.                                                  k E ^ ;...P h                                                   B.  B.  ",
"  B.  B.                                                                                                                  B.  B.",
"B.  B.                                                                                                                  B.  B.  ",
"  B.  B.                                                                                                                  B.  B.",
"B.  B.                                                                                                                  B.  B.  ",
"  B.  B.                                                                                                                  B.  B.",
"B.  B.                                                                                                                  B.  B.  ",
"  B.  B.                                                                                                                  B.  B.",
"B.  B.                                                                                                                  B.  B.  ",
"  B.  B.                                                                                                                  B.  B.",
"B.  B.                                                                                                                  B.  B.  ",
"  B.  B.                                                                                                                  B.  B.",
"B.  B.                                                                                                                  B.  B.  ",
"  B.  B.                                                                                                                  B.  B.",
"B.  B.                                                                                                                  B.  B.  ",
"  B.  B.                                                                                                                  B.  B.",
"B.  B.  B.  B.  B.  B.  B.  B.  B.  B.  B.  B.  B.  B.  B.  B.  B.  B.  B.  B.  B.  B.  B.  B.  B.  B.  B.  B.  B.  B.  B.  B.  ",
"  B.  B.  B.  B.  B.  B.  B.  B.  B.  B.  B.  B.  B.  B.  B.  B.  B.  B.  B.  B.  B.  B.  B.  B.  B.  B.  B.  B.  B.  B.  B.  B.",
"B.  B.  B.  B.  B.  B.  B.  B.  B.  B.  B.  B.  B.  B.  B.  B.  B.  B.  B.  B.  B.  B.  B.  B.  B.  B.  B.  B.  B.  B.  B.  B.  ",
"  B.  B.  B.  B.  B.  B.  B.  B.  B.  B.  B.  B.  B.  B.  B.  B.  B.  B.  B.  B.  B.  B.  B.  B.  B.  B.  B.  B.  B.  B.  B.  B."
};
