/* XPM */
static char *_a7deb5737e94f089e93fca55c30ff4f[] = {
/* columns rows colors chars-per-pixel */
"64 64 68 1 ",
"  c #7E7E7E",
". c #7f7f7f",
"X c #808080",
"o c #818181",
"O c #828282",
"+ c #838383",
"@ c #848484",
"# c #858585",
"$ c #868686",
"% c #878787",
"& c #888888",
"* c #898989",
"= c #8a8a8a",
"- c #8B8B8B",
"; c #8c8c8c",
": c #8D8D8D",
"> c #8E8E8E",
", c #8f8f8f",
"< c #909090",
"1 c #919191",
"2 c #929292",
"3 c #939393",
"4 c #949494",
"5 c #959595",
"6 c #969696",
"7 c #979797",
"8 c #989898",
"9 c #999999",
"0 c #9A9A9A",
"q c #9B9B9B",
"w c #9c9c9c",
"e c #9D9D9D",
"r c #9e9e9e",
"t c #9F9F9F",
"y c #A0A0A0",
"u c #a1a1a1",
"i c #A2A2A2",
"p c #a3a3a3",
"a c #A4A4A4",
"s c #A5A5A5",
"d c #a6a6a6",
"f c #A7A7A7",
"g c #a8a8a8",
"h c #A9A9A9",
"j c #AAAAAA",
"k c #ababab",
"l c #ACACAC",
"z c #adadad",
"x c #AEAEAE",
"c c #AFAFAF",
"v c #b0b0b0",
"b c #B1B1B1",
"n c #B2B2B2",
"m c #b3b3b3",
"M c #B4B4B4",
"N c #b5b5b5",
"B c #B6B6B6",
"V c #B7B7B7",
"C c #b8b8b8",
"Z c #B9B9B9",
"A c #bababa",
"S c #BBBBBB",
"D c #BCBCBC",
"F c #bdbdbd",
"G c #bebebe",
"H c #bfbfbf",
"J c #C0C0C0",
"K c #C1C1C1",
/* pixels */
"XXXXXXXXXXXXsHJHHJfXXXXX.XXX.XXXXX%DHGJlXXXX>G,XXXXXXXXXXXXXXXXX",
"XXX.XXXXXXX<JHGHJC@.oXXoo.X.X.oXXokGHHS&XXoXNd.XXXXXXXXXXXXXXXXX",
"XXXX..XXXX+BHJHHH4XXXX.o.oXXX.XXX2GKGHwXXX.rZ@XXXXXXXXXXXXXXXXXX",
"X.XXXOXXX.sJGGHHjXoXXXoXoXXX.oXXOBHHJmOX.o*F5XX.XXXXXXXXXXXXXXXX",
"XX.XXX.oo<HHHHGA$X.Xo.XX.Xo.oXoXrHHGG<.XoXzlXo.XXXXXXXXXXXXXXXXX",
"XX.OXXoX+VHHHHJ7XXo.XoXXO.XoXXX&DHHHdXXoX7D%X.oXXXXXXXXXXXXXXXXX",
"XXXX.oXXaJHHGJlXoX.oXXX..Xo.XX.jHHHA#oXX@SqXXXXXXXXXXXXXXXXXXXXX",
"XXXXoXX,HGJHJS&oXoXXXXXXoX.oXX1HHHG8XXXXdnoXXXXXXXXXXXXXXXXXXXXX",
"XXX.oo+BHHJGJqo.XXXXXXXXXoXXXOBHHHvXX.X,G;XXXXXoXXXXXXXXXXXXXXXX",
"XXoXX.aHJHGHvo.XXXXXXXXXXXXXXrJGJG-XXXoNiXXo.oo.XXXXXXXXXXXXXXXX",
"oX.XX>HHHHHF*oXXXXXXXXXXXXXX*FGJHio.o.tV+XoXX.XXXXXXXXXXXXXXXXXX",
"XXXX+BGHHJGrX.XXXXXXXXXXX.oXkGJHC@XoX-F2XXXXXX.XXXXXXXXXXXXXXXXX",
"oX.ouHJHJHmoXoXXXXXXXXXXXX.3HJHH4XoXXchXoXXo.XXoXXXXXXXXXXXXXXXX",
"XXo>GHGHHG;XXXXoXXXXXXXXXoOVHGJlXX.X9S$X.o.XXXXXXXXXXXXXXXXXXXXX",
"X.+NHHHHHiXXXXXXXXXXXXXXoXyHHJD&Xoo#A9XXo.XX.o.XXXXXXXXXXXXXXXXX",
"XXiHHHHHNOoXXXXXXXXXXXXXX*FHHGrXX.XgvXXoXoXXXXoXXXXXXXXXXXXXXXXX",
"X>HHHJHH,XXoXXXXXXXX.XX.XlHHJMoXXX1F=XXXXXXXXXXXXXXXXXXXXXXXXX.X",
"ONHHHHHdXXo.XXXX.oX.oX.X2HHHG<.XXoVyXXoXXXXXXXXXXXXXXXXXXX.X.X.X",
"uHHJHHVOXoXXO.XXX..X.oooBHHHgXoXXyBOXXXXXXXXXXXXXXXXXXXXXXXXo O%",
"GHHHHJ2Xo.XXX.XXXXXoXo.yHHHS#X.X-F<X.oXoXXXXXXXXXXXXXXXXXXX.oo.h",
"HGKGJdXXXXOXXX.XXXX.XX*FHHG0XoXXbfXoX.XXXXXXXXXXXXXXXXXXXXXX.X,H",
"HHGHZ#.oXX..XXXXXXXXXXkJHHnoX.X0A$XXXo.oXXXXXXXXXXXXXXXXXXoXXobH",
"HHHJ4ooXXXXX.XXX.oXXX3JHHH-Xo.$S6.XooXXXXXXXXXXXXXXXXXXXoXXXX9HH",
"HHGkXX.XXXXXXXXXX.XX+VHHHiXXXojxXXoXXXXXXXXXXXXXXXXXXXXXXXXX@AGH",
"HHS$X.XXXXXXXXXXXoXXyHHHZ+oXX1F&XXXXXXXXXXXXXXXXXXXXXXXXXXo.iHHH",
"HG8X.X.XXXXXXXXXXXX=DHHG5XXX@VtXXXXXXXXXXXXXXXXXXXXXXXXXXX.-FHGH",
"HcoXXXXXXXXXXXXXXoXzHGHzXXXoimoXXXXXXXXXXXXXXXXXXXXXXXXXXXXzHHJG",
"D%XXXXXXXXXXXXXXX.4GHJF%oXX;G>.XXXXXXXXXXXXXXXXXXXXXXXXXXo2GHHGH",
"0oX..XXXXXXXXXXXXOBJGGtXXoOnd.X.XXXXXXXXXXXXXXXXXXXXXXXXXoNHHGHH",
"O.X.oXoXXXXXXXXXoyHGHNOXXX0Z@XXXXXXXXXXXXXXXXXXXXXXXXXXXoqHHHHHD",
"XXXo oXoXXXXXXXX*FGHG<XX.%D4oo.XXXXXXXXXXXXXXXXXXXXXXXXX#FHHHHJy",
"XX..XXXXXXXXXXXXzHHHgXXXojlXXXXXXXXXXXXXXXXXXXXXXXXXXXXXdHHHHHS@",
"XXXXXXXXXoXX.XX4HHHS%XXX5D&o.XXXXXXXXXXXXXXXXXXXXoXXXXX-HHHHHHr.",
"XXXXXXXXX.oXXX+VHHH0.XX+CqXXXXXXXXXXXXXXXXXXXXXXXXXXX.ovHHGHHSOX",
"XXXXXXXXXXXXX.yHHHnoXXXabOXXo.XXXXXXXXXXXXXXXXXXXX.XXo5HHGHHGwXo",
"XXXXXXXXXXXo.=GHHJ:.XX:G:.oXXXXXXXXXXXXXXXXXXXXXXXX.XOVJHGHHZOXX",
"XXXXXXXXXXXXXxFJHaXoXoni.o.X.XXXXXXXXXXXXXXXXXXX.XXXoyJHHJHHqXXX",
"XXXXXXXXXoXX5HJGZ@XXXqZOXXXXX.XXXXXXXXXXXXXXXXXXo.XX&FHJJHJZOXXX",
"XXXXXXXXXXX+BHHH5XXX&D1XXXX.XXoXXXXXXXXXXXXXXXXX.o.XhHHHGJH9.oXX",
"XXXXXXXX..oyHHHx.XXXzhXXXXXX.o.oXXXXXXXXXXXXXXXXX.X,HHHHHGVOo.XX",
"XXXXo.oXXo*FHHG*XXX5S$.oXXXXXXXXXXXXXXXX.XXXXXXXXXomHHJHHH8XXXoX",
"XXXX.oXXXXxJGJrXXX@Z9ooXXXXXXXXXXXXXXXXXXXXXX.XXoX9HHHGJHBoo.o.X",
".XXXoX.oX5GHJVOXXosvoo.XXXXXXXXXXXXXXXXXXXXX.oXX.@AHJHHHH7XXXXXX",
"oXXo.oXX+CHHH1XoX>D-.oXXXXXXXXXXXXXXXXXXXXXXXXXXXaHHHJHHNooXoXoX",
".XXXo.XXiGHHhXX.oMuXXXoXXXXXXXXXXXXXXXXXXXX.oXXX=FHHGHHH5XXXX.Xo",
"Xoo.XXX=GJGS#X.orBoo.XXXXXXXXXXXXXXXXXXXXXXXXXXXzHHJHHHMXoo.XoXX",
"XX.XXXXvJGJqX.o&F1XXoXXXXXXXXXXXXXXXXXXXX.XoXXX3HHHGJHH3XXXo..XX",
"XXo.XX6GHHnoXX.cfXoXXXXXXXXXXXXXXXXXXXXXoXXXoXOBHHHHHHnoXXXXXX.X",
"Xo.oX+CHHH:XXX8A#o.XXXXXXXXXXXXXXXXXXXXXXXXXXXeHHHJHHH1XXXXXXXXX",
"XXXXXiJGHpoXX#A7oXXoXXXXXXXXXXXXXXXXXXXXXXo.X$AHJGHGHbXXXXXXXXXX",
"XXXX=GHJZ@XX.fzX.XXXXXXXXXXXXXXXXXXXXXXXXXXoofHGHHHHJ<XXXXXXXXXX",
"XXX.vGHH5Xo.1F*XXoXXXXXXXXXXXXXXXXXXXXXXXXXo;HJHHHHHcXX.XXXXXXXX",
"XX.7GHHxoX.OBroXXXXXXXXXXXXXXXXXXXXXXXXXXXXXvHGHHHHJ,o.oXXXXXXXX",
"Xo+CHHG*.ooyMoXXXXXXXXXXXXXXXXXXXXXXXXXXXoX6HHJHHHHlXXoXXXXXXXXX",
"X.iHHGyXX.=G>o.XXXXXXXXXXXXXXXXXXXXXXXXXXX@VJHJHGHH:oX.XXXXXXXXX",
"X-GHHVOXXocaoXoXXXXXXXXXXXXXXXXXXXXXXXXXXXyHHHGJJGkXXXXXXXXXXXXX",
"XxJHH2.oX9C@.oXXXXXXXXXXXXXXXXXXXXXXXXXXX&FGGJHHJH-XXXXXXXXXXXXX",
"7HGHjXX.$S5Xo.ooXXXXXXXXXXXXXXXXoXXXXXXXXkHHHGHHHjXX.XXXXXXXXXXX",
"ZJHS%XXXhkoXXXX.XXXXXXXXXXXXXXXXXXXoXX.X1JHGJHHHH-XXXXXXXXXXXXXX",
"JHHwXXX1S&XoXX.XXXXXXXXXXXXXXXXXXXXXo.OoMHHJHJGHhXoXXXXXXXXXXXXX",
"GJmoXX+Vw.XXXXXXXXXXXXXXXXXXXXXXXoXXXo.qHJGJHHJF*X.XXXXXXXXXXXXX",
"HG,.XXinXXXXXXX.XXXXXXXXXXXXXXXX.oXo.X#AHGJHHHHgXXoXX.X.XXXXXXXX",
"Hd.oX-F:XoXXX.XXXXXXXXXXXXXXXXXXXXXXXXaGHJHHGHG&Xo.XXXXoXXXXXXXX",
"A@X.oniXXXXXXXXXXXXXXXXXXXXXXXXXXXX.X-GHHHHHJGsXXXXX.XXXXXXXXXXX"
};
