/* XPM */
static char *_566404471859[] = {
/* columns rows colors chars-per-pixel */
"64 64 25 1 ",
"  c #1c1c1c",
". c #1D1D1D",
"X c #232323",
"o c #242424",
"O c #2b2b2b",
"+ c #2C2C2C",
"@ c #323232",
"# c #333333",
"$ c #393939",
"% c #3A3A3A",
"& c #414141",
"* c #424242",
"= c #494949",
"- c #4a4a4a",
"; c #515151",
": c #525252",
"> c #575757",
", c #5c5c5c",
"< c #5D5D5D",
"1 c #636363",
"2 c #6A6A6A",
"3 c #6b6b6b",
"4 c #717171",
"5 c #777777",
"6 c #ffff",
/* pixels */
"6666666666666666666666666666666666666666666666666666666666666666",
"6666666666666666666666666666666666666666666666666666666666666666",
"6666666666666666666666666666666666666666666666666666666666666666",
"6666666666666666666666666666666666666666666666666666666666666666",
"6666666666666666666666666666666666666666666666666666666666666666",
"6666666666666666666666666666666666666666666666666666666666666666",
"6666666666666666666666666666666666666666666666666666666666666666",
"6666666666666666666666666666666666666666666666666666666666666666",
"6666666666666666666666666666666666666666666666666666666666666666",
"6666666666666666666666666666666666666666666666666666666666666666",
"6666666666666666666666666666666666666666666666666666666666666666",
"6666666666666666666666666666666666666666666666666666666666666666",
"6666666666666666666666666666666666666666666666666666666666666666",
"6666666666666666666666666666666666666666666666666666666666666666",
"6666666666666666666666666666666666666666666666666666666666666666",
"666666666666666666666666666666:<33=$6666666666666666666666666666",
"66666666666666666666666666666=:111:$$666666666666666666666666666",
"66666666666666666666666666666=:<<<:*#666666666666666666666666666",
"66666666666666666666666666666$*=::=*#666666666666666666666666666",
"66666666666666666666666666666@$***$$#666666666666666666666666666",
"66666666666666666666666666666##$$$$$@666666666666666666666666666",
"66666666666666666666666666=<<:$@$:311:*6666666666666666666666666",
"666666666666666666666631<:155<=>=,1454<:*=*666666666666666666666",
"66666666666666666666631<>=:13<=::>,31<===45=66666666666666666666",
"666666666666666666666:<>:*=>1>===:>>:=$*>131=6666666666666666666",
"66666666666666666666*=:=**:<<:**$=:<1,=$=><>:*666666666666666666",
"6666666666666666666:>=*$$*=>>=$$@*=>>=*$$==*$@@66666666666666666",
"666666666666666666*>::$$*=*=:=$$@$*==*=*$@$***@#6666666666666666",
"66666666666666666*><:*##*>:****$%$$**=:=$#$*=::=6666666666666666",
"66666666666666666$=:*@#@$:<:*$=$=#$$*;>=6#O#*=*$@666666666666666",
"6666666666666666$**$@@@66*::**=$=#$$=<:=66#O@#O#$666666666666666",
"6666666666666666*=*@@@666$*==*=$*#$*=:=6666#O#$*@666666666666666",
"666666666666666$=*$OO6666#$=>===$$=::=*66666O#*=#666666666666666",
"666666666666666#$$#O#6666#$:3>>:>-,3,*666666O#$$O666666666666666",
"6666666666666666##OO$6666$&:,;><>=:<:*666666O#$#O666666666666666",
"66666666666666666OOO#OO66$=>3,=>==<3,*$66666O#$#O666666666666666",
"666666666666666666OoOoo66$*:<:*=$=>1>&$66666o#$O6666666666666666",
"6666666666666666666OoOo66$$**%$@#*=:=*@O6666o##O6666666666666666",
"66666666666666666666oo666#@####O#$*=*$@O666OXOOo6666666666666666",
"666666666666666666666666##OO+O#oO#$*$@OO66OXXoO66666666666666666",
"666666666666666666666666OooO##OoOO##@OO#66OooOO66666666666666666",
"666666666666666666666666OooooooooOOOOOo#66Oooo666666666666666666",
"666666666666666666666666oo     6ooooooo%666oo6666666666666666666",
"666666666666666666666666oo     6XoXXooo$666666666666666666666666",
"666666666666666666666666oooXo  6XXO++Oo$666666666666666666666666",
"666666666666666666666666oooXo  6OXO#$#O$666666666666666666666666",
"666666666666666666666666Oo+Oo  66XO$*$+#666666666666666666666666",
"6666666666666666666666666oO+o  66XO$*$##666666666666666666666666",
"6666666666666666666666666OOOOo 66oO$=$#6666666666666666666666666",
"6666666666666666666666666###@OO66o+*:*#6666666666666666666666666",
"66666666666666666666666666#$$$@66O#=:=$6666666666666666666666666",
"66666666666666666666666666$*==*666#===$6666666666666666666666666",
"66666666666666666666666666*:,:=&66#:>:*6666666666666666666666666",
"66666666666666666666666666*>:=>=66$>:>=6666666666666666666666666",
"66666666666666666666666666=:=*==6#$:*:**666666666666666666666666",
"66666666666666666666666666*=&$&=6#$*$***666666666666666666666666",
"666666666666666666666666666$*>:*6##$#$$#666666666666666666666666",
"666666666666666666666666666@><>=66##O##6666666666666666666666666",
"666666666666666666666666666#*=*=66OO#+#6666666666666666666666666",
"666666666666666666666666666@@@%%66O#%O66666666666666666666666666",
"666666666666666666666666666#++OO66O#*O66666666666666666666666666",
"666666666666666666666666666$#O+%66O$*$66666666666666666666666666",
"6666666666666666666666666666%%$666#*:*66666666666666666666666666",
"6666666666666666666666666666666666$*>*66666666666666666666666666"
};
