/* XPM */
static char *_566404478818[] = {
/* columns rows colors chars-per-pixel */
"64 64 38 1 ",
"  c #1c1c1c",
". c #1D1D1D",
"X c #232323",
"o c #242424",
"O c #272727",
"+ c #2b2b2b",
"@ c #2C2C2C",
"# c #323232",
"$ c #343434",
"% c #393939",
"& c #3A3A3A",
"* c #3b3b3b",
"= c #414141",
"- c #424242",
"; c #484848",
": c #494949",
"> c #4a4a4a",
", c #505050",
"< c #515151",
"1 c #525252",
"2 c #575757",
"3 c #585858",
"4 c #5c5c5c",
"5 c #5D5D5D",
"6 c #636363",
"7 c #646464",
"8 c #6b6b6b",
"9 c #717171",
"0 c #787878",
"q c #7C7C7C",
"w c #ffff",
"e c #838383",
"r c #848484",
"t c #8c8c8c",
"y c #8D8D8D",
"u c #999999",
"i c #9F9F9F",
"p c #b3b3b3",
/* pixels */
"wwwwwwwwwwwwwwwwwwwwwwwwwwwwwwwwwwwwwwwwwwwwwwwwwwwwwwwwwwwwwwww",
"wwwwwwwwwwwwwwwwwwwwwwwwwwwwwwwwwwwwwwwwwwwwwwwwwwwwwwwwwwwwwwww",
"wwwwwwwwwwwwwwwwwwwwwwwwwwwwwwwwwwwwwwwwwwwwwwwwwwwwwwwwwwwwwwww",
"wwwwwwwwwwwwwwwwwwwwwwwwwwwwwwwwwwwwwwwwwwwwwwwwwwwwwwwwwwwwwwww",
"wwwwwwwwwwwwwwwwwwwwwwwwwww12882,wwwwwwwwwwwwwwwwwwwwwwwwwwwwwww",
"wwwwwwwwwwwwwwwwwwwwwwwwww14777741wwwwwwwwwwwwwwwwwwwwwwwwwwwwww",
"wwwwwwwwwwwwwwwwwwwwwwwww1744444471wwwwwwwwwwwwwwwwwwwwwwwwwwwww",
"wwwwwwwwwwwwwwwwwwwwwwwww1q82>>28q7wwwwwwwwwwwwwwwwwwwwwwwwwwwww",
"wwwwwwwwwwwwwwwwwwwwwwww30eq9449qe02wwwwwwwwwwwwwwwwwwwwwwwwwwww",
"wwwwwwwwwwwwwwwwwwwwwwww5-#580084#-5wwwwwwwwwwwwwwwwwwwwwwwwwwww",
"wwwwwwwwwwwwwwwwwwwwwwww4>*yo+#oy*>4wwwwwwwwwwwwwwwwwwwwwwwwwwww",
"wwwwwwwwwwwwwwwwwwwwwwwww4>O#>>#+>4wwwwwwwwwwwwwwwwwwwwwwwwwwwww",
"wwwwwwwwwwwwwwwwwwwwwwwww14->77;-41wwwwwwwwwwwwwwwwwwwwwwwwwwwww",
"wwwwwwwwwwwwwwwwwwwwwwwww#5#ewpe#4#-wwwwwwwwwwwwwwwwwwwwwwwwwwww",
"wwwwwwwwwwwwwwwwwwwwwww1-@2 >  ; 2@-1>wwwwwwwwwwwwwwwwwwwwwwwwww",
"wwwwwwwwwwwwwwwwwww4753-#o1 >##; 1o#>571-*wwwwwwwwwwwwwwwwwwwwww",
"wwwwwwwwwwwwwwwwww5797&+ o;&;,1>&>oo#-282;**wwwwwwwwwwwwwwwwwwww",
"wwwwwwwwwwwwwwwww;35752#+o- ewpe -o+*2874,>-wwwwwwwwwwwwwwwwwwww",
"wwwwwwwwwwwwwwwww->>1;>;&o#-tuuy=#o%274>>21>wwwwwwwwwwwwwwwwwwww",
"wwwwwwwwwwwwwwwww#--&&->-+o*#  #*+&2421,#->-*wwwwwwwwwwwwwwwwwww",
"wwwwwwwwwwwwwwww@o  #*&&+#+@->>-++->**;>#+**##wwwwwwwwwwwwwwwwww",
"wwwwwwwwwwwwww&+$@  o##+#&#+o   +#--*+-*+  o###wwwwwwwwwwwwwwwww",
"wwwwwwwwwwwww&&&*#o  o++#&&#++ +#%%%#+*#o  o++#wwwwwwwwwwwwwwwww",
"wwwwwwwwwwwww&--#+  o o+#&-&+o+o#%--#++oo +*-*#wwwwwwwwwwwwwwwww",
"wwwwwwwwwwwww&&#@  .#@o  oo+o+++o+oooo+#o @->-#wwwwwwwwwwwwwwwww",
"wwwwwwwwwwww&$+o  o@o#@@$*-&++#++*-*#oo+. o#-*+wwwwwwwwwwwwwwwww",
"wwwwwwwwwwww$@X o@$wwo@#&#+#-& *-#+#*#oow+ +#+o#wwwwwwwwwwwwwwww",
"wwwwwwwwwww&>>#oo#wwww@##o+*&+ +%%+o##+www+ oo+*iwwwwwwwwwwwwwww",
"wwwwwwwwww&>261&#wwwwww#o   o+++ooooo#wwwww+oo#=&wwwwwwwwwwwwwww",
"wwwwwwwwww-&>21-*wwwwww+ o+*>&o-;*+ o+wwwww+%#*-#wwwwwwwwwwwwwww",
"wwwwwwwwww>&&&---wwwwww#+oo##+o+##oo+#wwwww#;%-&#wwwwwwwwwwwwwww",
"wwwwwwwwwww-#&-11*wwww+*#+oo++#++oo+#*wwwww#-;-*#wwwwwwwwwwwwwww",
"wwwwwwwwwwww-#*42>-www#%##*->->;1>*##&wwwwww->-#wwwwwwwwwwwwwwww",
"wwwwwwwwwwwww%#4,#>www%%$+#-;*+*;*##**wwwwww*>-+wwwwwwwwwwwwwwww",
"wwwwwwwwwwwww%#%>1;www%=*#+*&#*#*#+#-%%wwww+#**+wwwwwwwwwwwwwwww",
"wwwwwwwwwwwwww*#+#%www%>-*###+o+#++-;-%wwww++++wwwwwwwwwwwwwwwww",
"wwwwwwwwwwwwwwwoo*www&%,1-*#+oooo+*>1-*wwww++++wwwwwwwwwwwwwwwww",
"wwwwwwwwwwwwwwwwwwwww*%241-#+ooo+#=2,>-#www++++wwwwwwwwwwwwwwwww",
"wwwwwwwwwwwwwwwwwwwww#*274>*@..o#-12,>=#wwwwwwwwwwwwwwwwwwwwwwww",
"wwwwwwwwwwwwwwwwwwwww#*142;-#ww#%>121>-#wwwwwwwwwwwwwwwwwwwwwwww",
"wwwwwwwwwwwwwwwwwwwww##-11>-#ww#==121;-#wwwwwwwwwwwwwwwwwwwwwwww",
"wwwwwwwwwwwwwwwwwwwww#+*--=%+ww#>--1;-*#wwwwwwwwwwwwwwwwwwwwwwww",
"wwwwwwwwwwwwwwwwwwwww#+#***#+ww#=1%;=-*#wwwwwwwwwwwwwwwwwwwwwwww",
"wwwwwwwwwwwwwwwwwwwww*++#*#+#ww#*->#**#wwwwwwwwwwwwwwwwwwwwwwwww",
"wwwwwwwwwwwwwwwwwwwww*#+##$@$ww##*%++##wwwwwwwwwwwwwwwwwwwwwwwww",
"wwwwwwwwwwwwwwwwwwwwww*#+#+#*www##+oo+#wwwwwwwwwwwwwwwwwwwwwwwww",
"wwwwwwwwwwwwwwwwwwwwww&#+++*#>ww+++*#o#wwwwwwwwwwwwwwwwwwwwwwwww",
"wwwwwwwwwwwwwwwwwwwwww##+oo##-wwo+---##wwwwwwwwwwwwwwwwwwwwwwwww",
"wwwwwwwwwwwwwwwwwwwwwww#O..o#-wwoo**-#wwwwwwwwwwwwwwwwwwwwwwwwww",
"wwwwwwwwwwwwwwwwwwwwwwwo+#1oo#-woo++++wwwwwwwwwwwwwwwwwwwwwwwwww",
"wwwwwwwwwwwwwwwwwwwwwwww+&o*oo#w+#++++-wwwwwwwwwwwwwwwwwwwwwwwww",
"wwwwwwwwwwwwwwwwwwwwwwww#+oo  #w-*++#+-wwwwwwwwwwwwwwwwwwwwwwwww",
"wwwwwwwwwwwwwwwwwwwwwwww*#    #w-#++&+*wwwwwwwwwwwwwwwwwwwwwwwww",
"wwwwwwwwwwwwwwwwwwwwwwwww&  . *w##++#++wwwwwwwwwwwwwwwwwwwwwwwww",
"wwwwwwwwwwwwwwwwwwwwwwwwww+o. *ww#++#+wwwwwwwwwwwwwwwwwwwwwwwwww",
"wwwwwwwwwwwwwwwwwwwwwwwwww+o..*ww@++#+wwwwwwwwwwwwwwwwwwwwwwwwww",
"wwwwwwwwwwwwwwwwwwwwwwwwwwo##o*ww+@++wwwwwwwwwwwwwwwwwwwwwwwwwww",
"wwwwwwwwwwwwwwwwwwwwwwwwww###+&ww#@+@wwwwwwwwwwwwwwwwwwwwwwwwwww",
"wwwwwwwwwwwwwwwwwwwwwwwww#*#*#+ww#@++wwwwwwwwwwwwwwwwwwwwwwwwwww",
"wwwwwwwwwwwwwwwwwwwwwwwww##w#+#ww$---wwwwwwwwwwwwwwwwwwwwwwwwwww",
"wwwwwwwwwwwwwwwwwwwwwwwww0+w+0#w#&11>*wwwwwwwwwwwwwwwwwwwwwwwwww",
"wwwwwwwwwwwwwwwwwwwwwwwwwwwwwwww*-->1>>wwwwwwwwwwwwwwwwwwwwwwwww",
"wwwwwwwwwwwwwwwwwwwwwwwwwwwwwww%11-w#1,>wwwwwwwwwwwwwwwwwwwwwwww",
"wwwwwwwwwwwwwwwwwwwwwwwwwwwwwww*#p#w++p>wwwwwwwwwwwwwwwwwwwwwwww"
};
