/* XPM */
static char *_566404491409[] = {
/* columns rows colors chars-per-pixel */
"64 64 32 1 ",
"  c #1c1c1c",
". c #1D1D1D",
"X c #232323",
"o c #242424",
"O c #2b2b2b",
"+ c #2C2C2C",
"@ c #333333",
"# c #343434",
"$ c #393939",
"% c #3A3A3A",
"& c #414141",
"* c #424242",
"= c #494949",
"- c #4a4a4a",
"; c #515151",
": c #525252",
"> c #575757",
", c #585858",
"< c #5c5c5c",
"1 c #5D5D5D",
"2 c #5F5F5F",
"3 c #636363",
"4 c #646464",
"5 c #6A6A6A",
"6 c #6b6b6b",
"7 c #717171",
"8 c #787878",
"9 c #7B7B7B",
"0 c #ffff",
"q c #bfbfbf",
"w c LightGray",
"e c #DFDFDF",
/* pixels */
"0000000000000000000000000000000000000000000000000000000000000000",
"0000000000000000000000000000000000000000000000000000000000000000",
"0000000000000000000000000000000000000000000000000000000000000000",
"0000000000000000000000000000000000000000000000000000000000000000",
"0000000000000000000000000000000000000000000000000000000000000000",
"0000000000000000000000000000000000000000000000000000000000000000",
"0000000000000000000000000000000000000000000000000000000000000000",
"0000000000000000000000000000000000000000000000000000000000000000",
"0000000000000000000000000000000000000000000000000000000000000000",
"0000000000000000000000000000000000000000000000000000000000000000",
"0000000000000000000000000000000000000000000000000000000000000000",
"000000000000000000000000000000000000000$:>>:00000000000000000000",
"00000000000000000000000000000000000000$*<5576>000000000000000000",
"0000000000000000000000000000000000000$*:>>>365>00000000000000000",
"000000000000000000000000000000000000$*:::::3793>0000000000000000",
"0000000000000000000000000000000000=$**=====58*@10000000000000000",
"00000000000000000000000000000000=1>1*******:3*2O0000000000000000",
"000000000000000000000000000000>>8>1*$$$$$$*$=3500000000000000000",
"0000000000000000000000000000$=<1776>&**$*O:oowe00000000000000000",
"0000000000000000000000000000>:>166555&**:@1o#@000000000000000000",
"000000000000000000000000000>1::,333333:=:$:X@0000000000000000000",
"00000000000000000000000000>13=::>>,>:<>0:==Xw0000000000000000000",
"0000000000000000000000000*153=====-*=>>00:=$oe000000000000000000",
"000000000000000000000000**75,=*=::**=;;000***0000000000000000000",
"00000000000000000000000#@*531>=@OO@$==:0000000000000000000000000",
"0000000000000000000000$**=>1:*XXooO$**=0000000000000000000000000",
"000000000000000000000@$$*=>:*XO@@OOO$$*0000000000000000000000000",
"000000000000000000000@1$*==*XO>:=*$@%*00000000000000000000000000",
"000000000000000000000@=$=*@XO$*=>>>=0000000000000000000000000000",
"000000000000000000000@@$==#++$$$:>:00000000000000000000000000000",
"000000000000000000000@OO**=#+@$@%=000000000000000000000000000000",
"0000000000000000000000$+@*=:$+@**0000000000000000000000000000000",
"000000000000000000000:OO@$*<:@O@@::00000000000000000000000000000",
"00000000000000000000**@oOO$;>=OO@*=:>00<500000000000000000000000",
"00000000000000000000*&$@oOO*>>@ooO$*=:=<:59500000000000000000000",
"0000000000000000000$$==*@oo@==>@o...O$$<:**>00000000000000000000",
"0000000000000000000@@=::$@oo>=1::000. O@@66000000000000000000000",
"0000000000000000000@@$=:@$Ooo=::=o0000OO@@>000000000000000000000",
"00000000000000000000@$*=@@$@oO:=oo000000000000000000000000000000",
"000000000000000000000@$@O@$$@oOooo000000000000000000000000000000",
"0000000000000000000000@@OO@$*@ooo0000000000000000000000000000000",
"00000000000000000000000@OO@$*=>000000000000000000000000000000000",
"00000000000000000000000*@OO@*=>300000000000000000000000000000000",
"000000000000000000000000$OO@**:100000000000000000000000000000000",
"0000000000000000000000000@OO@*=>30000000000000000000000000000000",
"0000000000000000000000000$OoO$*:<0000000000000000000000000000000",
"00000000000000000000000000OoO@*=>3000000000000000000000000000000",
"00000000000000000000000000@ooO$&:<000000000000000000000000000000",
"00000000000000000000000000$oXO@:=>000000000000000000000000000000",
"0000000000000000000000000$@ooo@3<=000000000000000000000000000000",
"00000000000000000000000@OoO$@oO:30000000000000000000000000000000",
"0000000000000000000000OOO@::=OO=:0000000000000000000000000000000",
"000000000000000000000OOo@:;=@O$*00000000000000000000000000000000",
"00000000000000000000@OoO==&@O@*000000000000000000000000000000000",
"0000000000000000000@OO.@*&@O@@0000000000000000000000000000000000",
"00000000000000000$$@O..@@@O@$00000000000000000000000000000000000",
"00000000000000000$$@o..@OOO@000000000000000000000000000000000000",
"00000000000000000@@@o..@OO@$000000000000000000000000000000000000",
"0000000000000000000@OO+@@$$0000000000000000000000000000000000000",
"000000000000000000000OO@@*$0000000000000000000000000000000000000",
"0000000000000000000000$Oo$=>=00$:0000000000000000000000000000000",
"0000000000000000000000$Oo@=>>::=$:000000000000000000000000000000",
"0000000000000000000000$@Oo$=***::*000000000000000000000000000000",
"00000000000000000000000OOOOOOOOo$q000000000000000000000000000000"
};
