/* XPM */
static char *_566404484604[] = {
/* columns rows colors chars-per-pixel */
"64 64 32 1 ",
"  c #1c1c1c",
". c #1D1D1D",
"X c #232323",
"o c #242424",
"O c #2b2b2b",
"+ c #2C2C2C",
"@ c #323232",
"# c #343434",
"$ c #393939",
"% c #3A3A3A",
"& c #414141",
"* c #424242",
"= c #494949",
"- c #4a4a4a",
"; c #515151",
": c #525252",
"> c #585858",
", c #5c5c5c",
"< c #5D5D5D",
"1 c #5F5F5F",
"2 c #636363",
"3 c #646464",
"4 c #6A6A6A",
"5 c #6b6b6b",
"6 c #717171",
"7 c #787878",
"8 c #7B7B7B",
"9 c #7C7C7C",
"0 c #ffff",
"q c #bfbfbf",
"w c LightGray",
"e c #DFDFDF",
/* pixels */
"0000000000000000000000000000000000000000000000000000000000000000",
"0000000000000000000000000000000000000000000000000000000000000000",
"0000000000000000000000000000000000000000000000000000000000000000",
"0000000000000000000000000000000000000000000000000000000000000000",
"0000000000000000000000000000000000000000000000000000000000000000",
"0000000000000000000000000000000000000000000000000000000000000000",
"0000000000000000000000000000000000000000000000000000000000000000",
"0000000000000000000000000000000000000000000000000000000000000000",
"0000000000000000000000000000000000000000000000000000000000000000",
"0000000000000000000000000000000000000000000000000000000000000000",
"0000000000000000000000000000000000000000000000000000000000000000",
"00000000000000000000;>>;$000000000000000000000000000000000000000",
"000000000000000000;56441&$00000000000000000000000000000000000000",
"00000000000000000>552>>>;&%0000000000000000000000000000000000000",
"0000000000000000>3962;::::*$000000000000000000000000000000000000",
"0000000000000000,@&74=====**$=0000000000000000000000000000000000",
"0000000000000000O1&2;&&&&&&*1>1=00000000000000000000000000000000",
"0000000000000000042=$&$$%$%$&1>9;>000000000000000000000000000000",
"00000000000000000ewoo-+&$&&&:5661,=$0000000000000000000000000000",
"000000000000000000##o2#;&&&455551>;>0000000000000000000000000000",
"0000000000000000000#o;$;=;333333>;:1>000000000000000000000000000",
"0000000000000000000wo==;0>,;>>>>;;=3,>00000000000000000000000000",
"000000000000000000eo$=;00>>=&======34,&0000000000000000000000000",
"0000000000000000000&&&000;;=&&;;=&=>56&&000000000000000000000000",
"0000000000000000000000000;==$@++@=>134&@@00000000000000000000000",
"0000000000000000000000000=**$+oooo*;1>=&&$0000000000000000000000",
"0000000000000000000000000*%$+++@#+o&;>=&$$@000000000000000000000",
"00000000000000000000000000&%@$&=;:+o&==&$1#000000000000000000000",
"0000000000000000000000000000=>>>=&$+o#&=$=@000000000000000000000",
"00000000000000000000000000000;>:$$$++@==$@#000000000000000000000",
"000000000000000000000000000000=$@$#+$=&&++#000000000000000000000",
"0000000000000000000000000000000&&#+$;=&#+$0000000000000000000000",
"00000000000000000000000000000;;@@+#;1&$@++;000000000000000000000",
"000000000000000000000005100>;=&@++=>;$++o#&&00000000000000000000",
"00000000000000000000495;,=;=&%+oo@:>&+Oo#$&&00000000000000000000",
"00000000000000000000>&&;,$$+.. o@>-=@oo@*==$$0000000000000000000",
"00000000000000000000044#@+  000;;1-;oo@$;;=##0000000000000000000",
"000000000000000000000>@#++0000o=;;=oo+$@;=$#@0000000000000000000",
"000000000000000000000000000000oo=;+o#$#@=&$#00000000000000000000",
"000000000000000000000000000000ooo+o@$$#+#$@000000000000000000000",
"0000000000000000000000000000000ooo@&$#+O@@0000000000000000000000",
"000000000000000000000000000000000>=*$@++@00000000000000000000000",
"000000000000000000000000000000003>=*@++#&00000000000000000000000",
"000000000000000000000000000000001:&*@++$000000000000000000000000",
"00000000000000000000000000000003>=&@++@0000000000000000000000000",
"0000000000000000000000000000000,;&$+o+$0000000000000000000000000",
"0000000000000000000000000000003>=&@+o+00000000000000000000000000",
"000000000000000000000000000000,;&$+oo@00000000000000000000000000",
"000000000000000000000000000000>=;@+oo$00000000000000000000000000",
"000000000000000000000000000000=,3@ooo@$0000000000000000000000000",
"00000000000000000000000000000003;+o@$+o+#00000000000000000000000",
"0000000000000000000000000000000;=+O=;;@+++0000000000000000000000",
"00000000000000000000000000000000&$O@=;;#oOO000000000000000000000",
"000000000000000000000000000000000&@+#&==+XO@00000000000000000000",
"0000000000000000000000000000000000@#+@&*@ OO@0000000000000000000",
"00000000000000000000000000000000000%@+@#@  O#$$00000000000000000",
"000000000000000000000000000000000000@+++#..o@%$00000000000000000",
"000000000000000000000000000000000000$#O+@ .o###00000000000000000",
"0000000000000000000000000000000000000$$@@+++@0000000000000000000",
"0000000000000000000000000000000000000$&@@OO000000000000000000000",
"0000000000000000000000000000000:$00=:=$o+$0000000000000000000000",
"000000000000000000000000000000:%=:;>>=#o+$0000000000000000000000",
"000000000000000000000000000000&;;*&&=$o+@%0000000000000000000000",
"000000000000000000000000000000q$o+OOO++++00000000000000000000000"
};
