/* XPM */
static char * Life_bar_xpm[] = {
"221 31 5 1",
" 	c None",
".	c #12E7E7",
"+	c #51F0F0",
"@	c #0FB6B6",
"#	c #FFFFFF",
"    .............................                                                                                                                                                                                            ",
"   ..+++++++++++++++++++++++++++..                                                                                                                                                                                           ",
"  ..+++++++++++++++++++++......++..                                                                                                                                                                                          ",
" ..++.................++..@@@@@.++..                                                                                                                                                                                         ",
"..++..+++++++++++++++....@     @.++..                                                                                                                                                                                        ",
".++..+++++++++++++++++..@       @.++......................................................................................................................................................................................   ",
".+..+++++++++++++++++++.@        @.++++++++++++++++++++++++++++++++++++++++++++++++++++++++++++++++++++++++++++++++++++++++++++++++++++++++++++++++++++++++++++++++++++++++++++++++++++++++++++++++++++++++++++++++++++++..  ",
".+.++++++++++++++++++++.@         @.....................................................................................................................................................................................++.. ",
".+.+++++++######+++++++.@          @@@@@@@@@@@@@@@@@@@@@@@@@@@@@@@@@@@@@@@@@@@@@@@@@@@@@@@@@@@@@@@@@@@@@@@@@@@@@@@@@@@@@@@@@@@@@@@@@@@@@@@@@@@@@@@@@@@@@@@@@@@@@@@@@@@@@@@@@@@@@@@@@@@@@@@@@@@@@@@@@@@@@@@@@@@@@@@@@@@@..++..",
".+.+++++++######+++++++.@                                                                                                                                                                                              @..++.",
".+.+++++++######+++++++.@                                                                                                                                                                                               @..+.",
".+.+++++++######+++++++.@                                                                                                                                                                                                @.+.",
".+.+++##############+++.@                                                                                                                                                                                                @.+.",
".+.+++##############+++.@                                                                                                                                                                                                @.+.",
".+.+++##############+++.@                                                                                                                                                                                                @.+.",
".+.+++##############+++.@                                                                                                                                                                                                @.+.",
".+.+++##############+++.@                                                                                                                                                                                                @.+.",
".+.+++##############+++.@                                                                                                                                                                                                @.+.",
".+.+++++++######+++++++.@                                                                                                                                                                                                @.+.",
".+.+++++++######+++++++.@                                                                                                                                                                                                @.+.",
".+.+++++++######+++++++.@                                                                                                                                                                                               @..+.",
".+.+++++++######+++++++.@                                                                                                                                                                                              @..++.",
".+.++++++++++++++++++++.@        @@@@@@@@@@@@@@@@@@@@@@@@@@@@@@@@@@@@@@@@@@@@@@@@@@@@@@@@@@@@@@@@@@@@@@@@@@@@@@@@@@@@@@@@@@@@@@@@@@@@@@@@@@@@@@@@@@@@@@@@@@@@@@@@@@@@@@@@@@@@@@@@@@@@@@@@@@@@@@@@@@@@@@@@@@@@@@@@@@@@@@..++..",
".+..+++++++++++++++++++.@       @.......................................................................................................................................................................................++.. ",
".++..+++++++++++++++++...@     @..+++++++++++++++++++++++++++++++++++++++++++++++++++++++++++++++++++++++++++++++++++++++++++++++++++++++++++++++++++++++++++++++++++++++++++++++++++++++++++++++++++++++++++++++++++++++..  ",
"..++..+++++++++++++++.....@@@@@..++.......................................................................................................................................................................................   ",
"@..++..................++.......++..@                                                                                                                                                                                        ",
" @..+++++++++++++++++++++++++++++..@                                                                                                                                                                                         ",
"  @...............................@                                                                                                                                                                                          ",
"   @.............................@                                                                                                                                                                                           ",
"    @@@@@@@@@@@@@@@@@@@@@@@@@@@@@                                                                                                                                                                                            "};
