/* XPM */
static char *_56dd01847dd41fba9ffd15115455c22[] = {
/* columns rows colors chars-per-pixel */
"64 64 96 2 ",
"   c #000000",
".  c #0C0905",
"X  c #0A0A0B",
"o  c #130F08",
"O  c #15110B",
"+  c #19130A",
"@  c #0F0F10",
"#  c #151515",
"$  c #1B1B1B",
"%  c #2B1F0F",
"&  c #2D2310",
"*  c #2B261D",
"=  c #342612",
"-  c #362912",
";  c #3B2C15",
":  c #3F2718",
">  c #312A1C",
",  c #3B2E1B",
"<  c #232323",
"1  c #2B2B2B",
"2  c #333333",
"3  c #393939",
"4  c #413117",
"5  c #443319",
"6  c #493619",
"7  c #4C391A",
"8  c #51361B",
"9  c #543C1C",
"0  c #593E1E",
"q  c #433423",
"w  c #40382C",
"e  c #5C401F",
"r  c #5D4020",
"t  c #4C4832",
"y  c #585732",
"u  c #5E5C32",
"i  c #624322",
"p  c #694624",
"a  c #6D4825",
"s  c #6B4229",
"d  c #6E4B2E",
"f  c #714B27",
"g  c #754C28",
"h  c #7A4E2A",
"j  c #7E512C",
"k  c #6A6832",
"l  c #424242",
"z  c #4B4B4B",
"x  c #535353",
"c  c #5C5C5C",
"v  c #67635D",
"b  c #636363",
"n  c #696969",
"m  c #717171",
"M  c #7B7B7B",
"N  c #83542E",
"B  c #855630",
"V  c #885731",
"C  c #8D5933",
"Z  c #935D35",
"A  c #995F37",
"S  c #9C6239",
"D  c #A4663D",
"F  c #A3683D",
"G  c #A86A3F",
"H  c #80634F",
"J  c #A76740",
"K  c #A76840",
"L  c #AB6A40",
"P  c #B26F43",
"I  c #B47044",
"U  c #B97346",
"Y  c #BD7548",
"T  c #BD7B54",
"R  c #C07749",
"E  c #C3794A",
"W  c #CC7E4E",
"Q  c #CF804F",
"!  c #C2845D",
"~  c #D48451",
"^  c #DA8653",
"/  c #DD8854",
"(  c #E38C57",
")  c #E28E5A",
"_  c #ED915A",
"`  c #F3965D",
"'  c #F7985E",
"]  c #C28760",
"[  c #FC9C60",
"{  c #858585",
"}  c #8f8f8f",
"|  c #9D9D9D",
" . c #a3a3a3",
".. c #B7B7B7",
"X. c #F9AF83",
"o. c #FCB68C",
/* pixels */
"                                                                                                                                ",
"                                                                                                                                ",
"                                                                                                                                ",
"                                                                                                                                ",
"                                                                                                                                ",
"                                                                                                                                ",
"                                                                                                                                ",
"                                                                                                                                ",
"                                                                                                                                ",
"                                                                                                                                ",
"                                                                                                                                ",
"                                                                                                                                ",
"                                                                                                                                ",
"                                                                                                                                ",
"                                                                                                                                ",
"                                                                                                                                ",
"                                                    m  . .M M b 2 X                                                             ",
"                                                  b ..{ m b c x z l X                                                           ",
"                                                  } { n x x z l 3 3 1                                                           ",
"                                                  b n c 1 z z 3 3 3 1                                                           ",
"                                                z { c 3 @ l z l 3 2 *                                                           ",
"                                                $ z n x x z l l 3 2 <                                                           ",
"                                                    v { { m n n v c x $ .                                                       ",
"                                                    ] H y k u y t 3 $ #                                                         ",
"                                                    o.! B h h h f f                                                             ",
"                                                    T d ! ~ G C h g                                                             ",
"                                                      l 1 1 1 < o < <                                                           ",
"                                                    : { 1 1 < # < < < o                                                         ",
"                                                  Y ` / Q I D N r = < + =                                                       ",
"                                                K ` ~ W Q ~ E G h r < % 7 s                                                     ",
"                                              Y / I V h C N L D f 6 < % 9 p                                                     ",
"                                              [ ( I a a K U G S p + X 7 7 9                                                     ",
"                                              [ / ^ V 9 g Z S N = < & 5 6 9                                                     ",
"                                              ' / ~ S 7 f C B 9 X O 8 7 ; 7                                                     ",
"                                              D / E N 9 g g a # < ; 9 9 > 6                                                     ",
"                                                Q C N i a a + < ; 9 9 9 > 7                                                     ",
"                                              s j p h r e O < - a 9 7 ; e 9                                                     ",
"                                                W B a 5 O < < < < < < < 9 9                                                     ",
"                                              J I S i , < < < < < < < < e 9                                                     ",
"                                              ~ F K 9 5 e r e p r r i p e 8                                                     ",
"                                              E S C 5 6 r f g g g 9 d g a                                                       ",
"                                              S a i 4 9 a a f g g 9 a g h                                                       ",
"                                              X.I C e 7 a a a a g 6 g g f                                                       ",
"                                              ` ) G 7 e p a a i 9 = p g h                                                       ",
"                                              K ^ S e e 6 6 4 ; ; ; 6 9 9                                                       ",
"                                                ^ F a f j j a 4 ; 9 e i r                                                       ",
"                                                  N a V S i p , = r r f a                                                       ",
"                                                  ) L S S a i 6 ; 7 r d a                                                       ",
"                                                  ' U Z L p r 6 ; 9 0 f a                                                       ",
"                                                  _ / R P N h a 4 0 i N f                                                       ",
"                                                  ` ' W ) N r 6 7 a h j 9                                                       ",
"                                                  [ ` / K N 0 , 0 9 0 a <                                                       ",
"                                                  [ ` ` _ ~ Z 5 q N h h 9                                                       ",
"                                                  K ( ( W P B 4 > i p f a                                                       ",
"                                                    E U D V i , < 6 0 p a                                                       ",
"                                                    < < $ < < < < < < < +                                                       ",
"                                                    1 1 < < < @ < < < $                                                         ",
"                                                    < 2 $ < < < X < < $                                                         ",
"                                                    < 2 1 < < # < < X #                                                         ",
"                                                    # < 1 @ # X . < #                                                           ",
"                                                    @ $ $ X $ < < < #                                                           ",
"                                                  < 3 2 1 < < # < < @ #                                                         ",
"                                              $ 3 3 3 2 1 < < $ < < < $                                                         ",
"                                            # < 1 1 1 < < < < < X < < <                                                         "
};
