/* XPM */
static char *_e5fc879222e4649fb37b3758cf014e3[] = {
/* columns rows colors chars-per-pixel */
"64 65 92 1 ",
"  c #000000",
". c #090603",
"X c #0E0905",
"o c #0B0B0C",
"O c #120B07",
"+ c #151008",
"@ c #1A130A",
"# c #131313",
"$ c #1C1C1C",
"% c #251B0E",
"& c #2C251C",
"* c #312410",
"= c #3B2416",
"- c #362813",
"; c #3C2B15",
": c #3F3018",
"> c #222222",
", c #2B2B2B",
"< c #3B2D22",
"1 c #333333",
"2 c #393939",
"3 c #432C17",
"4 c #463517",
"5 c #423218",
"6 c #4A351A",
"7 c #4A3919",
"8 c #51371B",
"9 c #543C1C",
"0 c #593E1F",
"q c #5A3C20",
"w c #533F32",
"e c #67491E",
"r c #6D4E1E",
"t c #73541E",
"y c #5D4020",
"u c #594435",
"i c #644423",
"p c #694724",
"a c #6D4824",
"s c #6C472E",
"d c #714B27",
"f c #744C28",
"g c #7D4F2B",
"h c #7E512C",
"j c #694C3B",
"k c #795239",
"l c #434343",
"z c #4C4C4C",
"x c #535353",
"c c #5C5C5C",
"v c #656565",
"b c #6C6C6C",
"n c #717171",
"m c #7D7D7D",
"M c #83542E",
"N c #865630",
"B c #885730",
"V c #8C5932",
"C c #945E36",
"Z c #996139",
"A c #A4663E",
"S c #A5693E",
"D c #AA6A3F",
"F c #916042",
"G c #AA6A40",
"H c #B26F43",
"J c #B57245",
"K c #B97346",
"L c #C07748",
"P c #C47B4B",
"I c #CD7F4E",
"U c #CB8658",
"Y c #D58351",
"T c #DA8653",
"R c #DC8854",
"E c #F09140",
"W c #E58A57",
"Q c #E78E58",
"! c #EA8E59",
"~ c #EB915A",
"^ c #F4975D",
"/ c #F99A5F",
"( c #D89A73",
") c #E0986A",
"_ c #FC9C60",
"` c #FCAA79",
"' c #818181",
"] c #8B8B8B",
"[ c #979797",
"{ c #9A9A9A",
"} c #F8AE82",
"| c #FCB890",
/* pixels */
"                                                                ",
"                                                                ",
"                                                                ",
"                                                                ",
"                                                                ",
"                                                                ",
"                                                                ",
"                                                                ",
"                                                                ",
"                                                                ",
"                                                                ",
"                                                                ",
"                                                                ",
"                                                                ",
"                                                                ",
"                                                                ",
"                               1xmm'l                           ",
"                              lxvbnm[]o                         ",
"                            .llzzzxcm['                         ",
"                             11lzzzxbmc                         ",
"                             ,12zzzxcv'o                        ",
"                             >>,1111lmv#                        ",
"                            >2zxccnn{]                          ",
"                            $1zvbbnnnG                          ",
"                             .iirrfe(|                          ",
"                             .ffZJT)U`                          ",
"                             ><<uuj,%.                          ",
"                             >>o$>,,[                           ",
"                           %-633qsk>FSX                         ",
"                          q96gafGB>3Y/_O                        ",
"                         Xa7ggffV.@KSJRYO                       ",
"                         .9yigfq>>dCidK__                       ",
"                         .979gf&>sSf9MTR_                       ",
"                         .9;9s;.%CZd5BRR_                       ",
"                         .4&94>>aNff5GRR~                       ",
"                         .7>6>>6ffif6aYRO                       ",
"                         .94@.;ffy4qfMhKX                       ",
"                         .97>>-6---59dpZO                       ",
"                         .94>>>>>>>>7MVR.                       ",
"                         .0q@@@@@@@+59ZGR                       ",
"                          9fffyiiisy:9GGY                       ",
"                          .ffpyfffay4:NZU                       ",
"                          .ffayffaaa95ppU                       ",
"                          .dff4faaaa9yZQ}                       ",
"                          .Mh:*4ppiq99K~~                       ",
"                          .5555;:4yi0aKP@                       ",
"                          .yfq0*:NdaaaJJ                        ",
"                          .ady0*5ayJZMB                         ",
"                          .ah99*7yfCDH!                         ",
"                          .ah99*7qaHgJ/                         ",
"                          .Mhy9*:9fHJP!                         ",
"                           ayyp*4aZTE/!                         ",
"                           .q7y5:7MR_!_                         ",
"                          .agMi>5Y^_//_                         ",
"                          .af90>5VGKWY=                         ",
"                          .ay9&>3iVHKP                          ",
"                           #>..>>>>$>,                          ",
"                           .#>..$>>$1,                          ",
"                            $...>>>>2$                          ",
"                            $.>.$>>1,>                          ",
"                            .#>.>#$,$#                          ",
"                            .o.>>#o$>                           ",
"                            $>>>>>>112>                         ",
"                            o.>>>>.11221#                       ",
"                            >>>>>>>>>,,1>#                      "
};
