/* XPM */
static char *a3e786aeb6be4bf1c8b7fa2fdc60bb66[] = {
/* columns rows colors chars-per-pixel */
"64 64 98 2 ",
"   c #000000",
".  c #0F0C07",
"X  c #0B0B0B",
"o  c #14110C",
"O  c #141414",
"+  c #1B1813",
"@  c #1C1C1C",
"#  c #211F1A",
"$  c #2B220D",
"%  c #26231D",
"&  c #2A241B",
"*  c #312411",
"=  c #352913",
"-  c #3C2D15",
";  c #32291A",
":  c #3D2F1A",
">  c #3F3015",
",  c #3E321A",
"<  c #212121",
"1  c #2D2A25",
"2  c #2C2C2C",
"3  c #3C352D",
"4  c #333333",
"5  c #3B3B3B",
"6  c #482E1A",
"7  c #423216",
"8  c #443319",
"9  c #4A361B",
"0  c #4C391A",
"q  c #51361B",
"w  c #533B1D",
"e  c #593F1E",
"r  c #5D3F21",
"t  c #4A3A30",
"y  c #433F39",
"u  c #603E22",
"i  c #5C401F",
"p  c #5E4122",
"a  c #59463A",
"s  c #5D493D",
"d  c #634422",
"f  c #6A4725",
"g  c #6D4825",
"h  c #6F4629",
"j  c #6D492C",
"k  c #714B27",
"l  c #744C29",
"z  c #7B4E2B",
"x  c #7D512C",
"c  c #7E4E30",
"v  c #434343",
"b  c #494949",
"n  c #545454",
"m  c #5B5B5B",
"M  c #745742",
"N  c #636363",
"B  c #6C6C6C",
"V  c #747474",
"C  c #7C7C7C",
"Z  c #82532D",
"A  c #865531",
"S  c #895632",
"D  c #8C5933",
"F  c #935C35",
"G  c #995F37",
"H  c #955C39",
"J  c #9D6239",
"K  c #A3653D",
"L  c #A4683D",
"P  c #A96A3F",
"I  c #AA6940",
"U  c #B16E43",
"Y  c #B57245",
"T  c #BA7447",
"R  c #B77549",
"E  c #BE7648",
"W  c #BC7848",
"Q  c #C07749",
"!  c #C47A4B",
"~  c #CB7E4E",
"^  c #CE804F",
"/  c #D38251",
"(  c #D98653",
")  c #DE8955",
"_  c #DD8A58",
"`  c #E28B56",
"'  c #E68E59",
"]  c #E98E59",
"[  c #EB905A",
"{  c #F0945C",
"}  c #E49261",
"|  c #F59A63",
" . c #F39D6A",
".. c #F7A16E",
"X. c #F9A06B",
"o. c #FCA672",
"O. c #F9A97A",
"+. c #828282",
/* pixels */
"                                                                                                                                ",
"                                                                                                                                ",
"                                                                                                                                ",
"                                                                                                                                ",
"                                                                                                                                ",
"                                                                                                                                ",
"                                                                                                                                ",
"                                                                                                                                ",
"                                                                                                                                ",
"                                                                                                                                ",
"                                                                                                                                ",
"                                                                                                                                ",
"                                                                                                                                ",
"                                                                                                                                ",
"                                                                                                                                ",
"                                                                                                                                ",
"                                                            4 B +.C N <                                                         ",
"                                                          v C B B m m 5 +                                                       ",
"                                                        @ B B N n b b v 2 O                                                     ",
"                                                        5 V N m b b b 5 4 O                                                     ",
"                                                        2 N N n b b v 4 2 O                                                     ",
"                                                        4 n n v v 4 4 2 4 O                                                     ",
"                                                      O N B N m n b v 5 4 < X                                                   ",
"                                                        v +.+.C B m m n 5 X                                                     ",
"                                                          Z I J D l d 9 =                                                       ",
"                                                          x I / / R x 9 . X                                                     ",
"                                                        a v 4 2 1 < O X @ 1 X                                                   ",
"                                                    F ~ Q M t 2 2 O X o * # 2 *                                                 ",
"                                                S '  .o.X. .{ ' T ` ` ~ s b n ! S                                               ",
"                                              c / R / | ] { { [ J / ~ / b v t ! T r                                             ",
"                                              E  .D I E T ) { _ F T ~ s 4 1 D f F P -                                           ",
"                                            z _ { A k Y / Q ~ Y F F t < & h L q h I 6                                           ",
"                                            I ` ' A k D H I U K x & @ o k L k - g I h                                           ",
"                                            W ) ( j 0 d A K D p + X X u J Z 8 9 h L K                                           ",
"                                            ) / ! f % 0 k z 9 X @ O d G D i - d g K I                                           ",
"                                            ) ` W l ; , > % < X + r z Z d 7 $ q f K I                                           ",
"                                            ^ J Z w % @ < < < ; 9 f j r 7 $ $ p D I I                                           ",
"                                            ^ T K w 2 5 5 5 5 2 2 2 < < O @ @ p k I E                                           ",
"                                            / ! F i 4 v n b a 5 5 4 2 @ X @ @ > d D W                                           ",
"                                            / Y x p q A A A l l 0 p p p w : % e Z D Y                                           ",
"                                            ~ I x e D ! ~ ~ W Y f I I I J l 0 - i x L                                           ",
"                                            q l d 8 P ` ( ~ ! W p I I I K x 0 * 0 d l                                           ",
"                                              J g 8 I [ ] ( / ^ j K K I J x i * h F                                             ",
"                                              Q D i I ] ) ` ' T p D U I D x 0 * S E                                             ",
"                                              G I z p k g d 0 - $ * 8 7 > > > * G D                                             ",
"                                                D J U T Y P D i * = i k g d i 8 S                                               ",
"                                                  K T ~ T Y S i $ , j J W K k 9                                                 ",
"                                                  K ( | ~ P D i = 8 S Y / Y D g                                                 ",
"                                                  K ` { Y J Z d > 9 F W / W F f                                                 ",
"                                                  I ( } W P z w , p J ! ) W J g                                                 ",
"                                                  '  .O.[ / z w - p J ! [ W G f                                                 ",
"                                                  o...( Y Z d 0 - 9 J W K L D g                                                 ",
"                                                  _ ] | | Q d 7 $ e x J W J x f                                                 ",
"                                                  A ! Y J z w : & g J D x l D 0                                                 ",
"                                                    G D g i 9 1 < , i e 9 9 w                                                   ",
"                                                    @ < @ X X @   @ @ X @ X @                                                   ",
"                                                    @ @ @ @   @   @ O @ @ X <                                                   ",
"                                                    O < X @   O   @ O @ @ @ @                                                   ",
"                                                      2 X @   @   O O @ @ @                                                     ",
"                                                      2 X X         + @ @ @ X                                                   ",
"                                                    2 < @ @         @ @ @ X 2                                                   ",
"                                                  < 2 + < @   O   O X @ @ @ O <                                                 ",
"                                                  @ < @ < @   O   @ @ X @ @ @ <                                                 ",
"                                                  X @ @ < @   @ @ @ @ @ @ @ @ X                                                 "
};
