/* XPM */
static char *_b9f3cf45d694700a74653248f7abe6b[] = {
/* columns rows colors chars-per-pixel */
"64 64 112 2 ",
"   c #000000",
".  c #0C0A05",
"X  c #0D0D0D",
"o  c #18110A",
"O  c #141414",
"+  c #1D1D1D",
"@  c #21190D",
"#  c #2D1C11",
"$  c #2A210F",
"%  c #2D2210",
"&  c #2E261A",
"*  c #322513",
"=  c #3B2715",
"-  c #3A2D15",
";  c #3C2D19",
":  c #232323",
">  c #2C2C2C",
",  c #3F2C20",
"<  c #3D3224",
"1  c #343434",
"2  c #3A3A3A",
"3  c #423218",
"4  c #493719",
"5  c #4E391B",
"6  c #523B1C",
"7  c #593E1E",
"8  c #5B3B22",
"9  c #563E2C",
"0  c #434103",
"q  c #4C4A00",
"w  c #564C0C",
"e  c #4E4112",
"r  c #534314",
"t  c #5A401F",
"y  c #5D4120",
"u  c #5D4228",
"i  c #464636",
"p  c #634422",
"a  c #694724",
"s  c #6B4825",
"d  c #66432A",
"f  c #714A27",
"g  c #734B29",
"h  c #7B4E2C",
"j  c #7E522D",
"k  c #774E30",
"l  c #7A5036",
"z  c #444444",
"x  c #4C4C4C",
"c  c #545454",
"v  c #565851",
"b  c #5C5C5C",
"n  c #6E5441",
"m  c #656565",
"M  c #686868",
"N  c #727272",
"B  c #7E7E7E",
"V  c #83542F",
"C  c #875730",
"Z  c #895731",
"A  c #8B5932",
"S  c #935D35",
"D  c #985F37",
"F  c #965D39",
"G  c #8C6A20",
"H  c #976037",
"J  c #9A6138",
"K  c #A3663D",
"L  c #A7693E",
"P  c #A9693F",
"I  c #A76C43",
"U  c #AB6B40",
"Y  c #B06E42",
"T  c #A9734B",
"R  c #B47144",
"E  c #BB7447",
"W  c #B2724C",
"Q  c #BE7648",
"!  c #BE7949",
"~  c #C07749",
"^  c #C37A4B",
"/  c #CB7E4D",
"(  c #C68053",
")  c #D38351",
"_  c #DB8654",
"`  c #DC8854",
"'  c #D58959",
"]  c #DF8D5B",
"[  c #E38C57",
"{  c #E28D5A",
"}  c #E88C58",
"|  c #E4925F",
" . c #EB915A",
".. c #DF9161",
"X. c #E59463",
"o. c #EB9662",
"O. c #EC9966",
"+. c #E69868",
"@. c #EB9B6A",
"#. c #F69C66",
"$. c #F69E6A",
"%. c #F6A16E",
"&. c #FCA470",
"*. c #F9A977",
"=. c #F4A779",
"-. c #FCAA78",
";. c #858585",
":. c #8C8C8C",
">. c #949494",
",. c #a3a3a3",
"<. c #adadad",
"1. c #FCB080",
/* pixels */
"                                                                                                                                ",
"                                                                                                                                ",
"                                                                                                                                ",
"                                                                                                                                ",
"                                                                                                                                ",
"                                                                                                                                ",
"                                                                                                                                ",
"                                                                                                                                ",
"                                                                                                                                ",
"                                                                                                                                ",
"                                                                                                                                ",
"                                                                                                                                ",
"                                                                                                                                ",
"                                                                                                                                ",
"                                                                                                                                ",
"                                                                                                                                ",
"                                                            m :.>.>.N m 1                                                       ",
"                                                          b <.;.M b b c z O                                                     ",
"                                                          :.:.m b c c c x > .                                                   ",
"                                                        O N B m c c + 2 x 1 X                                                   ",
"                                                        x >.:.B b . X x 2 > X                                                   ",
"                                                          % r e 0 i c x x 2 &                                                   ",
"                                                            I v G w l c i z 2 +                                                 ",
"                                                          9 T =.( k y 0 - - +                                                   ",
"                                                            U X.P s j S a ; +                                                   ",
"                                                            X.$.H t A C t - +                                                   ",
"                                                            3 d % t * . + . +                                                   ",
"                                                            + + + + + + + + +                                                   ",
"                                                            X x b . 8 g j y o o                                                 ",
"                                                              ,.: h ` } U g t 4                                                 ",
"                                                          : l o W ` / S g p p 5                                                 ",
"                                                          > E [ E P ) K J g 6 7                                                 ",
"                                                          > d f C C K ~ U V p 6                                                 ",
"                                                          d > V F f ) ^ P S 7 *                                                 ",
"                                                            > u a 7 _ ) Y J 5                                                   ",
"                                                            l > < 8 / ~ ~ V 6                                                   ",
"                                                            g ; > = V L P f 5                                                   ",
"                                                              B + V U ) J a                                                     ",
"                                                              c + Q ` Q Z g                                                     ",
"                                                            W { ] / ) L j t 5 *                                                 ",
"                                                            o.` / Q E A h - 6 3                                                 ",
"                                                            $.| -.Y f a 6 ; 6 4                                                 ",
"                                                            ` -.{ &./ I 3 4 7 3                                                 ",
"                                                            ` ( ] X.) S 3 5 4 -                                                 ",
"                                                            H / K Q A - & % @ @                                                 ",
"                                                            # / U y - 4 6 8 -                                                   ",
"                                                              %.' U J A y y -                                                   ",
"                                                              -.O.` / A s p -                                                   ",
"                                                              %.@.) P s S 6 $                                                   ",
"                                                              %.@.! R J V 3                                                     ",
"                                                              %.+.) / C y 3                                                     ",
"                                                              #.@./ ^ S 6 %                                                     ",
"                                                               .I ! Y R R 5 $                                                   ",
"                                                              F ~ _ E U D y ;                                                   ",
"                                                                A A j s t 4 %                                                   ",
"                                                                > : + : : +                                                     ",
"                                                                > > + + O +                                                     ",
"                                                                > 2 > + + +                                                     ",
"                                                                2 1 : + + +                                                     ",
"                                                                  1 + X O +                                                     ",
"                                                                : > : O + +                                                     ",
"                                                            : 1 1 > + + O +                                                     ",
"                                                        : 1 1 1 > : : + + . +                                                   ",
"                                                        + + + + O + + + + + +                                                   "
};
