/* XPM */
static char *_e57dfb268ba4168947de080cca7821b[] = {
/* columns rows colors chars-per-pixel */
"64 64 115 2 ",
"   c #000000",
".  c #0C0A05",
"X  c #d0d0d",
"o  c #110D08",
"O  c #0F0F10",
"+  c #151515",
"@  c #1D1D1D",
"#  c #22160C",
"$  c #21190D",
"%  c #28190F",
"&  c #2D1C11",
"*  c #2A210F",
"=  c #2D2210",
"-  c #2D251B",
";  c #312413",
":  c #3B2715",
">  c #3A2D15",
",  c #33261C",
"<  c #36291A",
"1  c #232323",
"2  c #2D2D2D",
"3  c #3F2C20",
"4  c #343434",
"5  c #393939",
"6  c #402A17",
"7  c #423218",
"8  c #493719",
"9  c #4E391A",
"0  c #533B1C",
"q  c #583E1E",
"w  c #573621",
"e  c #503820",
"r  c #5E3C23",
"t  c #563E2C",
"y  c #5F3F2A",
"u  c #434103",
"i  c #4C4A00",
"p  c #564C0C",
"a  c #4E4112",
"s  c #534314",
"d  c #5B401F",
"f  c #5E4120",
"g  c #454535",
"h  c #634422",
"j  c #694724",
"k  c #6B4925",
"l  c #674028",
"z  c #714A26",
"x  c #744C28",
"c  c #794F2A",
"v  c #7E522C",
"b  c #674A36",
"n  c #434343",
"m  c #4B4B4B",
"M  c #545454",
"N  c #565851",
"B  c #5B5B5B",
"V  c #6E5441",
"C  c #666666",
"Z  c #696969",
"A  c #707070",
"S  c #7D7D7D",
"D  c #84542F",
"F  c #855733",
"G  c #885531",
"H  c #875832",
"J  c #8B5932",
"K  c #925C35",
"L  c #965D39",
"P  c #8C6A20",
"I  c #976037",
"U  c #956038",
"Y  c #9B6239",
"T  c #A3663C",
"R  c #A7693E",
"E  c #A8693F",
"W  c #A76C43",
"Q  c #AC6B41",
"!  c #B06E41",
"~  c #A9734B",
"^  c #B47144",
"/  c #BB7447",
"(  c #B2724C",
")  c #BE7648",
"_  c #BD7848",
"`  c #C07748",
"'  c #C27A4A",
"]  c #CB7D4D",
"[  c #C68053",
"{  c #D48351",
"}  c #D98653",
"|  c #DC8854",
" . c #D58959",
".. c #DF8D5B",
"X. c #E38D59",
"o. c #E4925F",
"O. c #EB915A",
"+. c #DF9161",
"@. c #E59463",
"#. c #EB9662",
"$. c #EC9966",
"%. c #E69868",
"&. c #EB9B6A",
"*. c #F69C66",
"=. c #F69E6A",
"-. c #F6A16E",
";. c #FCA470",
":. c #F9A977",
">. c #F4A779",
",. c #FCAA78",
"<. c #818181",
"1. c #8B8B8B",
"2. c #939393",
"3. c #b5b5b5",
"4. c #FCB080",
/* pixels */
"                                                                                                                                ",
"                                                                                                                                ",
"                                                                                                                                ",
"                                                                                                                                ",
"                                                                                                                                ",
"                                                                                                                                ",
"                                                                                                                                ",
"                                                                                                                                ",
"                                                                                                                                ",
"                                                                                                                                ",
"                                                                                                                                ",
"                                                                                                                                ",
"                                                                                                                                ",
"                                                                                                                                ",
"                                                                                                                                ",
"                                                                                                                                ",
"                                                      1 B <.2.<.M 5                                                             ",
"                                                    1 n M B B Z S 1.n                                                           ",
"                                                  X 2 m M M M B C 1.C                                                           ",
"                                                  + 4 m m M M M C S C +                                                         ",
"                                                  + 2 5 M m A B S 1.2.B                                                         ",
"                                                X 1 5 m m N g u a s %                                                           ",
"                                                1 5 g g M V p P M W                                                             ",
"                                                    > 8 i d D [ >.~ f                                                           ",
"                                                    7 j K c h Q %.!                                                             ",
"                                                    > d K L r U -.+.                                                            ",
"                                                    + + + 6 j ; l 6                                                             ",
"                                                  + O + + + + + +                                                               ",
"                                                . $ d , 2 . + 3.m O                                                             ",
"                                                8 f z K + 2 G @ 3 . +                                                           ",
"                                                9 d h x r 4 y ! + Y #                                                           ",
"                                                w 9 k Y G b 1 R X._ r                                                           ",
"                                                0 d G Q ] L 2 ; k c w                                                           ",
"                                                ; 0 K Q ] ' - + F v y                                                           ",
"                                                  0 L ^ { } 0 + 3 Y                                                             ",
"                                                  0 G ) ` ] q o + T                                                             ",
"                                                  9 x R E D : j + &                                                             ",
"                                                    j U ] Q D . <.                                                              ",
"                                                    x G / | ) + M                                                               ",
"                                                ; 9 q v W { ] X.X.(                                                             ",
"                                                7 9 7 c J / ) ] | #.                                                            ",
"                                                8 0 > 0 j z ! 4.@.=.                                                            ",
"                                                7 q 8 7 E ' ;.X.:.|                                                             ",
"                                                > 8 0 7 Y { @...[ |                                                             ",
"                                                $ $ * - < J _ R ' Y                                                             ",
"                                                  > q 0 8 > d R ] &                                                             ",
"                                                  > d h J I E ..-.                                                              ",
"                                                  > h j K [ | $.,.                                                              ",
"                                                  = e U j T { $.-.                                                              ",
"                                                    7 F T / _ $.-.                                                              ",
"                                                    > h G [ [ %.-.                                                              ",
"                                                    = 0 K ] ] &.*.                                                              ",
"                                                  = 9 ^ ^ ^ _ Q O.                                                              ",
"                                                  > 0 K Q / { ' L                                                               ",
"                                                  = 8 d k G G J                                                                 ",
"                                                    + 1 1 @ 1 2                                                                 ",
"                                                    + @ @ 1 2 2                                                                 ",
"                                                    + @ @ 1 5 2                                                                 ",
"                                                        @ 1 4 5                                                                 ",
"                                                      X + @ 4                                                                   ",
"                                                      + + @ 1 1                                                                 ",
"                                                      + @ 1 2 5 4 1                                                             ",
"                                                      @ @ 1 1 2 2 4 2 1                                                         ",
"                                                      + + + + + @ @ @ 1                                                         "
};
