/* XPM */
static char *_33e7bc51894457ed70608ba719fe1b6[] = {
/* columns rows colors chars-per-pixel */
"64 64 117 2 ",
"   c #000000",
".  c #0C0C0C",
"X  c #130F07",
"o  c #130F08",
"O  c #14120D",
"+  c #1C140C",
"@  c #1F180B",
"#  c #121212",
"$  c #1C1A15",
"%  c #1F131E",
"&  c #1D1D1D",
"*  c #251F10",
"=  c #2D2B01",
"-  c #2A210F",
";  c #30260F",
":  c #242111",
">  c #2D2311",
",  c #322214",
"<  c #382513",
"1  c #352A14",
"2  c #3C2C15",
"3  c #372C1B",
"4  c #3B2D1A",
"5  c #363510",
"6  c #211727",
"7  c #271D2D",
"8  c #222222",
"9  c #2C2C2C",
"0  c #302C26",
"q  c #39322A",
"w  c #323232",
"e  c #3b3b3b",
"r  c #473C0E",
"t  c #443117",
"y  c #433218",
"u  c #4B3619",
"i  c #4B3919",
"p  c #52351E",
"a  c #543B1D",
"s  c #583D1E",
"d  c #423525",
"f  c #573721",
"g  c #5D3E21",
"h  c #603E22",
"j  c #524F00",
"k  c #52480C",
"l  c #49421A",
"z  c #534314",
"x  c #5C441A",
"c  c #5F4120",
"v  c #634322",
"b  c #694625",
"n  c #6C4825",
"m  c #61422B",
"M  c #694528",
"N  c #724A27",
"B  c #704628",
"V  c #744D29",
"C  c #784E2A",
"Z  c #7D512D",
"A  c #444444",
"S  c #4C4C4C",
"D  c #505050",
"F  c #5D5D5D",
"G  c #7F5941",
"H  c #626262",
"J  c #6D6D6D",
"K  c #727272",
"L  c #7A7A7A",
"P  c #80611D",
"I  c #81532E",
"U  c #855530",
"Y  c #895732",
"T  c #875931",
"R  c #8C5A32",
"E  c #935D35",
"W  c #966037",
"Q  c #986137",
"!  c #9C633A",
"~  c #A3663D",
"^  c #A66A3E",
"/  c #A96A3F",
"(  c #916541",
")  c #AD6C41",
"_  c #B16E43",
"`  c #B47144",
"'  c #BA7446",
"]  c #BE7648",
"[  c #BC7848",
"{  c #877B71",
"}  c #C47B4B",
"|  c #CA7C4D",
" . c #BC8968",
".. c #CD804F",
"X. c #D1834F",
"o. c #CC8354",
"O. c #D38351",
"+. c #D98553",
"@. c #DC8854",
"#. c #E38D57",
"$. c #ED945D",
"%. c #F0945C",
"&. c #D88F62",
"*. c #DC9163",
"=. c #D29068",
"-. c #EF9A67",
";. c #F69C66",
":. c #F49E69",
">. c #F9A36F",
",. c #E5A37B",
"<. c #FCAC7C",
"1. c #868686",
"2. c #939393",
"3. c #A4A4A4",
"4. c #BBBBBB",
"5. c #FCAE80",
"6. c #C5C5C5",
/* pixels */
"                                                                                                                                ",
"                                                                                                                                ",
"                                                                                                                                ",
"                                                                                                                                ",
"                                                                                                                                ",
"                                                                                                                                ",
"                                                                                                                                ",
"                                                                                                                                ",
"                                                                                                                                ",
"                                                                                                                                ",
"                                                                                                                                ",
"                                                                                                                                ",
"                                                                                                                                ",
"                                                                                                                                ",
"                                                                                                                                ",
"                                                                                                                                ",
"                                                        . A F K L L S                                                           ",
"                                                      . w A S S F L 1.S                                                         ",
"                                                      # w A S S S F L J                                                         ",
"                                                      8 9 9 e S D J K J &                                                       ",
"                                                    # 9 w w e S H J L 1.H $                                                     ",
"                                                  . 8 e A e e k r k y z 8 #                                                     ",
"                                                  # 8 # : 5 E Z ! H ~ {                                                         ",
"                                                    . 7 = j x ! >.:.( *.                                                        ",
"                                                      7 a Z b R ;.O.) }                                                         ",
"                                                      7 f Y V V | -.=.U                                                         ",
"                                                      7 7 + ) Z C ] o.p                                                         ",
"                                                    X O 7 9 e Y ! C I                                                           ",
"                                                1 I Q Z & e 4.J , T 7 3.f                                                       ",
"                                              1 R | %.#.m 9 O g m [ f  .) n                                                     ",
"                                              s Z +.#.#.I $ 0 ) -.} ] ! V }                                                     ",
"                                            2 s T [ O.` n 2 8 m } ! / ] / ! h                                                   ",
"                                            u b Q ' o.R v b $ q g R R R V ! E                                                   ",
"                                            u n ~ ' ..R i c y & 8 B b E ~ R ~                                                   ",
"                                            u b Q o.| R c > c + 9 2 p ! R R ~                                                   ",
"                                            u n _ X.} x V a 1 f O 9 3 a C ! E                                                   ",
"                                            > v ! ~ Z * i b T T 2 . w d s Z a                                                   ",
"                                            > I _ | @.  & 6 : e 2.6.e w i u                                                     ",
"                                            4 C ! _ E   # # # & J 3.& & f E                                                     ",
"                                            i C ' | @.b v v n E ! Z ~ I c Z                                                     ",
"                                            - n ~ ' @.! a g R ) ] ^ @.R b E +                                                   ",
"                                              i V ) ' c a R R ) [ ^ @._ n ) <                                                   ",
"                                              > b b i V b n ! ) [ ^ @.] N `                                                     ",
"                                                u 2 ( 5.,.a E ' [ ~ @.} v Z                                                     ",
"                                                i ] -.<.5.y b Z Z b R E n E                                                     ",
"                                                i V ~ <.&.E n v s v E ` C n                                                     ",
"                                                y a U ) 5.) [ E v R [ } !                                                       ",
"                                                2 y g ) _ _ @.) u T ) @.!                                                       ",
"                                                y 4 n ` ) _ O.) + E ) +.!                                                       ",
"                                                4 g V ^ ~ ] +.R * ! _ +.!                                                       ",
"                                                , c Z ` ~ | } f * s ] +.I                                                       ",
"                                                2 a b R ~ O.' 1 h R ` O.                                                        ",
"                                                a v E ) ) | ` u t v } X.                                                        ",
"                                                z v R E _ } T i C Q | }                                                         ",
"                                                @ C I R R V i 3 v I E b                                                         ",
"                                                    7 8 6 : 6 7 8 & &                                                           ",
"                                                  # & 8 9 w # 7 & & w                                                           ",
"                                                . & & 8 9 w . 7 & 8 w                                                           ",
"                                                  & 8 w 9 8 7 7 . 8 w                                                           ",
"                                                    & 9 e # 7 . & 8 8                                                           ",
"                                                    8 w w 7 7 . & 9                                                             ",
"                                                  & & w A w 8 8 8 w 8 .                                                         ",
"                                                  8 $ & 8 8 9 6 7 7 . & 8                                                       ",
"                                                  8 & & 8 6 8 7 7 7 7 # & .                                                     "
};
