/* XPM */
static char *_965784bf21746bfd9082f91c8ba703e[] = {
/* columns rows colors chars-per-pixel */
"64 64 120 2 ",
"   c #000000",
".  c #0B0B0C",
"X  c #130F07",
"o  c #130F08",
"O  c #1D130B",
"+  c #1F180B",
"@  c #121212",
"#  c #1F131E",
"$  c #1D1D1D",
"%  c #251B0E",
"&  c #251F10",
"*  c #301F14",
"=  c #2D2B01",
"-  c #2A210F",
";  c #30260F",
":  c #242111",
">  c #2E2110",
",  c #322414",
"<  c #382513",
"1  c #352A14",
"2  c #3B2C14",
"3  c #39291A",
"4  c #363510",
"5  c #211727",
"6  c #271D2D",
"7  c #212121",
"8  c #2C2C2D",
"9  c #33302B",
"0  c #323232",
"q  c #3A3A3A",
"w  c #473C0E",
"e  c #443117",
"r  c #433218",
"t  c #4B3619",
"y  c #4B3919",
"u  c #51331E",
"i  c #543B1D",
"p  c #583C1E",
"a  c #41372E",
"s  c #523C23",
"d  c #5E3E22",
"f  c #603E22",
"g  c #524F00",
"h  c #52480C",
"j  c #49421A",
"k  c #534314",
"l  c #5C441A",
"z  c #5F4120",
"x  c #634322",
"c  c #6A4625",
"v  c #6C4825",
"b  c #63452A",
"n  c #694528",
"m  c #724A27",
"M  c #704628",
"N  c #744D29",
"B  c #794E2A",
"V  c #7D512D",
"C  c #755032",
"Z  c #444444",
"A  c #4C4C4C",
"S  c #505050",
"D  c #5D5D5D",
"F  c #626262",
"G  c #6D6D6D",
"H  c #727272",
"J  c #7A7A7A",
"K  c #80611D",
"L  c #81532E",
"P  c #855630",
"I  c #895731",
"U  c #875931",
"Y  c #8C5A33",
"T  c #845B3E",
"R  c #935D35",
"E  c #985F38",
"W  c #966037",
"Q  c #986137",
"!  c #976138",
"~  c #9C633A",
"^  c #A3663D",
"/  c #A66A3E",
"(  c #AA6B3F",
")  c #875B41",
"_  c #916541",
"`  c #AD6C41",
"'  c #B16E43",
"]  c #B47144",
"[  c #BA7446",
"{  c #BE7648",
"}  c #BC7848",
"|  c #877B71",
" . c #C57B4B",
".. c #CA7C4D",
"X. c #CD804F",
"o. c #D1834F",
"O. c #CC8354",
"+. c #D38251",
"@. c #D98553",
"#. c #DC8854",
"$. c #E38D57",
"%. c #E68E58",
"&. c #ED945D",
"*. c #F0945C",
"=. c #F7985E",
"-. c #D88F62",
";. c #DC9163",
":. c #D29068",
">. c #EF9A67",
",. c #F69C66",
"<. c #F49E69",
"1. c #F9A36F",
"2. c #E5A37B",
"3. c #FCAC7C",
"4. c #868686",
"5. c #969696",
"6. c #a1a1a1",
"7. c #BBBBBB",
"8. c #FCAE80",
"9. c #C8C8C8",
/* pixels */
"                                                                                                                                ",
"                                                                                                                                ",
"                                                                                                                                ",
"                                                                                                                                ",
"                                                                                                                                ",
"                                                                                                                                ",
"                                                                                                                                ",
"                                                                                                                                ",
"                                                                                                                                ",
"                                                                                                                                ",
"                                                                                                                                ",
"                                                                                                                                ",
"                                                                                                                                ",
"                                                                                                                                ",
"                                                                                                                                ",
"                                                                                                                                ",
"                                                          A J J H D Z .                                                         ",
"                                                        Z 4.J D A A A 0 .                                                       ",
"                                                        G J D A A A q 0 @                                                       ",
"                                                      $ G J G S A q 8 8 7                                                       ",
"                                                    $ D 4.J H F A q 0 0 8                                                       ",
"                                                    @ 7 k t h w j q q Z q @                                                     ",
"                                                        | ^ F ~ V R 4 : @ 7 @                                                   ",
"                                                        -._ ,.1.Q l g =   .                                                     ",
"                                                         .` ..,.U v L ;                                                         ",
"                                                        L :.,...B N Y -                                                         ",
"                                                        u O.{ N V / + @                                                         ",
"                                                        . L N E U 0 8 @ o X                                                     ",
"                                                      p $ % T < H 7.$ % V Q U 1                                                 ",
"                                                    n ` 8 * [ n f d v [ %.*...Y 2                                               ",
"                                                     .m 9 )  .&.,. .O.Q %.#.@.V p                                               ",
"                                                  f Q ` $ 0 Q @.%.{ W v ] @.} L p 2                                             ",
"                                                  R ~ Q 2 0 C Q N L N x Y X.[ Q c r                                             ",
"                                                  ^ Y ^ m 5 a Y ` B z u Y X.[ / v y                                             ",
"                                                  ^ Y U ~ , 8 b R x ; l U X.X.W v r                                             ",
"                                                  R ~ C m z 7 0 b 2 u N z  .o.] v t                                             ",
"                                                  p V p / U . 7 7 7 s t : V ^ ~ x >                                             ",
"                                                    t t 0 q 9.5.q 7 7 $ @ @...' P >                                             ",
"                                                    R i $ $ 6.G $ @ @ @ @ Q ' Q B 2                                             ",
"                                                    V d L / L Q R v x x n #...[ B y                                             ",
"                                                  O R c Y #./ } ` I z i Q #.[ ^ c -                                             ",
"                                                  < ' v ' #./ } ` R U i z  .^ B i                                               ",
"                                                    ] m } #./ } ( ~ m n C y c c -                                               ",
"                                                    V x  .#.^ } ] R i 2.8._ 2 r                                                 ",
"                                                    Y v R R c L V c r 8.3.>.{ y                                                 ",
"                                                    M N ] R z p x c E -.3.^ m y                                                 ",
"                                                      ^  .} U x Q } ( 8.' I y r                                                 ",
"                                                      ~ #.( I t ` @.' ' ^ z r r                                                 ",
"                                                      ~ @.( R % ` ..' ` ' v r 2                                                 ",
"                                                      ~ @.' E % R @.{ ^ / m l r                                                 ",
"                                                      P @. .z : p ....^ ` L z ,                                                 ",
"                                                        o.] U z 3 ' @.^ U v i 2                                                 ",
"                                                        +...z r t ] ..` ` R x i                                                 ",
"                                                         . .Q N t U  .] E I x p                                                 ",
"                                                        x W L b 1 t m Y Y L N +                                                 ",
"                                                          5 $ : @ 5 7 $ 7 @                                                     ",
"                                                          0 $ $ @ @ 8 8 $ $ .                                                   ",
"                                                          0 7 $ @ . 0 8 7 7 $ .                                                 ",
"                                                          0 7 . @ @ 8 8 0 7 $                                                   ",
"                                                          7 $ $ . @ . q 8 7                                                     ",
"                                                            0 $ @ @ 6 0 0 7                                                     ",
"                                                        . 7 0 7 7 7 8 Z 0 $ $                                                   ",
"                                                      7 7 . @ @ # 8 7 7 7 @ 7                                                   ",
"                                                    . 7 @ @ @ @ 6 7 5 7 7 7 7                                                   "
};
