/* XPM */
static char *_566070418594[] = {
/* columns rows colors chars-per-pixel */
"64 64 49 1 ",
"  c #0",
". c #1c1c1c",
"X c #28200C",
"o c #202020",
"O c #282828",
"+ c #2C2C2C",
"@ c #303030",
"# c #343434",
"$ c #383838",
"% c #403018",
"& c #483818",
"* c #543C1C",
"= c #404000",
"- c #585400",
"; c #706C00",
": c #5C4020",
"> c #6C4824",
", c #744C28",
"< c #280040",
"1 c #404040",
"2 c #484848",
"3 c #4C4C4C",
"4 c #545454",
"5 c #5c5c5c",
"6 c #646464",
"7 c #707070",
"8 c #7C7C7C",
"9 c #80502C",
"0 c #905C34",
"q c #A0643C",
"w c #A86840",
"e c #B47044",
"r c #BC7848",
"t c #D08050",
"y c #DC8854",
"u c #E88C58",
"i c #F0945C",
"p c #FC9C60",
"a c #FCA470",
"s c #ffff",
"d c #8c8c8c",
"f c #a8a8a8",
"g c #B4B4B4",
"h c #FCB080",
"j c #FCB890",
"k c #C0C0C0",
"l c #D0D0D0",
"z c #dcdcdc",
"x c #ECECEC",
/* pixels */
"ssssssssssssssssssssssssssssssssssssssssssssssssssssssssssssssss",
"ssssssssssssssssssssssssssssssssssssssssssssssssssssssssssssssss",
"ssssssssssssssssssssssssssssssssssssssssssssssssssssssssssssssss",
"ssssssssssssssssssssssssssssssssssssssssssssssssssssssssssssssss",
"ssssssssssssssssssssssssssssssssssssssssssssssssssssssssssssssss",
"ssssssssssssssssssssssssssssssssssssssssssssssssssssssssssssssss",
"ssssssssssssssssssssssssssssssssssssssssssssssssssssssssssssssss",
"ssssssssssssssssssssssssssssssssssssssssssssssssssssssssssssssss",
"ssssssssssssssssssssssssssssssssssssssssssssssssssssssssssssssss",
"ssssssssssssssssssssssssssssssssssssssssssssssssssssssssssssssss",
"ssssssssssssssssssssssssssssssssssssssssssssssssssssssssssssssss",
"ssssssssssssssssssssssssssssssssssssssssssssssssssssssssssssssss",
"ssssssssssssssssssssssssssssssssssssssssssssssssssssssssssssssss",
"ssssssssssssssssssssssssssssssssssssssssssssssssssssssssssssssss",
"ssssssssssssssssssssssssssssssssssssssssssssssssssssssssssssssss",
"ssssssssssssssssssssssssssssssssssssssssssssssssssssssssssssssss",
"ssssssssssssssssssssssssssssssssssssssssssssssssssssssssssssssss",
"sssssssssssssssssssssssssssss27765$sssssssssssssssssssssssssssss",
"ssssssssssssssssssssssssssss187744O$ssssssssssssssssssssssssssss",
"ssssssssssssssssssssssssssss587754$4ssssssssssssssssssssssssssss",
"ssssssssssssssssssssssssssss8767623#ssssssssssssssssssssssssssss",
"sssssssssssssssssssssssssss3kkkfd744ssssssssssssssssssssssssssss",
"sssssssssssssssssssssssssss@==;:;-- $sssssssssssssssssssssssssss",
"ssssssssssssssssssssssssss  tw9at0w, sssssssssssssssssssssssssss",
"sssssssssssssssssssssssssss  uy:0aw  sssssssssssssssssssssssssss",
"ssssssssssssssssssssssssssssXtr0:a,sssssssssssssssssssssssssssss",
"ssssssssssssssssssssssssssss wawyu% ssssssssssssssssssssssssssss",
"sssssssssssssssssssssssssss   ,,,%   sssssssssssssssssssssssssss",
"sssssssssssssssssssssssssw$ xz %* gl 0ssssssssssssssssssssssssss",
"sssssssssssssssssssssssswp6$.  00  ,ppuqssssssssssssssssssssssss",
"sssssssssssssssssssssss:qe26puyw%,tuiwpyssssssssssssssssssssssss",
"sssssssssssssssssssssss00,2$tye9qututwuiqsssssssssssssssssssssss",
"ssssssssssssssssssssss:0%:e$$ww9qwwq,ypirsssssssssssssssssssssss",
"ssssssssssssssssssssss:,X&wwoo09qewq:uyutsssssssssssssssssssssss",
"ssssssssssssssssssssss:,,Xwq,o$$e90&:itrtsssssssssssssssssssssss",
"sssssssssssssssssssssss,%Xww0,o o,%&w%ptysssssssssssssssssssssss",
"sssssssssssssssssssssss0,X&0,,> jjjetyrprsssssssssssssssssssssss",
"sssssssssssssssssssssssw0%X%:,%qjjhwptwtesssssssssssssssssssssss",
"sssssssssssssssssssssssst,     wuut:ett0tsssssssssssssssssssssss",
"sssssssssssssssssssssssswq:X   &99::0000ssssssssssssssssssssssss",
"ssssssssssssssssssssssssss,::,::X%:,qqssssssssssssssssssssssssss",
"sssssssssssssssssssssssss%:0eew,X:,,0wssssssssssssssssssssssssss",
"sssssssssssssssssssssssss:,wttw,X,,qwresssssssssssssssssssssssss",
"sssssssssssssssssssssssss:qrtt0:X,0weresssssssssssssssssssssssss",
"sssssssssssssssssssssssss:wweye,%:weer,sssssssssssssssssssssssss",
"sssssssssssssssssssssssss,0weut0&XXX:00sssssssssssssssssssssssss",
"sssssssssssssssssssssssss,0eriye,X&wqr0sssssssssssssssssssssssss",
"sssssssssssssssssssssssss:9qriye,%&wqe9sssssssssssssssssssssssss",
"sssssssssssssssssssssssss:9qeuyw,%:ww9ssssssssssssssssssssssssss",
"ssssssssssssssssssssssssss9weytt,%:qqw:sssssssssssssssssssssssss",
"ssssssssssssssssssssssssss9weytt0%:09,ssssssssssssssssssssssssss",
"ssssssssssssssssssssssssss%,,ewwqXXXXXssssssssssssssssssssssssss",
"ssssssssssssssssssssssssss::,ew0,XXXoossssssssssssssssssssssssss",
"sssssssssssssssssssssssss%:::ew,,: o  ssssssssssssssssssssssssss",
"sssssssssssssssssssssssss%09:e0,9.   sssssssssssssssssssssssssss",
"ssssssssssssssssssssssssss% O<o  ...osssssssssssssssssssssssssss",
"sssssssssssssssssssssssssssO$Oo  .+oosssssssssssssssssssssssssss",
"sssssssssssssssssssssssssssO$Oo  o#oosssssssssssssssssssssssssss",
"sssssssssssssssssssssssssssO$Oo  o#oosssssssssssssssssssssssssss",
"ssssssssssssssssssssssssssssOOo s oossssssssssssssssssssssssssss",
"ssssssssssssssssssssssssssssOO  ssssssssssssssssssssssssssssssss",
"ssssssssssssssssssssssssssso@$+.osssssssssssssssssssssssssssssss",
"ssssssssssssssssssssssssss$o@@ooosssssssssssssssssssssssssssssss",
"ssssssssssssssssssssssssss$...ooosssssssssssssssssssssssssssssss"
};
