/* XPM */
static char *_3647_9ed3b9f9d0515b5e161a61d1dfdfa1dcb9a2b7130c0dc6868b735730945e4cae[] = {
/* columns rows colors chars-per-pixel */
"64 64 33 1 ",
"  c #0",
". c #28200C",
"X c #202020",
"o c #303030",
"O c #343434",
"+ c #383838",
"@ c #403018",
"# c #483818",
"$ c #5C4020",
"% c #744C28",
"& c #404040",
"* c #484848",
"= c #4C4C4C",
"- c #545454",
"; c #646464",
": c #707070",
"> c #7C7C7C",
", c #880000",
"< c #980000",
"1 c #BC0000",
"2 c #D40000",
"3 c #80502C",
"4 c #905C34",
"5 c #A0643C",
"6 c #A86840",
"7 c #B47044",
"8 c #BC7848",
"9 c #D08050",
"0 c #DC8854",
"q c #E88C58",
"w c #F0945C",
"e c #FC9C60",
"r c #ffff",
/* pixels */
"rrrrrrrrrrrrrrrrrrrrrrrrrrrrrrrrrrrrrrrrrrrrrrrrrrrrrrrrrrrrrrrr",
"rrrrrrrrrrrrrrrrrrrrrrrrrrrrrrrrrrrrrrrrrrrrrrrrrrrrrrrrrrrrrrrr",
"rrrrrrrrrrrrrrrrrrrrrrrrrrrrrrrrrrrrrrrrrrrrrrrrrrrrrrrrrrrrrrrr",
"rrrrrrrrrrrrrrrrrrrrrrrrrrrrrrrrrrrrrrrrrrrrrrrrrrrrrrrrrrrrrrrr",
"rrrrrrrrrrrrrrrrrrrrrrrrrrrrrrrrrrrrrrrrrrrrrrrrrrrrrrrrrrrrrrrr",
"rrrrrrrrrrrrrrrrrrrrrrrrrrrrrrrrrrrrrrrrrrrrrrrrrrrrrrrrrrrrrrrr",
"rrrrrrrrrrrrrrrrrrrrrrrrrrrrrrrrrrrrrrrrrrrrrrrrrrrrrrrrrrrrrrrr",
"rrrrrrrrrrrrrrrrrrrrrrrrrrrrrrrrrrrrrrrrrrrrrrrrrrrrrrrrrrrrrrrr",
"rrrrrrrrrrrrrrrrrrrrrrrrrrrrrrrrrrrrrrrrrrrrrrrrrrrrrrrrrrrrrrrr",
"rrrrrrrrrrrrrrrrrrrrrrrrrrrrrrrrrrrrrrrrrrrrrrrrrrrrrrrrrrrrrrrr",
"rrrrrrrrrrrrrrrrrrrrrrrrrrrrrrrrrrrrrrrrrrrrrrrrrrrrrrrrrrrrrrrr",
"rrrrrrrrrrrrrrrrrrrrrrrrrrrrrrrrrrrrrrrrrrrrrrrrrrrrrrrrrrrrrrrr",
"rrrrrrrrrrrrrrrrrrrrrrrrrrrrrrrrrrrrrrrrrrrrrrrrrrrrrrrrrrrrrrrr",
"rrrrrrrrrrrrrrrrrrrrrrrrrrrrrrrrrrrrrrrrrrrrrrrrrrrrrrrrrrrrrrrr",
"rrrrrrrrrrrrrrrrrrrrrrrrrrrrrrrrrrrrrrrrrrrrrrrrrrrrrrrrrrrrrrrr",
"rrrrrrrrrrrrrrrrrrrrrrrrrrrrrrrrrrrrrrrrrrrrrrrrrrrrrrrrrrrrrrrr",
"rrrrrrrrrrrrrrrrrrrrrrrrrrrrrrrrrrrrrrrrrrrrrrrrrrrrrrrrrrrrrrrr",
"rrrrrrrrrrrrrrrrrrrrrrrrrrrrrrrrrrrrrrrrrrrrrrrrrrrrrrrrrrrrrrrr",
"rrrrrrrrrrrrrrrrrrrrrrrrrrrrrrrrrrrrrrrrrrrrrrrrrrrrrrrrrrrrrrrr",
"rrrrrrrrrrrrrrrrrrrrrrrrrrrrrrrrrrrrrrrrrrrrrrrrrrrrrrrrrrrrrrrr",
"rrrrrrrrrrrrrrrrrrrrrrrrrrrrrrrrrrrrrrrrrrrrrrrrrrrrrrrrrrrrrrrr",
"rrrrrrrrrrrrrrrrrrrrrrrrrrrrrrrrrrrrrrrrrrrrrrrrrrrrrrrrrrrrrrrr",
"rrrrrrrrrrrrrrrrrrrrrrrrrrrrrrrrrrrrrrrrrrrrrrrrrrrrrrrrrrrrrrrr",
"rrrrrrrrrrrrrrrrrrrrrrrrrrrrrrrrrrrrrrrrrrrrrrrrrrrrrrrrrrrrrrrr",
"rrrrrrrrrrrrrrrrrrrrrrrrrrrrrrrrrrrrrrrrrrrrrrrrrrrrrrrrrrrrrrrr",
"rrrrrrrrrrrrrrrrrrrrrrrrrrrrrrrrrrrrrrrrrrrrrrrrrrrrrrrrrrrrrrrr",
"rrrrrrrrrrrrrrrrrrrrrrrrrrrrrrrrrrrrrrrrrrrrrrrrrrrrrrrrrrrrrrrr",
"rrrrrrrrrrrrrrrrrrrrrrrrrrrrrrrrrrrrrrrrrrrrrrrrrrrrrrrrrrrrrrrr",
"rrrrrrrrrrrrrrrrrrrrrrrrrrrrrrrrrrrrrrrrrrrrrrrrrrrrrrrrrrrrrrrr",
"rrrrrrrrrrrrrrrrrrrrrrrrrrrrrrrrrrrrrrrrrrrrrrrrrrrrrrrrrrrrrrrr",
"rrrrrrrrrrrrrrrrrrrrrrrrrrrrrrrrrrrrrrrrrrrrrrrrrrrrrrrrrrrrrrrr",
"rrrrrrrrrrrrrrrrrrrrrrrrrrrrrrrrrrrrrrrrrrrrrrrrrrrrrrrrrrrrrrrr",
"rrrrrrrrrrrrrrrrrrrrrrrrrrrrrrrrrrrrrrrrrrrrrrrrrrrrrrrrrrrrrrrr",
"rrrrrrrrrrrrrrrrrrrrrrrrrrrrrrrrrrrrrrrrrrrrrrrrrrrrrrrrrrrrrrrr",
"rrrrrrrrrrrrrrrrrrrrrrrrrrrr++&+&rrrrrrrrrrrrrrrrrrrrrrrrrr2rrrr",
"rrrrrrrrrrrrrrrrrrrrrrrrrrr+*&&O&=-=rrrrrrrrrrrrrrrrrrrr<rrrrrrr",
"rrrrrrrrrrrrrrrrrrrrrrrrrr+--**->+X+rrrrrrrrrrrrrrrrrrrrrrrrrrrr",
"rrrrrrrrrrrrrrrrrrrrrrrrrr+=--:+    rrrrrrrrrrrrr1rrrrrrr<rrrrrr",
"rrrrrrrrrrrrrrrrrrrrrrrrrr++-:     +rrrrrrrrrrrrrrrrrrrrrrrrrrrr",
"rrrrrrrrrrrrrrrrrrrrrrrrrr+=-      rrrrrrrrrrrrrrr,rrrrrrr2rrrrr",
"rrrrrrrrrrrrrrrrrrrrrrrrrr+-+     Xrrrrrrrrrrrrrrrrrr<rrr1rrrrrr",
"rrrrrrrrrrrrrrrrrrrrrrrrrrr-X    Xrrrrrr5$@@5eqrrrr2rrrrrrrrrrrr",
"rrrrrrrrrrrrrrrrrrrrrrrrrrr-    rrrrrr9$%0w5ee0q$q08rrr,rr<rrrrr",
"rrrrrrrrrrrrrrrrrrrrrrrrrrr=;Xrrrrrr9%8e959q67e04$9998rrrrrrrrrr",
"rrrrrrrrrrrrrrrrrrrrrrrrrrrrrrrrrrrr%ee85@qqq9795 89864rr<rrrrrr",
"rrrrrrrrrrrrrrrrrrrrrrrrrrrrrrrrrrrr6++==+5eeq697  66664rrrrrrrr",
"rrrrrrrrrrrrrrrrrrrrrrrrrrrrrrrrrrre+++++XX999784  65366%rrrrrrr",
"rrrrrrrrrrrrrrrrrrrrrrrrrrrrrrrrrree+++++  %7765%  %%@565%rrrrrr",
"rrrrrrrrrrrrrrrrrrrrrrrrrrrrrr%6ee66++XXoX %44$3@ #@@.%54%%rrrrr",
"rrrrrrrrrrrrrrrrrrrrrrrrrrXo==o$%0966o++++ %%@$@....$.#354%rrrrr",
"rrrrrrrrrrrrrrrrrrrrrrrrr+++-oXX$7664%++++ #rr.#<,#$rr.#54%%rrrr",
"rrrrrrrrrrrrrrrrrrrrrrrrr+++++   %4%%@+ooo rrrrr<r<rrrr.44%%rrrr",
"rrrrrrrrrrrrrrrrrrrrrrrrr+++XXX  $$@@..ooo rrrrrr,<rrrrr44%%rrrr",
"rrrrrrrrrrrrrrrrrrrrrrrrrroo+++  @@@$45$oorrrrrrrrr,rrrr44%%rrrr",
"rrrrrrrrrrrrrrrrrrrrrrrrrro++++ rrrr497$rrrrrrrrrrrrrrrr443%rrrr",
"rrrrrrrrrrrrrrrrrrrrrrrrrrooooo rrrrr66rrrrrrrrrrr,rrrrr%%@rrrrr",
"rrrrrrrrrrrrrrrrrrrrrrrrrrroooo rrrrr047rrrrrrrrrrrrrrrr95%rrrrr",
"rrrrrrrrrrrrrrrrrrrrrrrrrrrrooorrrrrr93%rrrrrrrrrrrrrrrrw93rrrrr",
"rrrrrrrrrrrrrrrrrrrrrrrrrrrrrrrrrrrrrr76rrrrrrrrrrrrrrrw63rrrrrr",
"rrrrrrrrrrrrrrrrrrrrrrrrrrrrrrrrrrrrrrrrrrrrrrrrrrrrrrrrrrrrrrrr",
"rrrrrrrrrrrrrrrrrrrrrrrrrrrrrrrrrrrrrrrrrrrrrrrrrrrrrrrrrrrrrrrr",
"rrrrrrrrrrrrrrrrrrrrrrrrrrrrrrrrrrrrrrrrrrrrrrrrrrrrrrrrrrrrrrrr",
"rrrrrrrrrrrrrrrrrrrrrrrrrrrrrrrrrrrrrrrrrrrrrrrrrrrrrrrrrrrrrrrr",
"rrrrrrrrrrrrrrrrrrrrrrrrrrrrrrrrrrrrrrrrrrrrrrrrrrrrrrrrrrrrrrrr"
};
