/* XPM */
static char *_566070414864[] = {
/* columns rows colors chars-per-pixel */
"64 64 50 1 ",
"  c #0",
". c #1c1c1c",
"X c #28200C",
"o c #302410",
"O c #202020",
"+ c #282828",
"@ c #2C2C2C",
"# c #303030",
"$ c #343434",
"% c #383838",
"& c #403018",
"* c #483818",
"= c #543C1C",
"- c #404000",
"; c #585400",
": c #706C00",
"> c #5C4020",
", c #6C4824",
"< c #744C28",
"1 c #404040",
"2 c #484848",
"3 c #4C4C4C",
"4 c #545454",
"5 c #5c5c5c",
"6 c #646464",
"7 c #707070",
"8 c #7C7C7C",
"9 c #80502C",
"0 c #905C34",
"q c #9C6038",
"w c #A0643C",
"e c #A86840",
"r c #B47044",
"t c #BC7848",
"y c #D08050",
"u c #DC8854",
"i c #E88C58",
"p c #F0945C",
"a c #FC9C60",
"s c #FCA470",
"d c #ffff",
"f c #8c8c8c",
"g c #989898",
"h c #a8a8a8",
"j c #B4B4B4",
"k c #FCB890",
"l c #C0C0C0",
"z c #D0D0D0",
"x c #dcdcdc",
"c c #ECECEC",
/* pixels */
"dddddddddddddddddddddddddddddddddddddddddddddddddddddddddddddddd",
"dddddddddddddddddddddddddddddddddddddddddddddddddddddddddddddddd",
"dddddddddddddddddddddddddddddddddddddddddddddddddddddddddddddddd",
"dddddddddddddddddddddddddddddddddddddddddddddddddddddddddddddddd",
"dddddddddddddddddddddddddddddddddddddddddddddddddddddddddddddddd",
"dddddddddddddddddddddddddddddddddddddddddddddddddddddddddddddddd",
"dddddddddddddddddddddddddddddddddddddddddddddddddddddddddddddddd",
"dddddddddddddddddddddddddddddddddddddddddddddddddddddddddddddddd",
"dddddddddddddddddddddddddddddddddddddddddddddddddddddddddddddddd",
"dddddddddddddddddddddddddddddddddddddddddddddddddddddddddddddddd",
"dddddddddddddddddddddddddddddddddddddddddddddddddddddddddddddddd",
"dddddddddddddddddddddddddddddddddddddddddddddddddddddddddddddddd",
"dddddddddddddddddddddddddddddddddddddddddddddddddddddddddddddddd",
"dddddddddddddddddddddddddddddddddddddddddddddddddddddddddddddddd",
"dddddddddddddddddddddddddddddddddddddddddddddddddddddddddddddddd",
"dddddddddddddddddddddddddddddddddddddddddddddddddddddddddddddddd",
"ddddddddddddddddddddddddddddd27765%ddddddddddddddddddddddddddddd",
"dddddddddddddddddddddddddddd187744+%dddddddddddddddddddddddddddd",
"dddddddddddddddddddddddddddd587754%4dddddddddddddddddddddddddddd",
"dddddddddddddddddddddddddddd8767623$dddddddddddddddddddddddddddd",
"ddddddddddddddddddddddddddd3lllhf744dddddddddddddddddddddddddddd",
"ddddddddddddddddddddddddddd#--:>:;; %ddddddddddddddddddddddddddd",
"dddddddddddddddddddddddddd  ye9sy0e< ddddddddddddddddddddddddddd",
"ddddddddddddddddddddddddddd  iu>0se  ddddddddddddddddddddddddddd",
"ddddddddddddddddddddddddddddXyt0>s<ddddddddddddddddddddddddddddd",
"dddddddddddddddddddddddddddd eseui& dddddddddddddddddddddddddddd",
"ddddddddddddddddddddddddddd   <<<&   ddddddddddddddddddddddddddd",
"dddddddddddddddddddddddddd6 cx &= jz <,ddddddddddddddddddddddddd",
"dddddddddddddddddddddddder6%.  00  <<0qqqddddddddddddddddddddddd",
"ddddddddddddddddddddddd0ty%60ppp<wtuuiuyaadddddddddddddddddddddd",
"dddddddddddddddddddddddrtey%%0uutyuyyureiieddddddddddddddddddddd",
"dddddddddddddddddddddd9ee<<t%%0ytw0ppt00eayddddddddddddddddddddd",
"dddddddddddddddddddddd990*><*O%y<e>**<9<yyyddddddddddddddddddddd",
"dddddddddddddddddddddd9<&X>wr<O%%e<<rwX*0iaddddddddddddddddddddd",
"dddddddddddddddddddddd9>>XX90>< O%0>09X&>ryydddddddddddddddddddd",
"dddddddddddddddddddddd<>&X&X>><<& O%>XX&>uitdddddddddddddddddddd",
"ddddddddddddddddddddd0yy0&X&*>*X>>   XXXX9ttdddddddddddddddddddd",
"ddddddddddddddddddddd09e9XX    gg     d&>uitdddddddddddddddddddd",
"dddddddddddddddddddddakkyX&&   6g   X&d>>9ytdddddddddddddddddddd",
"dddddddddddddddddddddapksX<<<>><X<<<>**<kk9wdddddddddddddddddddd",
"ddddddddddddddddddddd9wyX>0yyuu9Xee9<<<90ukddddddddddddddddddddd",
"ddddddddddddddddddddddddd>ruppu9X0<<<<<eessddddddddddddddddddddd",
"ddddddddddddddddddddddddd>ryyyt*X><<<000eudddddddddddddddddddddd",
"ddddddddddddddddddddddddd>&etyw>X*><0wwwdddddddddddddddddddddddd",
"ddddddddddddddddddddddddddwrtpywX&>9000ddddddddddddddddddddddddd",
"ddddddddddddddddddddddddddeyyapt&><9w0eddddddddddddddddddddddddd",
"ddddddddddddddddddddddddddyyiapt<><9yyeddddddddddddddddddddddddd",
"ddddddddddddddddddddddddddyupaau<><9yyeddddddddddddddddddddddddd",
"ddddddddddddddddddddddddd0ipasau0><9yueddddddddddddddddddddddddd",
"dddddddddddddddddddddddddtipassut><9rueddddddddddddddddddddddddd",
"ddddddddddddddddddddddddd9tisauyw&<<rieddddddddddddddddddddddddd",
"ddddddddddddddddddddddddd>0rre0t*&>9ttwddddddddddddddddddddddddd",
"ddddddddddddddddddddddddd&&**>><X&<>rreddddddddddddddddddddddddd",
"ddddddddddddddddddddddddddXOX*&XX*&9<>*ddddddddddddddddddddddddd",
"ddddddddddddddddddddddddddOOoXX  oo&&&dddddddddddddddddddddddddd",
"ddddddddddddddddddddddddddd.    .O.OO dddddddddddddddddddddddddd",
"ddddddddddddddddddddddddddd     ...OO dddddddddddddddddddddddddd",
"ddddddddddddddddddddddddddd@O   .O..O dddddddddddddddddddddddddd",
"ddddddddddddddddddddddddddO%OO  dOO.O dddddddddddddddddddddddddd",
"ddddddddddddddddddddddddddO#+  dd#+. ddddddddddddddddddddddddddd",
"dddddddddddddddddddddddddddOOO dd#++ ddddddddddddddddddddddddddd",
"dddddddddddddddddddddddddddddddd@%@.. dddddddddddddddddddddddddd",
"dddddddddddddddddddddddddddddddd@O..   ddddddddddddddddddddddddd",
"ddddddddddddddddddddddddddddddddOOOOO  ddddddddddddddddddddddddd"
};
