/* XPM */
static char *_2122_07953143a0ff71862df0eaede06b434fc270307df0ec780844f332ac76997e15[] = {
/* columns rows colors chars-per-pixel */
"64 64 42 1 ",
"  c #0",
". c #1c1c1c",
"X c #28200C",
"o c #202020",
"O c #303030",
"+ c #383838",
"@ c #700000",
"# c #7C0000",
"$ c #403018",
"% c #483818",
"& c #5C4020",
"* c #6C4824",
"= c #744C28",
"- c #404040",
"; c #484848",
": c #4C4C4C",
"> c #545454",
", c #646464",
"< c #707070",
"1 c #7C7C7C",
"2 c #880000",
"3 c #980000",
"4 c #A80000",
"5 c #80502C",
"6 c #905C34",
"7 c #9C6038",
"8 c #A0643C",
"9 c #CC6000",
"0 c #A86840",
"q c #B47044",
"w c #BC7848",
"e c #C87C4C",
"r c #FC8820",
"t c #FCCC18",
"y c #D08050",
"u c #DC8854",
"i c #E88C58",
"p c #F0945C",
"a c #FC9C60",
"s c #FCA470",
"d c #ffff",
"f c #FCB080",
/* pixels */
"dddddddddddddddddddddddddddddddddddddddddddddddddddddddddddddddd",
"dddddddddddddddddddddddddddddddddddddddddddddddddddddddddddddddd",
"dddddddddddddddddddddddddddddddddddddddddddddddddddddddddddddddd",
"dddddddddddddddddddddddddddddddddddddddddddddddddddddddddddddddd",
"dddddddddddddddddddddddddddddddddddddddddddddddddddddddddddddddd",
"dddddddddddddddddddddddddddddddddddddddddddddddddddddddddddddddd",
"dddddddddddddddddddddddddddddddddddddddddddddddddddddddddddddddd",
"dddddddddddddddddddddddddddddddddddddddddddddddddddddddddddddddd",
"dddddddddddddddddddddddddddddddddddddddddddddddddddddddddddddddd",
"dddddddddddddddddddddddddddddddddddddddddddddddddddddddddddddddd",
"dddddddddddddddddddddddddddddddddddddddddddddddddddddddddddddddd",
"dddddddddddddddddddddddddddddddddddddddddddddddddddddddddddddddd",
"dddddddddddddddddddddddddddddddddddddddddddddddddddddddddddddddd",
"dddddddddddddddddddddddddddddddddddddddddddddddddddddddddddddddd",
"dddddddddddddddddddddddddddddddddddddddddddddddddddddddddddddddd",
"dddddddddddddddddddddddddddddddddddddddddddddddddddddddddddddddd",
"dddddddddddddddddddddddddddddddddddddddddddddddddddddddddddddddd",
"dddddddddddddddddddddddddddddddddddddddddddddddddddddddddddddddd",
"dddddddddddddddddddddddddddddddddddddddddddddddddddddddddddddddd",
"ddddddddddddddddddddddddddddddddddd+;;dddddddddddddddddddddddddd",
"ddddddddddddddddddddddddddddddddd++--+-ddddddddddddddddddddddddd",
"dddddddddddddddddddddddddddddddd+>;;;-;1,ddddddddddddddd4ddddddd",
"dddddddddddddddddddddddddddddddd+>:;>1   +dddddddddddddddddddddd",
"dddddddddddddddddddddddddddddddd+:><     ddddddddddddddddd2ddddd",
"dddddddddddddddddddddddddddddddd+:,o     dddddddddd4dddddddddddd",
"dddddddddddddddddddddddddddddddd+>O     ddddrttttrd3d4ddd3dddddd",
"dddddddddddddddddddddddddddddddd:,      ddddtttttr93dddd@ddd2ddd",
"dddddddddddddddddddddddddddddddd:,    oddwupuyyy5   pwdddddddddd",
"dddddddddddddddddddddddddddddddd:,o oddq6wyyyq=.  7auu6dd3dddddd",
"ddddddddddddddddddddddddddddddddd++dddw05yyy*...*qwuyup6dddddddd",
"dddddddddddddddddddddddddddddddddddddw0&5y0..  eyy06&wup6ddddddd",
"ddddddddddddddddddddddddddddddddddddd0=$       $605&%=0up6dddddd",
"ddddddddddddddddddddddddddddddddddddd5&wuuuyw6=o $&$X$50pydddddd",
"ddddddddddddddddddddddddddddddddddddd0sayyysspuw6 $$d&$&006ddddd",
"dddddddddddddddddddddddddddddddddddddw8qiasaauq565 ddd&$665ddddd",
"dddddddddddddddddddddddddddddddddddd08ipauiaaau0&%&#dd3$=6=ddddd",
"dddddddddddddddddddddddddddddddddddd6quyyq0yipw06$%%#dd$&==ddddd",
"dddddddddddddddddddddddddddddddddddddyuyy5$yipuw0&X%#2dd6qqddddd",
"dddddddddddddddddddddddddddddddddddddppiw=$Xwsay6&$&dd2dyspddddd",
"dddddddddddddddddddddddddddddddddddddwsy0=$$ww0w8&Xddddddsyddddd",
"ddddddddddddddddddddddddddddddddddddday06&$pfap0%%Xddddd55dddddd",
"ddddddddddddddddddddddddddddddddddddw88=&+O+>Oq8&$$ddddddddddddd",
"dddddddddddddddddddddddddddddddddddpay6&++++Oo =$$dddddddddddddd",
"ddddddddddddddddddddddddddddddddddypyw6$++++o  &$ddddddddddddddd",
"ddddddddddddddddddddddddddddddddd8$X&0=$+++oo  ddddddddddddddddd",
"dddddddddddddddddddddddddddddddd>>>+oX&$+oO++  ddddddddddddddddd",
"dddddddddddddddddddddddddddddd++::+Oo X$$++++o ddddddddddddddddd",
"ddddddddddddddddddddddddddddd++++:+o  &ddO++++ ddddddddddddddddd",
"ddddddddddddddddddddddddddddd++++OO  odddd+++O ddddddddddddddddd",
"ddddddddddddddddddddddddddddd++OOO  oddddddOOO ddddddddddddddddd",
"dddddddddddddddddddddddddddddd++++  ddddddddOOdddddddddddddddddd",
"dddddddddddddddddddddddddddddd+++++ dddddddddddddddddddddddddddd",
"ddddddddddddddddddddddddddddddd++++ dddddddddddddddddddddddddddd",
"ddddddddddddddddddddddddddddddddOOO dddddddddddddddddddddddddddd",
"dddddddddddddddddddddddddddddddddOOddddddddddddddddddddddddddddd",
"dddddddddddddddddddddddddddddddddddddddddddddddddddddddddddddddd",
"dddddddddddddddddddddddddddddddddddddddddddddddddddddddddddddddd",
"dddddddddddddddddddddddddddddddddddddddddddddddddddddddddddddddd",
"dddddddddddddddddddddddddddddddddddddddddddddddddddddddddddddddd",
"dddddddddddddddddddddddddddddddddddddddddddddddddddddddddddddddd",
"dddddddddddddddddddddddddddddddddddddddddddddddddddddddddddddddd",
"dddddddddddddddddddddddddddddddddddddddddddddddddddddddddddddddd",
"dddddddddddddddddddddddddddddddddddddddddddddddddddddddddddddddd",
"dddddddddddddddddddddddddddddddddddddddddddddddddddddddddddddddd"
};
