/* XPM */
static char *_566070423695[] = {
/* columns rows colors chars-per-pixel */
"64 64 44 1 ",
"  c #0",
". c #1c1c1c",
"X c #28200C",
"o c #202020",
"O c #282828",
"+ c #303030",
"@ c #383838",
"# c #403018",
"$ c #483818",
"% c #543C1C",
"& c #404000",
"* c #706C00",
"= c #5C4020",
"- c #744C28",
"; c #404040",
": c #484848",
"> c #545454",
", c #5c5c5c",
"< c #646464",
"1 c #707070",
"2 c #7C7C7C",
"3 c #80502C",
"4 c #905C34",
"5 c #9C6038",
"6 c #A0643C",
"7 c #A86840",
"8 c #B47044",
"9 c #BC7848",
"0 c #D08050",
"q c #DC8854",
"w c #E88C58",
"e c #F0945C",
"r c #FC9C60",
"t c #FCA470",
"y c #007CCC",
"u c #ffff",
"i c #8c8c8c",
"p c #989898",
"a c #B4B4B4",
"s c #FCB080",
"d c #FCB890",
"f c #D0D0D0",
"g c #dcdcdc",
"h c #fcfcfc",
/* pixels */
"uuuuuuuuuuuuuuuuuuuuuuuuuuuuuuuuuuuuuuuuuuuuuuuuuuuuuuuuuuuuuuuu",
"uuuuuuuuuuuuuuuuuuuuuuuuuuuuuuuuuuuuuuuuuuuuuuuuuuuuuuuuuuuuuuuu",
"uuuuuuuuuuuuuuuuuuuuuuuuuuuuuuuuuuuuuuuuuuuuuuuuuuuuuuuuuuuuuuuu",
"uuuuuuuuuuuuuuuuuuuuuuuuuuuuuuuuuuuuuuuuuuuuuuuuuuuuuuuuuuuuuuuu",
"uuuuuuuuuuuuuuuuuuuuuuuuuuuuuuuuuuuuuuuuuuuuuuuuuuuuuuuuuuuuuuuu",
"uuuuuuuuuuuuuuuuuuuuuuuuuuuuuuuuuuuuuuuuuuuuuuuuuuuuuuuuuuuuuuuu",
"uuuuuuuuuuuuuuuuuuuuuuuuuuuuuuuuuuuuuuuuuuuuuuuuuuuuuuuuuuuuuuuu",
"uuuuuuuuuuuuuuuuuuuuuuuuuuuuuuuuuuuuuuuuuuuuuuuuuuuuuuuuuuuuuuuu",
"uuuuuuuuuuuuuuuuuuuuuuuuuuuuuuuuuuuuuuuuuuuuuuuuuuuuuuuuuuuuuuuu",
"uuuuuuuuuuuuuuuuuuuuuuuuuuuuuuuuuuuuuuuuuuuuuuuuuuuuuuuuuuuuuuuu",
"uuuuuuuuuuuuuuuuuuuuuuuuuuuuuuuuuuuuuuuuuuuuuuuuuuuuuuuuuuuuuuuu",
"uuuuuuuuuuuuuuuuuuuuuuuuuuuuuuuuuuuuuuuuuuuuuuuuuuuuuuuuuuuuuuuu",
"uuuuuuuuuuuuuuuuuuuuuuuuuuuuuuuuuuuuuuuuuuuuuuuuuuuuuuuuuuuuuuuu",
"uuuuuuuuuuuuuuuuuuuuuuuuuuuuuuuuuuuuuuuuuuuuuuuuuuuuuuuuuuuuuuuu",
"uuuuuuuuuuuuuuuuuuuuuuuuuuuuuuuuuuuuuuuuuuuuuuuuuuuuuuuuuuuuuuuu",
"uuuuuuuuuuuuuuuuuuuuuuuuuuuuuuuuuuuuuuuuuuuuuuuuuuuuuuuuuuuuuuuu",
"uuuuuuuuuuuuuuuuuuuuuuuuuuuuuu@;>:uuuuuuuuuuuuuuuuuuuuuuuuuuuuuu",
"uuuuuuuuuuuuuuuuuuuuuuuuuuuu@111>>Ouuuuuuuuuuuuuuuuuuuuuuuuuuuuu",
"uuuuuuuuuuuuuuuuuuuuuuuuuuuu>211>>+@uuuuuuuuuuuuuuuuuuuuuuuuuuuu",
"uuuuuuuuuuuuuuuuuuuuuuuuuuuu2211<>;@uuuuuuuuuuuuuuuuuuuuuuuuuuuu",
"uuuuuuuuuuuuuuuuuuuuuuuuuuu@ipii21,:uuuuuuuuuuuuuuuuuuuuuuuuuuuu",
"uuuuuuuuuuuuuuuuuuuuuuuuuuu>&#####& uuuuuuuuuuuuuuuuuuuuuuuuuuuu",
"uuuuuuuuuuuuuuuuuuuuuuuuuu@ 4$>4#y*-ouuuuuuuuuuuuuuuuuuuuuuuuuuu",
"uuuuuuuuuuuuuuuuuuuuuuuuuu  4rdd9d9  uuuuuuuuuuuuuuuuuuuuuuuuuuu",
"uuuuuuuuuuuuuuuuuuuuuuuuuuuu 0e0rt4 uuuuuuuuuuuuuuuuuuuuuuuuuuuu",
"uuuuuuuuuuuuuuuuuuuuuuuuuuuu 9tdrt=uuuuuuuuuuuuuuuuuuuuuuuuuuuuu",
"uuuuuuuuuuuuuuuuuuuuuuuuuuu  #ess7  uuuuuuuuuuuuuuuuuuuuuuuuuuuu",
"uuuuuuuuuuuuuuuuuuuuuuuuuq< h  ##  f -7uuuuuuuuuuuuuuuuuuuuuuuuu",
"uuuuuuuuuuuuuuuuuuuuuuuqrr<Opg    f -wq74uuuuuuuuuuuuuuuuuuuuuuu",
"uuuuuuuuuuuuuuuuuuuuuuqrew@<;7-74eer0wq98-uuuuuuuuuuuuuuuuuuuuuu",
"uuuuuuuuuuuuuuuuuuuuuurwwq0@<4qw9qqw908703uuuuuuuuuuuuuuuuuuuuuu",
"uuuuuuuuuuuuuuuuuuuuuure7379@;40980eq74484uuuuuuuuuuuuuuuuuuuuuu",
"uuuuuuuuuuuuuuuuuuuuuur00==$$O@496-$$=-#4=3uuuuuuuuuuuuuuuuuuuuu",
"uuuuuuuuuuuuuuuuuuuuu0r0-=3-67o@7476-3$$=-=uuuuuuuuuuuuuuuuuuuuu",
"uuuuuuuuuuuuuuuuuuuuu007====-37 o43-==X#$-3uuuuuuuuuuuuuuuuuuuuu",
"uuuuuuuuuuuuuuuuuuuu6w04#XX#==--  o=#XX=#--uuuuuuuuuuuuuuuuuuuuu",
"uuuuuuuuuuuuuuuuuuuu6w7$XXXX-=#3$#   X#=7w7-uuuuuuuuuuuuuuuuuuuu",
"uuuuuuuuuuuuuuuuuuuu69r3$X     pp     X#4774uuuuuuuuuuuuuuuuuuuu",
"uuuuuuuuuuuuuuuuuuuuu963#=$#   ap   X=XXddt4uuuuuuuuuuuuuuuuuuuu",
"uuuuuuuuuuuuuuuuuuuuu9dd0=$$=--$X-==--#X00r6uuuuuuuuuuuuuuuuuuuu",
"uuuuuuuuuuuuuuuuuuuuu6dqq=---47$X9qq08-$7075uuuuuuuuuuuuuuuuuuuu",
"uuuuuuuuuuuuuuuuuuuuuut077----3$X9eew04uuuuuuuuuuuuuuuuuuuuuuuuu",
"uuuuuuuuuuuuuuuuuuuuuuu07443---$X7000q4uuuuuuuuuuuuuuuuuuuuuuuuu",
"uuuuuuuuuuuuuuuuuuuuuuuuu6663=$##39973=uuuuuuuuuuuuuuuuuuuuuuuuu",
"uuuuuuuuuuuuuuuuuuuuuuuuu4444==X=9we883uuuuuuuuuuuuuuuuuuuuuuuuu",
"uuuuuuuuuuuuuuuuuuuuuuuuu4449-=#30er804uuuuuuuuuuuuuuuuuuuuuuuuu",
"uuuuuuuuuuuuuuuuuuuuuuuuu480q-==0qrt008uuuuuuuuuuuuuuuuuuuuuuuuu",
"uuuuuuuuuuuuuuuuuuuuuuuuu490q-==8ertw04uuuuuuuuuuuuuuuuuuuuuuuuu",
"uuuuuuuuuuuuuuuuuuuuuuuuuu900-==0rrtrq0uuuuuuuuuuuuuuuuuuuuuuuuu",
"uuuuuuuuuuuuuuuuuuuuuuuuuu0q4-=-0rttrq0uuuuuuuuuuuuuuuuuuuuuuuuu",
"uuuuuuuuuuuuuuuuuuuuuuuuu40w4-=-00wtr07uuuuuuuuuuuuuuuuuuuuuuuuu",
"uuuuuuuuuuuuuuuuuuuuuuuuu5099-=#666887-uuuuuuuuuuuuuuuuuuuuuuuuu",
"uuuuuuuuuuuuuuuuuuuuuuuuu3873==#$===$$#%uuuuuuuuuuuuuuuuuuuuuuuu",
"uuuuuuuuuuuuuuuuuuuuuuuuuu$==4## ##=oo#uuuuuuuuuuuuuuuuuuuuuuuuu",
"uuuuuuuuuuuuuuuuuuuuuuuuuu#=#XX   XXX ouuuuuuuuuuuuuuuuuuuuuuuuu",
"uuuuuuuuuuuuuuuuuuuuuuuuuuu           uuuuuuuuuuuuuuuuuuuuuuuuuu",
"uuuuuuuuuuuuuuuuuuuuuuuuuuu o         uuuuuuuuuuuuuuuuuuuuuuuuuu",
"uuuuuuuuuuuuuuuuuuuuuuuuuuu +.        uuuuuuuuuuuuuuuuuuuuuuuuuu",
"uuuuuuuuuuuuuuuuuuuuuuuuuuu +o        uuuuuuuuuuuuuuuuuuuuuuuuuu",
"uuuuuuuuuuuuuuuuuuuuuuuuuuuu+o    +.   uuuuuuuuuuuuuuuuuuuuuuuuu",
"uuuuuuuuuuuuuuuuuuuuuuuuuuuu++    .   uuuuuuuuuuuuuuuuuuuuuuuuuu",
"uuuuuuuuuuuuuuuuuuuuuuuuuuuo+@o. u   uuuuuuuuuuuuuuuuuuuuuuuuuuu",
"uuuuuuuuuuuuuuuuuuuuuuuuuuuo+o..  uuuuuuuuuuuuuuuuuuuuuuuuuuuuuu",
"uuuuuuuuuuuuuuuuuuuuuuuuuuuoooo   uuuuuuuuuuuuuuuuuuuuuuuuuuuuuu"
};
