/* XPM */
static char *_566070409550[] = {
/* columns rows colors chars-per-pixel */
"64 64 48 1 ",
"  c #0",
". c #1c1c1c",
"X c #28200C",
"o c #302410",
"O c #202020",
"+ c #282828",
"@ c #2C2C2C",
"# c #303030",
"$ c #343434",
"% c #383838",
"& c #403018",
"* c #483818",
"= c #543C1C",
"- c #404000",
"; c #706C00",
": c #5C4020",
"> c #744C28",
", c #404040",
"< c #484848",
"1 c #4C4C4C",
"2 c #545454",
"3 c #5c5c5c",
"4 c #646464",
"5 c #707070",
"6 c #7C7C7C",
"7 c #80502C",
"8 c #905C34",
"9 c #9C6038",
"0 c #A0643C",
"q c #A86840",
"w c #B47044",
"e c #BC7848",
"r c #D08050",
"t c #DC8854",
"y c #E88C58",
"u c #F0945C",
"i c #FC9C60",
"p c #FCA470",
"a c #007CCC",
"s c #ffff",
"d c #8c8c8c",
"f c #989898",
"g c #a8a8a8",
"h c #B4B4B4",
"j c #FCB080",
"k c #FCB890",
"l c #D0D0D0",
"z c #dcdcdc",
/* pixels */
"ssssssssssssssssssssssssssssssssssssssssssssssssssssssssssssssss",
"ssssssssssssssssssssssssssssssssssssssssssssssssssssssssssssssss",
"ssssssssssssssssssssssssssssssssssssssssssssssssssssssssssssssss",
"ssssssssssssssssssssssssssssssssssssssssssssssssssssssssssssssss",
"ssssssssssssssssssssssssssssssssssssssssssssssssssssssssssssssss",
"ssssssssssssssssssssssssssssssssssssssssssssssssssssssssssssssss",
"ssssssssssssssssssssssssssssssssssssssssssssssssssssssssssssssss",
"ssssssssssssssssssssssssssssssssssssssssssssssssssssssssssssssss",
"ssssssssssssssssssssssssssssssssssssssssssssssssssssssssssssssss",
"ssssssssssssssssssssssssssssssssssssssssssssssssssssssssssssssss",
"ssssssssssssssssssssssssssssssssssssssssssssssssssssssssssssssss",
"ssssssssssssssssssssssssssssssssssssssssssssssssssssssssssssssss",
"ssssssssssssssssssssssssssssssssssssssssssssssssssssssssssssssss",
"ssssssssssssssssssssssssssssssssssssssssssssssssssssssssssssssss",
"ssssssssssssssssssssssssssssssssssssssssssssssssssssssssssssssss",
"ssssssssssssssssssssssssssssssssssssssssssssssssssssssssssssssss",
"ssssssssssssssssssssssssssssssssssssssssssssssssssssssssssssssss",
"ssssssssssssssssssssssssssssss%%1<ssssssssssssssssssssssssssssss",
"sssssssssssssssssssssssssssss<55322%ssssssssssssssssssssssssssss",
"ssssssssssssssssssssssssssss%555521$ssssssssssssssssssssssssssss",
"ssssssssssssssssssssssssssss,655521$ssssssssssssssssssssssssssss",
"ssssssssssssssssssssssssssss4fdd6532%sssssssssssssssssssssssssss",
"ssssssssssssssssssssssssssss,-&&&&&-%sssssssssssssssssssssssssss",
"sssssssssssssssssssssssssssOo;a&82*8O%ssssssssssssssssssssssssss",
"sssssssssssssssssssssssssss  ekekky8  ssssssssssssssssssssssssss",
"ssssssssssssssssssssssssssss 8pirur ssssssssssssssssssssssssssss",
"sssssssssssssssssssssssssssss:pikpe ssssssssssssssssssssssssssss",
"ssssssssssssssssssssssssssss  qjju&  sssssssssssssssssssssssssss",
"ssssssssssssssssssssssssss4 gz &&X l re8ssssssssssssssssssssssss",
"ssssssssssssssssssssssssse4%Ol    hg yir>sssssssssssssssssssssss",
"ssssssssssssssssssssssss0iy4:.>8qrwwwrtq0sssssssssssssssssssssss",
"ssssssssssssssssssssssssrir%4<yr78tttwq&0:ssssssssssssssssssssss",
"ssssssssssssssssssssssssriuq++108:e0088X7>ssssssssssssssssssssss",
"sssssssssssssssssssssssseirr*+@@8:0>w:0X&>ssssssssssssssssssssss",
"sssssssssssssssssssssssrrwy8X9@@@>8:>0>Xq:ssssssssssssssssssssss",
"sssssssssssssssssssssssruy0>7&>>@ =8>8:X:8ssssssssssssssssssssss",
"sssssssssssssssssssssssryutriikkw> O0:XXwsssssssssssssssssssssss",
"sssssssssssssssssssssssrrqqtitjkk:O   X&8sssssssssssssssssssssss",
"ssssssssssssssssssssssss8qrwq0ryy:    &8rsssssssssssssssssssssss",
"ssssssssssssssssssssssss8888>:777&  X&&qssssssssssssssssssssssss",
"sssssssssssssssssssssssssss07:*&:::>:>&sssssssssssssssssssssssss",
"ssssssssssssssssssssssssssw08>:&Xqqe0>:sssssssssssssssssssssssss",
"ssssssssssssssssssssssssssreq8>&&qwre7>&ssssssssssssssssssssssss",
"ssssssssssssssssssssssssssrew08&:>qreq>&ssssssssssssssssssssssss",
"ssssssssssssssssssssssssss8eww0X70wrqq>&ssssssssssssssssssssssss",
"ssssssssssssssssssssssssssq:&XXX>qtuw07&ssssssssssssssssssssssss",
"sssssssssssssssssssssssssswe0:&&0ryuwq7&ssssssssssssssssssssssss",
"ssssssssssssssssssssssssss8w0:&*0wyuw0>sssssssssssssssssssssssss",
"ssssssssssssssssssssssssssswq:*:qetyq8:sssssssssssssssssssssssss",
"ssssssssssssssssssssssssss700:*:0rryq0>sssssssssssssssssssssssss",
"ssssssssssssssssssssssssss&>7:*:errtq8>sssssssssssssssssssssssss",
"ssssssssssssssssssssssssss:XXXX:qqqe>>:sssssssssssssssssssssssss",
"sssssssssssssssssssssssssssOXXX*7qqq>>&sssssssssssssssssssssssss",
"ssssssssssssssssssssssssssssOOO>>8q8*7:sssssssssssssssssssssssss",
"ssssssssssssssssssssssssssss   :7>q7:7:sssssssssssssssssssssssss",
"ssssssssssssssssssssssssssssO@.. O.   ssssssssssssssssssssssssss",
"ssssssssssssssssssssssssssss%%.  %%+O ssssssssssssssssssssssssss",
"ssssssssssssssssssssssssssss%..O %#+O ssssssssssssssssssssssssss",
"ssssssssssssssssssssssssssssO..ss.#+O ssssssssssssssssssssssssss",
"sssssssssssssssssssssssssssssssssO%+ sssssssssssssssssssssssssss",
"sssssssssssssssssssssssssssssssssO%+ sssssssssssssssssssssssssss",
"ssssssssssssssssssssssssssssssssO#%%+ ssssssssssssssssssssssssss",
"sssssssssssssssssssssssssssssss.O###. ssssssssssssssssssssssssss",
"sssssssssssssssssssssssssssssss.OOOO. ssssssssssssssssssssssssss"
};
