/* XPM */
static char *_b8c17d054ba4bb3994dc32b243d4799[] = {
/* columns rows colors chars-per-pixel */
"75 87 37 1 ",
"  c #0",
". c #202020",
"X c #2C2C2C",
"o c #543C1C",
"O c #744C28",
"+ c #484848",
"@ c #545454",
"# c #646464",
"$ c #707070",
"% c #7C7C7C",
"& c #980000",
"* c #EC0000",
"= c #FC0000",
"- c #80502C",
"; c #A0643C",
": c #A86840",
"> c #B47044",
", c #FC5454",
"< c #FC5C5C",
"1 c #C87C4C",
"2 c #DC8854",
"3 c #E88C58",
"4 c #F0945C",
"5 c #FC9C60",
"6 c #FCA470",
"7 c #FCFC54",
"8 c #8c8c8c",
"9 c #989898",
"0 c #a8a8a8",
"q c #B4B4B4",
"w c #FC9C9C",
"e c #FCB080",
"r c #FCB890",
"t c #FCC4A4",
"y c #D0D0D0",
"u c #FCD8C4",
"i c None",
/* pixels */
"iiiiiiiiiiiiiiiiiiiiiiiiiiiiiiiii&&&iiiiiiiiiiiiiiiiiiiiiiiiiiiiiiiiiiiiiii",
"iiiiiiiiiiiiiiiiiiiiiiiiiiiiiiiii&&&iiiiiiiiiiiiiiiiiiiiiiiiiiiiiiiiiiiiiii",
"iiiiiiiiiiiiiiiiiiiiiiiiiiiiiiiii&&&iiiiiiiiiiiiiiiiiiiiiiiiiiiiiiiiiiiiiii",
"iiiiiiiiiiiiiiiiiiiiiiiiiiiiii&&&===&&&iiiiiiiiiiiiiiiiiiiiiiiiiiiiiiiiiiii",
"iiiiiiiiiiiiiiiiiiiiiiiiiiiiii&&&===&&&iiiiiiiiiiiiiiiiiiiiiiiiiiiiiiiiiiii",
"iiiiiiiiiiiiiiiiiiiiiiiiiiiiii&&&===&&&iiiiiiiiiiiiiiiiiiiiiiiiiiiiiiiiiiii",
"iiiiiiiiiiiiiiiiiiiii===iiiiii***www***iiiiii===iiiiiiiiiiiiiiiiiiiiiiiiiii",
"iiiiiiiiiiiiiiiiiiiii===iiiiii***www***iiiiii===iiiiiiiiiiiiiiiiiiiiiiiiiii",
"iiiiiiiiiiiiiiiiiiiii===iiiiii***www***iiiiii===iiiiiiiiiiiiiiiiiiiiiiiiiii",
"iiiiiiiiiiiiiiiiiiiiiiii,,,<<<<<<www<<<<<<,,,iiiiiiiiiiiiiiiiiiiiiiiiiiiiii",
"iiiiiiiiiiiiiiiiiiiiiiii,,,<<<<<<www<<<<<<,,,iiiiiiiiiiiiiiiiiiiiiiiiiiiiii",
"iiiiiiiiiiiiiiiiiiiiiiii,,,<<<<<<www<<<<<<,,,iiiiiiiiiiiiiiiiiiiiiiiiiiiiii",
"iiiiiiiiiiiiiiiiiiiiiiii***wwwwww777www,,,***iiiiiiiiiiiiiiiiiiiiiiiiiiiiii",
"iiiiiiiiiiiiiiiiiiiiiiii***wwwwww777www,,,***iiiiiiiiiiiiiiiiiiiiiiiiiiiiii",
"iiiiiiiiiiiiiiiiiiiiiiii***wwwwww777www,,,***iiiiiiiiiiiiiiiiiiiiiiiiiiiiii",
"iiiiiiiiiiiiiiiiiiiii&&&,,,777000%%%000777,,,***iiiiiiiiiiiiiiiiiiiiiiiiiii",
"iiiiiiiiiiiiiiiiiiiii&&&,,,777000%%%000777,,,***iiiiiiiiiiiiiiiiiiiiiiiiiii",
"iiiiiiiiiiiiiiiiiiiii&&&,,,777000%%%000777,,,***iiiiiiiiiiiiiiiiiiiiiiiiiii",
"iiiiiiiiiiiiiiiiii&&&<<<www000888yyy888000www<<<&&&iiiiiiiiiiiiiiiiiiiiiiii",
"iiiiiiiiiiiiiiiiii&&&<<<www000888yyy888000www<<<&&&iiiiiiiiiiiiiiiiiiiiiiii",
"iiiiiiiiiiiiiiiiii&&&<<<www000888yyy888000www<<<&&&iiiiiiiiiiiiiiiiiiiiiiii",
"iiiiiiiiiiiiiiiiiiiii&&&***%%%qqqyyyqqq%%%***&&&iiiiiiiiiiiiiiiiiiiiiiiiiii",
"iiiiiiiiiiiiiiiiiiiii&&&***%%%qqqyyyqqq%%%***&&&iiiiiiiiiiiiiiiiiiiiiiiiiii",
"iiiiiiiiiiiiiiiiiiiii&&&***%%%qqqyyyqqq%%%***&&&iiiiiiiiiiiiiiiiiiiiiiiiiii",
"iiiiiiiiiiiiiiiiiiiiiiiiiii+++qqqyyyqqq+++iiiiiiiiiiiiiiiiiiiiiiiiiiiiiiiii",
"iiiiiiiiiiiiiiiiiiiiiiiiiii+++qqqyyyqqq+++iiiiiiiiiiiiiiiiiiiiiiiiiiiiiiiii",
"iiiiiiiiiiiiiiiiiiiiiiiiiii+++qqqyyyqqq+++iiiiiiiiiiiiiiiiiiiiiiiiiiiiiiiii",
"iiiiiiiiiiiiiiiiiiiiiiii%%%%%%+++%%%+++%%%%%%iiiiiiiiiiiiiiiiiiiiiiiiiiiiii",
"iiiiiiiiiiiiiiiiiiiiiiii%%%%%%+++%%%+++%%%%%%iiiiiiiiiiiiiiiiiiiiiiiiiiiiii",
"iiiiiiiiiiiiiiiiiiiiiiii%%%%%%+++%%%+++%%%%%%iiiiiiiiiiiiiiiiiiiiiiiiiiiiii",
"iiiiiiiiiiiiiiiiiiiiiXXX%%%999XXXXXXXXX###%%%@@@iiiiiiiiiiiiiiiiiiiiiiiiiii",
"iiiiiiiiiiiiiiiiiiiiiXXX%%%999XXXXXXXXX###%%%@@@iiiiiiiiiiiiiiiiiiiiiiiiiii",
"iiiiiiiiiiiiiiiiiiiiiXXX%%%999XXXXXXXXX###%%%@@@iiiiiiiiiiiiiiiiiiiiiiiiiii",
"iiiiiiiiiiiiiiiiiiiiiXXX%%%000$$$%%%$$$###%%%+++iiiiiiiiiiiiiiiiiiiiiiiiiii",
"iiiiiiiiiiiiiiiiiiiiiXXX%%%000$$$%%%$$$###%%%+++iiiiiiiiiiiiiiiiiiiiiiiiiii",
"iiiiiiiiiiiiiiiiiiiiiXXX%%%000$$$%%%$$$###%%%+++iiiiiiiiiiiiiiiiiiiiiiiiiii",
"iiiiiiiiiiiiiiiiiiiiiXXX%%%000999999999###%%%XXXiiiiiiiiiiiiiiiiiiiiiiiiiii",
"iiiiiiiiiiiiiiiiiiiiiXXX%%%000999999999###%%%XXXiiiiiiiiiiiiiiiiiiiiiiiiiii",
"iiiiiiiiiiiiiiiiiiiiiXXX%%%000999999999###%%%XXXiiiiiiiiiiiiiiiiiiiiiiiiiii",
"iiiiiiiiiiiiiiiiiiiiiXXX+++999000000000++++++   iiiiiiiiiiiiiiiiiiiiiiiiiii",
"iiiiiiiiiiiiiiiiiiiiiXXX+++999000000000++++++   iiiiiiiiiiiiiiiiiiiiiiiiiii",
"iiiiiiiiiiiiiiiiiiiiiXXX+++999000000000++++++   iiiiiiiiiiiiiiiiiiiiiiiiiii",
"iiiiiiiiiiiiiiiiiiiiiXXX...%%%+++++++++   ...   :::iiiiiiiiiiiiiiiiiiiiiiii",
"iiiiiiiiiiiiiiiiiiiiiXXX...%%%+++++++++   ...   :::iiiiiiiiiiiiiiiiiiiiiiii",
"iiiiiiiiiiiiiiiiiiiiiXXX...%%%+++++++++   ...   :::iiiiiiiiiiiiiiiiiiiiiiii",
"iiiiiiiiiiiiiiiiii444XXX...###XXXXXXXXX   ...   :::>>>iiiiiiiiiiiiiiiiiiiii",
"iiiiiiiiiiiiiiiiii444XXX...###XXXXXXXXX   ...   :::>>>iiiiiiiiiiiiiiiiiiiii",
"iiiiiiiiiiiiiiiiii444XXX...###XXXXXXXXX   ...   :::>>>iiiiiiiiiiiiiiiiiiiii",
"iiiiiiiiiiiiiii444eeeeee...###XXXXXXXXX   ...ooo:::>>>iiiiiiiiiiiiiiiiiiiii",
"iiiiiiiiiiiiiii444eeeeee...###XXXXXXXXX   ...ooo:::>>>iiiiiiiiiiiiiiiiiiiii",
"iiiiiiiiiiiiiii444eeeeee...###XXXXXXXXX   ...ooo:::>>>iiiiiiiiiiiiiiiiiiiii",
"iiiiiiiiiiiiiii666tttuuu111            ......OOO>>>>>>>>>iiiiiiiiiiiiiiiiii",
"iiiiiiiiiiiiiii666tttuuu111            ......OOO>>>>>>>>>iiiiiiiiiiiiiiiiii",
"iiiiiiiiiiiiiii666tttuuu111            ......OOO>>>>>>>>>iiiiiiiiiiiiiiiiii",
"iiiiiiiiiiiiiii666eeeuuuuuu111--------->>>333333222111>>>iiiiiiiiiiiiiiiiii",
"iiiiiiiiiiiiiii666eeeuuuuuu111--------->>>333333222111>>>iiiiiiiiiiiiiiiiii",
"iiiiiiiiiiiiiii666eeeuuuuuu111--------->>>333333222111>>>iiiiiiiiiiiiiiiiii",
"iiiiiiiiiiii666eeeeeeuuuuuuuuuuuutttrrreee666333333222>>>iiiiiiiiiiiiiiiiii",
"iiiiiiiiiiii666eeeeeeuuuuuuuuuuuutttrrreee666333333222>>>iiiiiiiiiiiiiiiiii",
"iiiiiiiiiiii666eeeeeeuuuuuuuuuuuutttrrreee666333333222>>>iiiiiiiiiiiiiiiiii",
"iiiiiiiiiiii666eee333eeeuuuuuuuuutttrrreee666555333222111iiiiiiiiiiiiiiiiii",
"iiiiiiiiiiii666eee333eeeuuuuuuuuutttrrreee666555333222111iiiiiiiiiiiiiiiiii",
"iiiiiiiiiiii666eee333eeeuuuuuuuuutttrrreee666555333222111iiiiiiiiiiiiiiiiii",
"iiiiiiiiiiii666eee666333eeeeeeeeeeeeeee666555555333222111iiiiiiiiiiiiiiiiii",
"iiiiiiiiiiii666eee666333eeeeeeeeeeeeeee666555555333222111iiiiiiiiiiiiiiiiii",
"iiiiiiiiiiii666eee666333eeeeeeeeeeeeeee666555555333222111iiiiiiiiiiiiiiiiii",
"iiiiiiiiiiii444eeeeee555555eeeeeeeee666666555555333222111iiiiiiiiiiiiiiiiii",
"iiiiiiiiiiii444eeeeee555555eeeeeeeee666666555555333222111iiiiiiiiiiiiiiiiii",
"iiiiiiiiiiii444eeeeee555555eeeeeeeee666666555555333222111iiiiiiiiiiiiiiiiii",
"iiiiiiiiiiii999999999000000111444444444444444999999999%%%%%%iiiiiiiiiiiiiii",
"iiiiiiiiiiii999999999000000111444444444444444999999999%%%%%%iiiiiiiiiiiiiii",
"iiiiiiiiiiii999999999000000111444444444444444999999999%%%%%%iiiiiiiiiiiiiii",
"iiiiiiiii999000000999888$$$###::::::;;;###999000000999999%%%###iiiiiiiiiiii",
"iiiiiiiii999000000999888$$$###::::::;;;###999000000999999%%%###iiiiiiiiiiii",
"iiiiiiiii999000000999888$$$###::::::;;;###999000000999999%%%###iiiiiiiiiiii",
"iiiiii999000000999999%%%$$$###@@@+++###%%%888000000999999999%%%###iiiiiiiii",
"iiiiii999000000999999%%%$$$###@@@+++###%%%888000000999999999%%%###iiiiiiiii",
"iiiiii999000000999999%%%$$$###@@@+++###%%%888000000999999999%%%###iiiiiiiii",
"iii999000000999999%%%%%%$$$###@@@@@@###%%%888999888888888999999###@@@iiiiii",
"iii999000000999999%%%%%%$$$###@@@@@@###%%%888999888888888999999###@@@iiiiii",
"iii999000000999999%%%%%%$$$###@@@@@@###%%%888999888888888999999###@@@iiiiii",
"iii%%%%%%999999%%%$$$#########@@@@@@###%%%###%%%999000000999999%%%###+++iii",
"iii%%%%%%999999%%%$$$#########@@@@@@###%%%###%%%999000000999999%%%###+++iii",
"iii%%%%%%999999%%%$$$#########@@@@@@###%%%###%%%999000000999999%%%###+++iii",
"qqq999000000999999%%%%%%$$$###@@@@@@#########999999999000000999%%%###++++++",
"qqq999000000999999%%%%%%$$$###@@@@@@#########999999999000000999%%%###++++++",
"qqq999000000999999%%%%%%$$$###@@@@@@#########999999999000000999%%%###++++++"
};
