/* XPM */
static char *_2461bb412ab49f99e39ae7c0800f519[] = {
/* columns rows colors chars-per-pixel */
"60 63 29 1 ",
"  c #0",
". c #202020",
"X c #2C2C2C",
"o c #543C1C",
"O c #744C28",
"+ c #484848",
"@ c #545454",
"# c #646464",
"$ c #707070",
"% c #7C7C7C",
"& c #80502C",
"* c #905C34",
"= c #A0643C",
"- c #A86840",
"; c #B47044",
": c #C87C4C",
"> c #DC8854",
", c #E88C58",
"< c #F0945C",
"1 c #FC9C60",
"2 c #FCA470",
"3 c #8c8c8c",
"4 c #989898",
"5 c #a8a8a8",
"6 c #FCB080",
"7 c #FCB890",
"8 c #FCC4A4",
"9 c #FCD8C4",
"0 c None",
/* pixels */
"000000000000000000000000000   000000000000000000000000000000",
"000000000000000000000000000   000000000000000000000000000000",
"000000000000000000000000000   000000000000000000000000000000",
"000000000000000000000000@@@$$$@@@000000000000000000000000000",
"000000000000000000000000@@@$$$@@@000000000000000000000000000",
"000000000000000000000000@@@$$$@@@000000000000000000000000000",
"000000000000000000000+++%%%555%%%+++000000000000000000000000",
"000000000000000000000+++%%%555%%%+++000000000000000000000000",
"000000000000000000000+++%%%555%%%+++000000000000000000000000",
"000000000000000000000+++%%%555%%%+++000000000000000000000000",
"000000000000000000000+++%%%555%%%+++000000000000000000000000",
"000000000000000000000+++%%%555%%%+++000000000000000000000000",
"000000000000000000%%%%%%+++%%%+++%%%%%%000000000000000000000",
"000000000000000000%%%%%%+++%%%+++%%%%%%000000000000000000000",
"000000000000000000%%%%%%+++%%%+++%%%%%%000000000000000000000",
"000000000000000XXX%%%444XXXXXXXXX###%%%@@@000000000000000000",
"000000000000000XXX%%%444XXXXXXXXX###%%%@@@000000000000000000",
"000000000000000XXX%%%444XXXXXXXXX###%%%@@@000000000000000000",
"000000000000000XXX%%%555$$$%%%$$$###%%%+++000000000000000000",
"000000000000000XXX%%%555$$$%%%$$$###%%%+++000000000000000000",
"000000000000000XXX%%%555$$$%%%$$$###%%%+++000000000000000000",
"000000000000000XXX%%%555444444444###%%%XXX000000000000000000",
"000000000000000XXX%%%555444444444###%%%XXX000000000000000000",
"000000000000000XXX%%%555444444444###%%%XXX000000000000000000",
"000000000000000XXX+++444555555555++++++   000000000000000000",
"000000000000000XXX+++444555555555++++++   000000000000000000",
"000000000000000XXX+++444555555555++++++   000000000000000000",
"000000000000000XXX...%%%+++++++++   ...   ---000000000000000",
"000000000000000XXX...%%%+++++++++   ...   ---000000000000000",
"000000000000000XXX...%%%+++++++++   ...   ---000000000000000",
"000000000000<<<XXX...###XXXXXXXXX   ...   ---;;;000000000000",
"000000000000<<<XXX...###XXXXXXXXX   ...   ---;;;000000000000",
"000000000000<<<XXX...###XXXXXXXXX   ...   ---;;;000000000000",
"000000000<<<666666...###XXXXXXXXX   ...ooo---;;;000000000000",
"000000000<<<666666...###XXXXXXXXX   ...ooo---;;;000000000000",
"000000000<<<666666...###XXXXXXXXX   ...ooo---;;;000000000000",
"000000000222888999:::            ......OOO;;;;;;;;;000000000",
"000000000222888999:::            ......OOO;;;;;;;;;000000000",
"000000000222888999:::            ......OOO;;;;;;;;;000000000",
"000000000222666999999:::&&&&&&&&&;;;,,,,,,>>>:::;;;000000000",
"000000000222666999999:::&&&&&&&&&;;;,,,,,,>>>:::;;;000000000",
"000000000222666999999:::&&&&&&&&&;;;,,,,,,>>>:::;;;000000000",
"000000222666666999999999999888777666222,,,,,,>>>;;;000000000",
"000000222666666999999999999888777666222,,,,,,>>>;;;000000000",
"000000222666666999999999999888777666222,,,,,,>>>;;;000000000",
"000000222666,,,666999999999888777666222111,,,>>>:::000000000",
"000000222666,,,666999999999888777666222111,,,>>>:::000000000",
"000000222666,,,666999999999888777666222111,,,>>>:::000000000",
"000000<<<666222,,,666666666666666222111111,,,>>>:::000000000",
"000000<<<666222,,,666666666666666222111111,,,>>>:::000000000",
"000000<<<666222,,,666666666666666222111111,,,>>>:::000000000",
"000000<<<666666111111666666666222222111111,,,>>>:::000000000",
"000000<<<666666111111666666666222222111111,,,>>>:::000000000",
"000000<<<666666111111666666666222222111111,,,>>>:::000000000",
"000000444444444555,,,:::<<<<<<<<<<<<<<<444444444%%%%%%000000",
"000000444444444555,,,:::<<<<<<<<<<<<<<<444444444%%%%%%000000",
"000000444444444555,,,:::<<<<<<<<<<<<<<<444444444%%%%%%000000",
"000444555555444333$$$###------===***444555555444444%%%###000",
"000444555555444333$$$###------===***444555555444444%%%###000",
"000444555555444333$$$###------===***444555555444444%%%###000",
"444555555444444%%%$$$###@@@+++###%%%333555555444444444%%%###",
"444555555444444%%%$$$###@@@+++###%%%333555555444444444%%%###",
"444555555444444%%%$$$###@@@+++###%%%333555555444444444%%%###"
};
