/* XPM */
static char *_7e6f58cacad4d12ca452a5f10d4bd6b[] = {
/* columns rows colors chars-per-pixel */
"75 72 27 1 ",
"  c #0",
". c #202020",
"X c #2C2C2C",
"o c #543C1C",
"O c #744C28",
"+ c #484848",
"@ c #545454",
"# c #646464",
"$ c #707070",
"% c #7C7C7C",
"& c #80502C",
"* c #A86840",
"= c #B47044",
"- c #C87C4C",
"; c #DC8854",
": c #E88C58",
"> c #F0945C",
", c #FC9C60",
"< c #FCA470",
"1 c #8c8c8c",
"2 c #989898",
"3 c #a8a8a8",
"4 c #FCB080",
"5 c #FCB890",
"6 c #FCC4A4",
"7 c #FCD8C4",
"8 c None",
/* pixels */
"888888888888888888888888888888888   888888888888888888888888888888888888888",
"888888888888888888888888888888888   888888888888888888888888888888888888888",
"888888888888888888888888888888888   888888888888888888888888888888888888888",
"888888888888888888888888888888@@@$$$@@@888888888888888888888888888888888888",
"888888888888888888888888888888@@@$$$@@@888888888888888888888888888888888888",
"888888888888888888888888888888@@@$$$@@@888888888888888888888888888888888888",
"888888888888888888888888888+++%%%333%%%+++888888888888888888888888888888888",
"888888888888888888888888888+++%%%333%%%+++888888888888888888888888888888888",
"888888888888888888888888888+++%%%333%%%+++888888888888888888888888888888888",
"888888888888888888888888888+++%%%333%%%+++888888888888888888888888888888888",
"888888888888888888888888888+++%%%333%%%+++888888888888888888888888888888888",
"888888888888888888888888888+++%%%333%%%+++888888888888888888888888888888888",
"888888888888888888888888%%%%%%+++%%%+++%%%%%%888888888888888888888888888888",
"888888888888888888888888%%%%%%+++%%%+++%%%%%%888888888888888888888888888888",
"888888888888888888888888%%%%%%+++%%%+++%%%%%%888888888888888888888888888888",
"888888888888888888888XXX%%%222XXXXXXXXX###%%%@@@888888888888888888888888888",
"888888888888888888888XXX%%%222XXXXXXXXX###%%%@@@888888888888888888888888888",
"888888888888888888888XXX%%%222XXXXXXXXX###%%%@@@888888888888888888888888888",
"888888888888888888888XXX%%%333$$$%%%$$$###%%%+++888888888888888888888888888",
"888888888888888888888XXX%%%333$$$%%%$$$###%%%+++888888888888888888888888888",
"888888888888888888888XXX%%%333$$$%%%$$$###%%%+++888888888888888888888888888",
"888888888888888888888XXX%%%333222222222###%%%XXX888888888888888888888888888",
"888888888888888888888XXX%%%333222222222###%%%XXX888888888888888888888888888",
"888888888888888888888XXX%%%333222222222###%%%XXX888888888888888888888888888",
"888888888888888888888XXX+++222333333333++++++   888888888888888888888888888",
"888888888888888888888XXX+++222333333333++++++   888888888888888888888888888",
"888888888888888888888XXX+++222333333333++++++   888888888888888888888888888",
"888888888888888888888XXX...%%%+++++++++   ...   ***888888888888888888888888",
"888888888888888888888XXX...%%%+++++++++   ...   ***888888888888888888888888",
"888888888888888888888XXX...%%%+++++++++   ...   ***888888888888888888888888",
"888888888888888888>>>XXX...###XXXXXXXXX   ...   ***===888888888888888888888",
"888888888888888888>>>XXX...###XXXXXXXXX   ...   ***===888888888888888888888",
"888888888888888888>>>XXX...###XXXXXXXXX   ...   ***===888888888888888888888",
"888888888888888>>>444444...###XXXXXXXXX   ...ooo***===888888888888888888888",
"888888888888888>>>444444...###XXXXXXXXX   ...ooo***===888888888888888888888",
"888888888888888>>>444444...###XXXXXXXXX   ...ooo***===888888888888888888888",
"888888888888888<<<666777---            ......OOO=========888888888888888888",
"888888888888888<<<666777---            ......OOO=========888888888888888888",
"888888888888888<<<666777---            ......OOO=========888888888888888888",
"888888888888888<<<444777777---&&&&&&&&&===::::::;;;---===888888888888888888",
"888888888888888<<<444777777---&&&&&&&&&===::::::;;;---===888888888888888888",
"888888888888888<<<444777777---&&&&&&&&&===::::::;;;---===888888888888888888",
"888888888888<<<444444777777777777666555444<<<::::::;;;===888888888888888888",
"888888888888<<<444444777777777777666555444<<<::::::;;;===888888888888888888",
"888888888888<<<444444777777777777666555444<<<::::::;;;===888888888888888888",
"888888888888<<<444:::444777777777666555444<<<,,,:::;;;---888888888888888888",
"888888888888<<<444:::444777777777666555444<<<,,,:::;;;---888888888888888888",
"888888888888<<<444:::444777777777666555444<<<,,,:::;;;---888888888888888888",
"888888888888<<<444<<<:::444444444444444<<<,,,,,,:::;;;---888888888888888888",
"888888888888<<<444<<<:::444444444444444<<<,,,,,,:::;;;---888888888888888888",
"888888888888<<<444<<<:::444444444444444<<<,,,,,,:::;;;---888888888888888888",
"888888888888>>>444444,,,,,,444444444<<<<<<,,,,,,:::;;;---888888888888888888",
"888888888888>>>444444,,,,,,444444444<<<<<<,,,,,,:::;;;---888888888888888888",
"888888888888>>>444444,,,,,,444444444<<<<<<,,,,,,:::;;;---888888888888888888",
"888888888888222222222::::::--->>>>>>>>>>>>>>>222222222%%%%%%888888888888888",
"888888888888222222222::::::--->>>>>>>>>>>>>>>222222222%%%%%%888888888888888",
"888888888888222222222::::::--->>>>>>>>>>>>>>>222222222%%%%%%888888888888888",
"888888888222333333222111$$$###*********###222333333222222%%%###888888888888",
"888888888222333333222111$$$###*********###222333333222222%%%###888888888888",
"888888888222333333222111$$$###*********###222333333222222%%%###888888888888",
"888888222333333222222%%%$$$###@@@+++###%%%111333333222222222%%%###888888888",
"888888222333333222222%%%$$$###@@@+++###%%%111333333222222222%%%###888888888",
"888888222333333222222%%%$$$###@@@+++###%%%111333333222222222%%%###888888888",
"888222333333222222%%%%%%$$$###@@@@@@###%%%111222111111111222222###@@@888888",
"888222333333222222%%%%%%$$$###@@@@@@###%%%111222111111111222222###@@@888888",
"888222333333222222%%%%%%$$$###@@@@@@###%%%111222111111111222222###@@@888888",
"888%%%%%%222222%%%$$$#########@@@@@@###%%%###%%%222333333222222%%%###+++888",
"888%%%%%%222222%%%$$$#########@@@@@@###%%%###%%%222333333222222%%%###+++888",
"888%%%%%%222222%%%$$$#########@@@@@@###%%%###%%%222333333222222%%%###+++888",
"%%%222333333222222%%%%%%$$$###@@@@@@#########222222222333333222%%%###++++++",
"%%%222333333222222%%%%%%$$$###@@@@@@#########222222222333333222%%%###++++++",
"%%%222333333222222%%%%%%$$$###@@@@@@#########222222222333333222%%%###++++++"
};
