/* XPM */
static char *_e17448df0f1485bdbbca8c3b5d0efdf[] = {
/* columns rows colors chars-per-pixel */
"75 90 29 1 ",
"  c #0",
". c #202020",
"X c #2C2C2C",
"o c #383838",
"O c #484848",
"+ c #545454",
"@ c #646464",
"# c #707070",
"$ c #7C7C7C",
"% c #80502C",
"& c #B47044",
"* c #BC7848",
"= c #C87C4C",
"- c #D08050",
"; c #DC8854",
": c #E88C58",
"> c #F0945C",
", c #FC9C60",
"< c #FCA470",
"1 c #8c8c8c",
"2 c #989898",
"3 c #a8a8a8",
"4 c #B4B4B4",
"5 c #FCB080",
"6 c #FCB890",
"7 c #FCBC9C",
"8 c #FCC4A4",
"9 c #FCD8C4",
"0 c None",
/* pixels */
"000000000000000000000000000000000000ooo000000000000000000000000000000000000",
"000000000000000000000000000000000000ooo000000000000000000000000000000000000",
"000000000000000000000000000000000000ooo000000000000000000000000000000000000",
"000000000000000000000000000000000+++###+++000000000000000000000000000000000",
"000000000000000000000000000000000+++###+++000000000000000000000000000000000",
"000000000000000000000000000000000+++###+++000000000000000000000000000000000",
"000000000000000000000000000000OOO$$$333$$$OOO000000000000000000000000000000",
"000000000000000000000000000000OOO$$$333$$$OOO000000000000000000000000000000",
"000000000000000000000000000000OOO$$$333$$$OOO000000000000000000000000000000",
"000000000000000000000000000000OOO$$$333$$$OOO000000000000000000000000000000",
"000000000000000000000000000000OOO$$$333$$$OOO000000000000000000000000000000",
"000000000000000000000000000000OOO$$$333$$$OOO000000000000000000000000000000",
"000000000000000000000000000000OOO$$$333$$$OOO000000000000000000000000000000",
"000000000000000000000000000000OOO$$$333$$$OOO000000000000000000000000000000",
"000000000000000000000000000000OOO$$$333$$$OOO000000000000000000000000000000",
"000000000000000000000000000000OOO$$$333$$$OOO000000000000000000000000000000",
"000000000000000000000000000000OOO$$$333$$$OOO000000000000000000000000000000",
"000000000000000000000000000000OOO$$$333$$$OOO000000000000000000000000000000",
"000000000000000000000000000$$$$$$@@@111@@@$$$$$$000000000000000000000000000",
"000000000000000000000000000$$$$$$@@@111@@@$$$$$$000000000000000000000000000",
"000000000000000000000000000$$$$$$@@@111@@@$$$$$$000000000000000000000000000",
"000000000000000000000000@@@$$$$$$@@@111@@@$$$$$$@@@000000000000000000000000",
"000000000000000000000000@@@$$$$$$@@@111@@@$$$$$$@@@000000000000000000000000",
"000000000000000000000000@@@$$$$$$@@@111@@@$$$$$$@@@000000000000000000000000",
"000000000000000000000000+++$$$333oooOOOooo@@@$$$+++000000000000000000000000",
"000000000000000000000000+++$$$333oooOOOooo@@@$$$+++000000000000000000000000",
"000000000000000000000000+++$$$333oooOOOooo@@@$$$+++000000000000000000000000",
"000000000000000000000000+++222222XXXXXXXXX@@@$$$OOO000000000000000000000000",
"000000000000000000000000+++222222XXXXXXXXX@@@$$$OOO000000000000000000000000",
"000000000000000000000000+++222222XXXXXXXXX@@@$$$OOO000000000000000000000000",
"000000000000000000000000+++333444###$$$###@@@$$$ooo000000000000000000000000",
"000000000000000000000000+++333444###$$$###@@@$$$ooo000000000000000000000000",
"000000000000000000000000+++333444###$$$###@@@$$$ooo000000000000000000000000",
"000000000000000000000000+++333444444444444@@@OOOXXX&&&000000000000000000000",
"000000000000000000000000+++333444444444444@@@OOOXXX&&&000000000000000000000",
"000000000000000000000000+++333444444444444@@@OOOXXX&&&000000000000000000000",
"000000000000000000000<<<+++111444111111111OOOOOO   &&&&&&000000000000000000",
"000000000000000000000<<<+++111444111111111OOOOOO   &&&&&&000000000000000000",
"000000000000000000000<<<+++111444111111111OOOOOO   &&&&&&000000000000000000",
"000000000000000000<<<777++++++$$$OOOOOOOOOXXX...   &&&&&&000000000000000000",
"000000000000000000<<<777++++++$$$OOOOOOOOOXXX...   &&&&&&000000000000000000",
"000000000000000000<<<777++++++$$$OOOOOOOOOXXX...   &&&&&&000000000000000000",
"000000000000000000<<<777@@@+++@@@XXXXXXXXX   ...   ***&&&&&&000000000000000",
"000000000000000000<<<777@@@+++@@@XXXXXXXXX   ...   ***&&&&&&000000000000000",
"000000000000000000<<<777@@@+++@@@XXXXXXXXX   ...   ***&&&&&&000000000000000",
"000000000000000000<<<777$$$+++@@@XXXXXXXXX      +++===***&&&000000000000000",
"000000000000000000<<<777$$$+++@@@XXXXXXXXX      +++===***&&&000000000000000",
"000000000000000000<<<777$$$+++@@@XXXXXXXXX      +++===***&&&000000000000000",
"000000000000000<<<<<<555555$$$+++         ...+++&&&===***&&&000000000000000",
"000000000000000<<<<<<555555$$$+++         ...+++&&&===***&&&000000000000000",
"000000000000000<<<<<<555555$$$+++         ...+++&&&===***&&&000000000000000",
"000000000000000<<<<<<555999666===%%%%%%%%%&&&::::::;;;===&&&000000000000000",
"000000000000000<<<<<<555999666===%%%%%%%%%&&&::::::;;;===&&&000000000000000",
"000000000000000<<<<<<555999666===%%%%%%%%%&&&::::::;;;===&&&000000000000000",
"000000000000000<<<555555999888888888888666555<<<::::::;;;&&&000000000000000",
"000000000000000<<<555555999888888888888666555<<<::::::;;;&&&000000000000000",
"000000000000000<<<555555999888888888888666555<<<::::::;;;&&&000000000000000",
"000000000000000<<<555:::555888888888888666555<<<,,,:::;;;===000000000000000",
"000000000000000<<<555:::555888888888888666555<<<,,,:::;;;===000000000000000",
"000000000000000<<<555:::555888888888888666555<<<,,,:::;;;===000000000000000",
"000000000000000<<<555<<<:::<<<<<<<<<<<<<<<<<<,,,,,,:::;;;===000000000000000",
"000000000000000<<<555<<<:::<<<<<<<<<<<<<<<<<<,,,,,,:::;;;===000000000000000",
"000000000000000<<<555<<<:::<<<<<<<<<<<<<<<<<<,,,,,,:::;;;===000000000000000",
"000000000000000>>>555555::::::,,,,,,,,,,,,,,,,,,::::::---===000000000000000",
"000000000000000>>>555555::::::,,,,,,,,,,,,,,,,,,::::::---===000000000000000",
"000000000000000>>>555555::::::,,,,,,,,,,,,,,,,,,::::::---===000000000000000",
"000000000000000;;;555555555;;;---------------------------===000000000000000",
"000000000000000;;;555555555;;;---------------------------===000000000000000",
"000000000000000;;;555555555;;;---------------------------===000000000000000",
"000000000000222222222222$$$***************$$$$$$$$$$$$$$$$$$@@@000000000000",
"000000000000222222222222$$$***************$$$$$$$$$$$$$$$$$$@@@000000000000",
"000000000000222222222222$$$***************$$$$$$$$$$$$$$$$$$@@@000000000000",
"000000000222333333333222$$$######===***+++$$$222222222$$$$$$$$$@@@000000000",
"000000000222333333333222$$$######===***+++$$$222222222$$$$$$$$$@@@000000000",
"000000000222333333333222$$$######===***+++$$$222222222$$$$$$$$$@@@000000000",
"000000000222333333333222$$$$$$###++++++$$$$$$222222$$$$$$$$$$$$@@@000000000",
"000000000222333333333222$$$$$$###++++++$$$$$$222222$$$$$$$$$$$$@@@000000000",
"000000000222333333333222$$$$$$###++++++$$$$$$222222$$$$$$$$$$$$@@@000000000",
"000000222222333222111###$$$$$$@@@++++++$$$$$$$$$#########@@@@@@@@@@@@000000",
"000000222222333222111###$$$$$$@@@++++++$$$$$$$$$#########@@@@@@@@@@@@000000",
"000000222222333222111###$$$$$$@@@++++++$$$$$$$$$#########@@@@@@@@@@@@000000",
"000222333333333333222222###@@@@@@@@@OOO+++$$$###$$$111$$$$$$$$$@@@@@@@@@000",
"000222333333333333222222###@@@@@@@@@OOO+++$$$###$$$111$$$$$$$$$@@@@@@@@@000",
"000222333333333333222222###@@@@@@@@@OOO+++$$$###$$$111$$$$$$$$$@@@@@@@@@000",
"000333333333333222222$$$$$$$$$@@@+++OOO+++###$$$111111111$$$$$$$$$@@@@@@000",
"000333333333333222222$$$$$$$$$@@@+++OOO+++###$$$111111111$$$$$$$$$@@@@@@000",
"000333333333333222222$$$$$$$$$@@@+++OOO+++###$$$111111111$$$$$$$$$@@@@@@000",
"222333333333222222$$$$$$$$$@@@@@@+++OOO+++###$$$111111111$$$$$$$$$$$$@@@@@@",
"222333333333222222$$$$$$$$$@@@@@@+++OOO+++###$$$111111111$$$$$$$$$$$$@@@@@@",
"222333333333222222$$$$$$$$$@@@@@@+++OOO+++###$$$111111111$$$$$$$$$$$$@@@@@@"
};
