/* XPM */
static char *_1797159482440ecbd570d3275049c33[] = {
/* columns rows colors chars-per-pixel */
"45 54 26 1 ",
"  c #0",
". c #202020",
"X c #2C2C2C",
"o c #543C1C",
"O c #744C28",
"+ c #484848",
"@ c #545454",
"# c #646464",
"$ c #707070",
"% c #7C7C7C",
"& c #80502C",
"* c #A86840",
"= c #B47044",
"- c #C87C4C",
"; c #DC8854",
": c #E88C58",
"> c #F0945C",
", c #FC9C60",
"< c #FCA470",
"1 c #989898",
"2 c #a8a8a8",
"3 c #FCB080",
"4 c #FCB890",
"5 c #FCC4A4",
"6 c #FCD8C4",
"7 c None",
/* pixels */
"777777777777777777777   777777777777777777777",
"777777777777777777777   777777777777777777777",
"777777777777777777777   777777777777777777777",
"777777777777777777@@@$$$@@@777777777777777777",
"777777777777777777@@@$$$@@@777777777777777777",
"777777777777777777@@@$$$@@@777777777777777777",
"777777777777777+++%%%222%%%+++777777777777777",
"777777777777777+++%%%222%%%+++777777777777777",
"777777777777777+++%%%222%%%+++777777777777777",
"777777777777777+++%%%222%%%+++777777777777777",
"777777777777777+++%%%222%%%+++777777777777777",
"777777777777777+++%%%222%%%+++777777777777777",
"777777777777%%%%%%+++%%%+++%%%%%%777777777777",
"777777777777%%%%%%+++%%%+++%%%%%%777777777777",
"777777777777%%%%%%+++%%%+++%%%%%%777777777777",
"777777777XXX%%%111XXXXXXXXX###%%%@@@777777777",
"777777777XXX%%%111XXXXXXXXX###%%%@@@777777777",
"777777777XXX%%%111XXXXXXXXX###%%%@@@777777777",
"777777777XXX%%%222$$$%%%$$$###%%%+++777777777",
"777777777XXX%%%222$$$%%%$$$###%%%+++777777777",
"777777777XXX%%%222$$$%%%$$$###%%%+++777777777",
"777777777XXX%%%222111111111###%%%XXX777777777",
"777777777XXX%%%222111111111###%%%XXX777777777",
"777777777XXX%%%222111111111###%%%XXX777777777",
"777777777XXX+++111222222222++++++   777777777",
"777777777XXX+++111222222222++++++   777777777",
"777777777XXX+++111222222222++++++   777777777",
"777777777XXX...%%%+++++++++   ...   ***777777",
"777777777XXX...%%%+++++++++   ...   ***777777",
"777777777XXX...%%%+++++++++   ...   ***777777",
"777777>>>XXX...###XXXXXXXXX   ...   ***===777",
"777777>>>XXX...###XXXXXXXXX   ...   ***===777",
"777777>>>XXX...###XXXXXXXXX   ...   ***===777",
"777>>>333333...###XXXXXXXXX   ...ooo***===777",
"777>>>333333...###XXXXXXXXX   ...ooo***===777",
"777>>>333333...###XXXXXXXXX   ...ooo***===777",
"777<<<555666---            ......OOO=========",
"777<<<555666---            ......OOO=========",
"777<<<555666---            ......OOO=========",
"777<<<333666666---&&&&&&&&&===::::::;;;---===",
"777<<<333666666---&&&&&&&&&===::::::;;;---===",
"777<<<333666666---&&&&&&&&&===::::::;;;---===",
"<<<333333666666666666555444333<<<::::::;;;===",
"<<<333333666666666666555444333<<<::::::;;;===",
"<<<333333666666666666555444333<<<::::::;;;===",
"<<<333:::333666666666555444333<<<,,,:::;;;---",
"<<<333:::333666666666555444333<<<,,,:::;;;---",
"<<<333:::333666666666555444333<<<,,,:::;;;---",
"<<<333<<<:::333333333333333<<<,,,,,,:::;;;---",
"<<<333<<<:::333333333333333<<<,,,,,,:::;;;---",
"<<<333<<<:::333333333333333<<<,,,,,,:::;;;---",
"<<<333333,,,,,,333333333<<<<<<,,,,,,:::;;;---",
"<<<333333,,,,,,333333333<<<<<<,,,,,,:::;;;---",
"<<<333333,,,,,,333333333<<<<<<,,,,,,:::;;;---"
};
