/* XPM */
static char *ba954460a5b548aff2fad10dcf260be8[] = {
/* columns rows colors chars-per-pixel */
"64 118 137 2 ",
"   c None",
".  c #010100",
"X  c #00000C",
"o  c #010112",
"O  c #1f1f1f",
"+  c #23201F",
"@  c #051C24",
"#  c #121D21",
"$  c #1F1F20",
"%  c #1F2020",
"&  c #212121",
"*  c #3B3D3F",
"=  c #4E1906",
"-  c #441D0F",
";  c #4A1F0F",
":  c #501905",
">  c #56200D",
",  c #5F3507",
"<  c #4C2213",
"1  c #562513",
"2  c #582614",
"3  c #5D2C19",
"4  c #613606",
"5  c #6E3D03",
"6  c #6E3F0B",
"7  c #713F05",
"8  c #612B17",
"9  c #734006",
"0  c #75440D",
"q  c #7F490B",
"w  c #7A4A15",
"e  c #4F4727",
"r  c #4F462A",
"t  c #4F482B",
"y  c #604136",
"u  c #424242",
"i  c #4F4F53",
"p  c #515155",
"a  c #5D5B50",
"s  c #604E47",
"d  c #7F594C",
"f  c #785D54",
"g  c #5C5E66",
"h  c #5E696D",
"j  c #5F6B70",
"k  c #666667",
"l  c #6A6766",
"z  c #6B6867",
"x  c #636C6F",
"c  c #6C6C6B",
"v  c #71716F",
"b  c #616D71",
"n  c #657073",
"m  c #717171",
"M  c #852907",
"N  c #852B0B",
"B  c #8A2D0B",
"V  c #932C08",
"C  c #9E310A",
"Z  c #B62F00",
"A  c #BA2F00",
"S  c #B73100",
"D  c #BB3200",
"F  c #A43C15",
"G  c #C12D00",
"H  c #C82800",
"J  c #C23401",
"K  c #CA3500",
"L  c #C33A07",
"P  c #C93805",
"I  c #C53C0A",
"U  c #CB3E0C",
"Y  c #D33C06",
"T  c #844C0C",
"R  c #884F0D",
"E  c #8A510E",
"W  c #90540D",
"Q  c #8D5413",
"!  c #8E581B",
"~  c #915715",
"^  c #955A15",
"/  c #955C1B",
"(  c #985F1C",
")  c #9B601D",
"_  c #845522",
"`  c #9B6425",
"'  c #9F6728",
"]  c #A16725",
"[  c #A26926",
"{  c #A46A28",
"}  c #A96D28",
"|  c #C7400E",
" . c #CC420F",
".. c #D64008",
"X. c #DB450E",
"o. c #C74211",
"O. c #CD4310",
"+. c #CE4C17",
"@. c #CE4C18",
"#. c #D04410",
"$. c #DB4710",
"%. c #DD4911",
"&. c #D24B19",
"*. c #DC4E19",
"=. c #E44205",
"-. c #D95626",
";. c #DD5D2E",
":. c #DD5F30",
">. c #E65A26",
",. c #E45B29",
"<. c #E95E2B",
"1. c #DE6131",
"2. c #FB652E",
"3. c #E16132",
"4. c #EE6432",
"5. c #EE6935",
"6. c #F06633",
"7. c #895341",
"8. c #8E5945",
"9. c #825849",
"0. c #965D47",
"q. c #905D49",
"w. c #956452",
"e. c #9D6753",
"r. c #9C9371",
"t. c #A29975",
"y. c #EDCC79",
"u. c #EDD27E",
"i. c #FADB7F",
"p. c #EDD681",
"a. c #F0D580",
"s. c #F1DA83",
"d. c #FADE83",
"f. c #FCE284",
"g. c #FBE489",
"h. c #FDE98C",
"j. c #FFF18D",
/* pixels */
"                                                                                                                                ",
"                                                                                                                                ",
"                                                                                                                                ",
"                                                                                                                                ",
"                                                                                                                                ",
"                                                                                                                                ",
"                                                                                                                                ",
"                                                                                                                                ",
"                                                                                                                                ",
"                                                                                                                                ",
"                                                                                                                                ",
"                                                                                                                                ",
"                                                                                                                                ",
"                                                                                                                                ",
"                                                                                                                                ",
"                                                                                                                                ",
"                                                                                                                                ",
"                                                                                                                                ",
"                                                                                                                                ",
"                                                                                                                                ",
"                                                                                                                                ",
"                                                                                                                                ",
"                                                                                                                                ",
"                                                                                                                                ",
"                                                                                                                                ",
"                                                                                                                                ",
"                                                                                                                                ",
"                                                                                                D D D D D                       ",
"                                                                                                D D D D D                       ",
"                                                                                                D D D D J                       ",
"                                                                                                D D D D D                       ",
"                                                                                                D D D D J                       ",
"                                                      D D D D D             D D D D D D D D D D                                 ",
"                                                      K D D J D           D K J J J J J J D J D                                 ",
"                                                      D D D D D           D J D D D D D D D D D                                 ",
"                                                      D D D D D           D J D D D D D D D D D                                 ",
"                                                      D D D D D           D J D D D D D D D D D                                 ",
"                                                    D D D D D D           D J D D D D D D D D D                                 ",
"                                          D K D J J J D D D D D J J J J J D D D D D D D D D D D J J J D K                       ",
"                                          D J D D D D D D D D D D D D D A D D D D D D D D D D D D D D D D                       ",
"                                          D K S D D D D D D D D D D D D D D D D D D D D D D D D D D D D D                       ",
"                                          D J D D D D A D D D D A D D D D D D D D D D D D D D D J D D D P                       ",
"                                          D J D D D D D D D D D D D D D D D D D D D D D D D D D D D D D D                       ",
"                                          D J D D A L O. . .O.O.O.O. .O.O.D A D D D D D D D D D                                 ",
"                                          D J D D D D +. . . . .O. . .O.O.D Z D D D D D D D D D                                 ",
"                                          D J D D A D O. . .O. . .O. . .O.L D D D D D D D D D D                                 ",
"                                          D J D D D D  .O.O.O.O. .O.O. .O.L Z D D D D D D D D D                                 ",
"                                          Z J A A Z L  . .U U  . . .O. .O.L A A A D D D D D D D                                 ",
"                                A D D D Z L  .I I L O.-.-.-.-.-.O. .O.U O.L A D D D D D D D D D                                 ",
"                                D J J J D U O.O.O. .&.3.1.1.3.:.O.O.O.O.O.D D D A D D D D D D D                                 ",
"                                D D D D A I O.O.O. .&.3.,.:.;.;.O.O.O.O.#.L A D D D D D D D D D                                 ",
"                                D D D D A L O.I O.I @.3.:.;.:.;.O.U O.O.O.D Z A S S Z D D D D D                                 ",
"                                Z A A D Z Y %.X.$.$.*.3.;.:.:.;.O.O.O.O.O.P J J J K J J J J J D                                 ",
"                                J L L D L C B B B M F 3.1.,.:.;.U I I I U C N N N N V G D D D D                                 ",
"          z m c z m c           O.O.O.O.%.= . . . . - 4.:.;.:.;.D Z D Z J 1 @ $ # # #                                           ",
"          z c c c c z           O. . . .$.= . . . . ; 4.:.:.:.;.D A D S K 2 # + & & +                                           ",
"          z c k k c c           O.O.O. .X.= . . . . ; 4.;.1.1.;.D D D S P 2 # & $ & %                                           ",
"          c c c z c z            .O. . .X.= . . . . ; 3.;.,.;.;.D D D Z G 2 # & $ & &                                           ",
"          c c c c c l           O.O. .o.%.= . . . . < 5.1.1.3.1.D S D D K 2 # & $ & &                                           ",
"          k c k k x d G D D D D -.;.;.;.4.1 . . . . r d.y.y.u.y.-.I o.U $.8 # + $ & %                                           ",
"          c c x z b 9.G D D D D ;.;.;.;.6.1 . . . . t h.p.p.s.u.@.U O.o.$.3 # & % & %                                           ",
"          z c c z n 9.G D D D D ;.:.:.;.6.1 . . . . r h.p.u.s.u.&.U O.o.Y 8 # & % & &                                           ",
"          c c z z b 9.A S D D S ;.:.:.:.4.1 . . . . t g.u.p.p.y.@.o.@.U $.3 # + % & &                                           ",
"          x m z c n 9.H G G G J ,.<.,.,.2.> . . . . e j.d.f.g.d.$.Y Y Y =.8 # + & & %                                           ",
"                    f 7.7.7.7.7.w.w.w.w.e.s * u u * a t.r.r.r.r.q.8.8.8.0.y                                                     ",
"                      n b b b b h h h h h c m m m m x g g g g h j j j j b                                                       ",
"                      z z l l l z z z z z z k k k k k z c z l z l l l l c                                                       ",
"                      z k k k k k k k k k k k k k c k k k k k k k k k c z                                                       ",
"                      m m c m c c m c m v c c v c v c v v c v v c m v c m                                                       ",
"                      p p i i i i i i p p p i p p i p i i i i i p p i i p                                                       ",
"                      X X X o X X X X X X X X X X X X X X X X X X X X X X                                                       ",
"                      o o o o o o o o o o o o o o o o o o o o o o o o o o                                                       ",
"                      o o o o o o o o o o o o o o o o o o o o o o o o o o                                                       ",
"                      o o o o o o o o o o o o X o o o o o o o o o o o o o                                                       ",
"                      o o o o o o o o o o o X o o o o X o o o o o o o o o                                                       ",
"                                _ _ _ _ _ T 0 0 0 0 0 4 4 4 4 4                                                                 ",
"                                } [ [ [ [ ^ E E E W T 7 9 9 9 q                                                                 ",
"                                ` ` ` ` ` Q T E R R q 5 9 9 7 7                                                                 ",
"                                ` ` ` ` ' Q T E R E T 5 7 9 7 9                                                                 ",
"                                ` ` ` ` ' E T R T E T 5 9 9 9 7                                                                 ",
"                                ` ` ` ` ` / Q Q Q ~ T 6 5 9 9 5                                                                 ",
"                                ` ` ` ` ` ( / / / ( Q 5 0 7 9 9                                                                 ",
"                                ` ` ` ` ` / ^ / / ( Q 5 9 9 9 5                                                                 ",
"                                ` ` ` ` ` / / / / / Q 5 9 9 9 9                                                                 ",
"                                ` ` ` ` ` / / / / ( Q 7 9 0 9 7                                                                 ",
"                                ` ` ` ` ` / / / / / Q 5 9 9 9 9                                                                 ",
"                                ` ' ` ` ` / / / / ( /                                                                           ",
"                                ` ` ` ` ` / / / ^ ) /                                                                           ",
"                                ` ` ` ` ` ( ^ / / ) /                                                                           ",
"                                ` ` ` ` ` / / / / ) /                                                                           ",
"                                ` ` ` ` ` / / / / ) /                                                                           ",
"                                / / / ( / ~ Q E E Q T 5 9 9 9 9                                                                 ",
"                                / / / / ( E T R T R T 7 9 9 9 9                                                                 ",
"                                / / / / / Q R R R R T 5 9 9 7 9                                                                 ",
"                                / / / / / Q R R R R q 5 9 7 9 9                                                                 ",
"                                / / / / ^ Q R E R E T 5 5 5 5 5                                                                 ",
"                                / ) ( ( ` Q R R R R T w T w T T                                                                 ",
"                                ` ` ` ` ` Q T E E R Q ( / / ( /                                                                 ",
"                                ` ` ` ` ` Q R E R R E ( ^ / / /                                                                 ",
"                                ` ` ` ` ` ! T E R T Q ( / / / /                                                                 ",
"                                ` ] ` ` ` ~ R R R R Q / / / / /                                                                 ",
"                                ` ` ` ` ` Q R E R R Q ~ / ~ / ^                                                                 ",
"                                          E W E R E T 5 7 7 7 7                                                                 ",
"                                          R E E R R T 5 7 7 7 7                                                                 ",
"                                          E E E R E T 7 9 9 7 0                                                                 ",
"                                          E W R R E q 5 7 7 7 7                                                                 ",
"                                          R E T T R q 5 9 9 9 7                                                                 ",
"                                          / ` / / / Q 5 7 9 9 9                                                                 ",
"                                          ` { ` ` ' ! 5 9 9 9 9                                                                 ",
"                                          ` ] ` ` ` ! 5 9 9 9 9                                                                 ",
"                                          ` [ ` ` ' ! 5 9 9 9 7                                                                 ",
"                                          ` } ` ` { / 7 9 9 9 9                                                                 ",
"                                            ` ` ` ` ! 5 9 9 9 9                                                                 ",
"                                                                                                                                ",
"                                                                                                                                ",
"                                                                                                                                ",
"                                                                                                                                ",
"                                                                                                                                "
};
