/* XPM */
static char *_2b69cef3ca24b0e97a1b443419d02b3[] = {
/* columns rows colors chars-per-pixel */
"64 64 120 2 ",
"   c #303030",
".  c #323232",
"X  c #393939",
"o  c #3A3A3A",
"O  c #3b3b3b",
"+  c #3d3d3d",
"@  c #3E3E3E",
"#  c #404040",
"$  c #414141",
"%  c #424242",
"&  c #434343",
"*  c #444444",
"=  c #454545",
"-  c #464646",
";  c #474747",
":  c #484848",
">  c #494949",
",  c #4a4a4a",
"<  c #4B4B4B",
"1  c #4C4C4C",
"2  c #4d4d4d",
"3  c #4E4E4E",
"4  c #4f4f4f",
"5  c #505050",
"6  c #515151",
"7  c #525252",
"8  c #535353",
"9  c #545454",
"0  c #555555",
"q  c #565656",
"w  c #575757",
"e  c #585858",
"r  c #595959",
"t  c #5A5A5A",
"y  c #5B5B5B",
"u  c #5c5c5c",
"i  c #5D5D5D",
"p  c #5e5e5e",
"a  c #5F5F5F",
"s  c #606060",
"d  c #616161",
"f  c #626262",
"g  c #636363",
"h  c #646464",
"j  c #656565",
"k  c #666666",
"l  c #676767",
"z  c #686868",
"x  c DimGray",
"c  c #6A6A6A",
"v  c #6b6b6b",
"b  c #6C6C6C",
"n  c #6D6D6D",
"m  c #6e6e6e",
"M  c #6F6F6F",
"N  c #707070",
"B  c #717171",
"V  c #727272",
"C  c #737373",
"Z  c #747474",
"A  c #757575",
"S  c #767676",
"D  c #777777",
"F  c #787878",
"G  c #797979",
"H  c #7a7a7a",
"J  c #7B7B7B",
"K  c #7C7C7C",
"L  c #7d7d7d",
"P  c #7E7E7E",
"I  c #7f7f7f",
"U  c #808080",
"Y  c #818181",
"T  c #828282",
"R  c #838383",
"E  c #848484",
"W  c #858585",
"Q  c #868686",
"!  c #878787",
"~  c #888888",
"^  c #898989",
"/  c #8a8a8a",
"(  c #8B8B8B",
")  c #8c8c8c",
"_  c #8D8D8D",
"`  c #8E8E8E",
"'  c #8f8f8f",
"]  c #909090",
"[  c #919191",
"{  c #929292",
"}  c #939393",
"|  c #949494",
" . c #959595",
".. c #969696",
"X. c #979797",
"o. c #989898",
"O. c #999999",
"+. c #9A9A9A",
"@. c #9B9B9B",
"#. c #9c9c9c",
"$. c #9D9D9D",
"%. c #9e9e9e",
"&. c #9F9F9F",
"*. c #A0A0A0",
"=. c #a1a1a1",
"-. c #A2A2A2",
";. c #a3a3a3",
":. c #A4A4A4",
">. c #A5A5A5",
",. c #a6a6a6",
"<. c #A7A7A7",
"1. c #a8a8a8",
"2. c #A9A9A9",
"3. c #AAAAAA",
"4. c #ababab",
"5. c #ACACAC",
"6. c #B1B1B1",
"7. c #B2B2B2",
"8. c #b5b5b5",
"9. c #B7B7B7",
/* pixels */
"_ +.W ] W / _ ] W W R I / / _ F 9 B +.] +.| +.5.1.5.:.;.+.$.+.| W R R S F $.:.$.+.;.$.;.+.$.:.+.I ] W j F $.;.7.$.;.:.+.| ;.:.9.",
"_ / W R _ +.] ] | / R W / R / F j S :.+.$.$.:.;.;.:.:.$.+.;._ _ F R ] +.;.+.$.+.+.+.$.;.;.;.W W I / F d S W / / _ ] / F I / _ _ ",
"R / | ] ] $.+.+.| ] / I W W R R B F +.$.$.$.7.1.:.$.$.+.| / S S R +.$.;.$.+.$.$.$.+.| ;.+.+.W | I | R j B S d 4 4 4 ; ; ; ; ; ; ",
"_ ] +.;.| ] / ] / W _ W _ _ ] W B B ] _ | :.| ] :.+._ W I m S _ +.:.$.$.+.$.| ] | $.$.] / +._ | _ +./ z S R R I F F I B S F I I ",
"| _ / ] W W W W ] _ / _ / +.W I z B | +.| +./ _ ] +.R F I / $.$.;.$.+.$.] _ ] | | +.] / | $.] +.$.;.W m I | ] ] | | | | / / _ _ ",
"+._ _ _ ] ] _ ] ] W W R _ _ S R m B _ $.$.| +._ ] R R S R W I R R / _ ] _ ] +.$./ R R / _ +.| +.$._ F d W $.$.| +.+.+.+.] ] _ R ",
"] _ _ _ ] ] _ | ] _ W R R / W _ z m | $.$.| +.| W I S S W W R R R / | | | $.] R R / ] +.+.+._ | _ _ B d / :.R R W _ / _ | $.] _ ",
"| | / R _ ] _ / / / I I _ I S R z F ;.W F _ +.W ] I I _ ] W I W / ] | ] +.W W _ ] | +.| | / W / / F z i W _ W | +._ W / / _ / +.",
"| ] R F W W W R W _ W _ _ / / S i I _ | ;.:.I R W / ] ;.$.+.+.$.;.+.$.| +.+.+.+.$.;.;.$.| _ W I B F B r W $.$.] _ | ] ] ] _ _ | ",
"S m z S S B B m z z j j m z d r m B z R W R R +._ / / I I I F S m j S F z z z r S R / | ] +.+._ W I 9 r _ :.+.] | ] _ ] _ / _ | ",
"B d 8 r i r j z m m z j i i d j z d i j z m j i 9 i r r i d z B S I S S B B m B S S m d j B z i r 4 r B _ | | _ | | ] | ] _ +.| ",
"+.] / / ] ] ] | ] _ _ _ / W / W R / W ] / R F R ] _ | +.] +.] +.| ] | | ] / _ / / ] | ] / W I R W / W B / _ _ _ +./ W $.| | | ] ",
"_ ] ] ] _ W / ] | ] ] ] +.$.] _ _ _ ] $.R z m / F z F I / | | ] $.+.| ;.$.W I R R R R / ] W W W W R _ 8 I ] W I _ / _ | _ | | | ",
"| +.| | / / | / _ ] ] | ;.+.] | $.| W / S i j m i z F R _ ] | ] $.+.W | _ I F W W I I R / _ W F S I F > F / / / _ | | ] | | | ] ",
"] ] | +.] +.| _ _ _ ] +._ / W ] | _ I S S i i B j S / | +.;.$.+.| _ / $.] / | ] | _ / ] _ F R R R _ B > F ] +./ ] ] _ R _ ] ] ] ",
"I F I I W _ / ] +.] ] R I / _ _ _ | ] I B r r B z / | ] +.$.+._ | _ W | _ +.| +.+.+.;.$.] I W R / | B 9 / | / / W / | | | +.+.| ",
"B R R I F R / R R W / / ] ] ] ] _ R F I m r i R I I | $.$.+._ W W S S F R R R W W / | | ] ] ] / S W m 9 ] ] W R / ] R / I W W W ",
"W S m F F F R B B F I F R / W F W / R W I r 9 m I S ;.$.| | R S z I R R B B m m F _ I F I B S R m F d i ] _ R _ | I S S z F W S ",
"z j i 4 9 d 9 9 i d i j i j z z z m S S S i r m m W ] +.$./ S R / | | W W ] _ / ] _ F B z m m F m m i i W ] +.| R I R I I R I W ",
"z S I B B m S S S F S S F F I I F F F I F z r j z z S S m j i z B z j i j d m j r 9 9 i i j j i j z i m I z i i r d r r 9 i j j ",
"_ / _ ] _ | ] ] _ | +.| ] ] +.| +.+.| / S j r d z m m z m z z z z d d d i i r r d z m S S I I I I R / / I F S z z j j m F R I F ",
"/ W _ / / _ / _ _ +.+._ _ | ] | +.+.+./ j d z W ] _ / ] | ] | R S | ] +.| ] +.| / ] ] | +._ ] +.] +.;.] | ] +.+.$.$.| ] _ ] | | ",
"R / ] _ _ W R / ] | | | | ;.$.| $.| +.F d i F ;.| _ +.;.:.| | B r $.:.;.+.1.1.| ] +.| ;.;.+.$.$.+.$.;.;.1.5.;.$.| +.+.] | ] _ | ",
"I R _ ] ] / / _ / / | / +.$.| | +.] W I z 9 I +._ ] $.$.| _ _ i 9 _ ;.$.$.$.] _ +.$.| $.$.:.;.$.;.:.:.:.:.$.] | +.+.+.| ;.+.$.:.",
"I / _ / W _ _ _ / ] ] / | | _ ] ] ] ] / z 9 _ | W | | | ;.] _ i i | $.;.| $.| ;.$.;.:.;.$.$.;.$.:.:.1.;.| +._ ] | ;.$.+.$.$.$.] ",
"R _ _ W / W / _ / ] _ / | _ _ _ +.] W R j 9 ] _ _ _ W ] _ F / i j | ] / I W | | $.$.$.+.$.$.| ] ] | $.| :.;.| +.] ] _ _ ] | +.$.",
"R _ / _ / / _ W ] +.$._ ] ] _ _ _ W / W i d _ _ | F W _ W W W 9 B +._ R F / ] $.;.+.| | | _ ] / / ] I / +.$.+._ ;.| _ ] ] | +._ ",
"R / _ ] / / W / _ | _ W R R R / F W / _ j z | ] W F I W _ F B 8 B +.| ] / $.+.$.1.$.$.] I R R I ] W W / ] $./ / S j B B I _ _ / ",
"B I / _ I I / R W / W R I W W W / ] ] W r z / | / B z S z d z r d / _ I I F F _ I i z d d j B S B F I F F z m d d B S I | ] _ | ",
"d d m z r 9 i i i d j i z m j B F j d 8 d B d d i 9 r r i d d z z d 9 8 9 8 9 9 8 9 8 8 8 8 9 9 8 > ; 8 4 8 9 r i d d i d r i i ",
"r z B j i r r r d i i i j m B B F R R / ] _ R F m z S F I R R R R F F R F I R F I F S S B m S B B m B B S B S S S F S B B B m z ",
"r F / R _ _ W R I R R R W R / | | ] | +._ _ ] _ _ / _ ] / / W _ W W ] $./ R W _ _ / W I S m S R W I / / | | ] ] ] $.+.| ] ] _ _ ",
"i I | ] | +.| | +.| | ] _ j _ | / _ _ ] _ ] _ _ ] / ] / _ _ / W W W _ W R / / _ / ] W _ z d I +._ / +.+.| | | ;.$.] $.| $.| | | ",
"j / | ] ] | | ] _ ] _ ] / j +.W I I R / | ] +.| W / | _ _ _ ] ] W | _ I ] ] / _ R R _ | j 9 R _ R ] +.$.;.| +.+.| $.+.+.+.| +.$.",
"z W | / ] | _ _ _ | _ ] W m ] R R W _ / ] _ / _ / R | ] R W _ / _ / / ] _ F W I R _ | / z i R / ] | | +.] _ +.+.| | +.| | ;.+.| ",
"I ] | _ | ] / / _ ] | ] R B _ W / _ | _ _ / _ $.W I _ / I R W / W B W ] S R _ W | | ] R m j W ] ] ] ] ] W / _ | ] _ / R / / ] +.",
"W R R / / / / _ ] ] _ / R R _ _ ] _ ] | _ / +.:.R B _ W I ] ] W m F W F m S I I W I W I m m R W / _ _ R R R _ R W _ _ _ _ | +._ ",
"R W W / / _ _ _ | ] / / / ] | | | +.+._ / _ | | S z z r i j d i i r i 4 4 8 9 i r 9 i r 8 > i i r r 9 d i d i i i i r d i z r 8 ",
"/ / _ +._ +.$.] ] | ] +.] ] | +.+.+.| _ _ | +.] S m m d d j z j m S S B F R I F F I I S S m B F S S S z m B B F I F B S S z B F ",
"/ / _ R R _ _ ] ] ] ] +.| ] +.+.] +.$.] ] | ] _ S m W _ _ R / ] ] / | | ] | ] _ _ _ ] +._ / +.+.| | / ] _ W _ | / _ ] / +.| F W ",
"W S B z B m S W ] | | +._ | | _ _ +.| +.+.| | +.F B R W B I / I F I _ W R I S W W W R W R / $._ F I R I S B R W / / $.| R _ B B ",
"W R B z z I / ] $.$.| ] ] / B I / _ | / ] _ ] R S B / I F _ W W / ] ] / / _ +.| $.| ] _ ] | W F W R I F R R _ _ _ | ] _ / I I m ",
"R W m B W / | ;._ _ ] _ _ R W W | ] R R ] +._ ] S B W B / / R W _ / W W _ / _ / _ _ ] F F R F R / W / _ ] / $.+._ / W / I I m i ",
"] R / +._ +.1.R B _ F R m S R R / R B / _ W _ +.d B / R / W R R W / W / / W / / / W W _ F I I I R R R W / _ _ / R R W _ / _ z i ",
"S m m m B B I z W I B F B F I R z m S z d m m r d I W R / +.| _ / / _ ] W W R F I _ 5.5.F R F W R _ W R I W F W / R W R R R B m ",
"8 9 % @ > 8 > 9 9 4 r 9 d 9 r 9 > > 8 4 ; > 4 i F R W R ] ] ] ] | _ _ W W R I / 1.7.] W B R W / F _ | F B I / R _ W R / R W I S ",
"] ] W S I _ $.| ] | +.| ] | ] | | / / W W / | _ R I _ _ _ R W _ ] / W R I R +.:.] I m W W / ] W _ | W S I I W W / / _ _ ] ] S B ",
"] _ R d F $.:.1.:.1.$.:.1.1.:.| _ ] $.$.$.| ] | S W ] | _ W / _ _ _ W I I W _ W W R / | W / +.+._ S W / _ W R / R / _ | ] F I z ",
"+._ | 9 B $.] _ _ / $.:.1.:.1.;.;.$.;.$.+.| +.] B R / R _ W R / | W B z F ] _ ] | | +./ _ $.| F I ] | ] ] ] R R R R R / R R F m ",
"_ _ ] i z / I / / _ | +.| $.+.$.;.$.| +.] W +.$.F R W I m B I / W F F I F W ] +.$.1.] I _ ] W / +.$.] ] _ W R / R R I / R / I m ",
"/ / ] i j _ :.$.| 1.;.| / R _ $.$.$.:.1.1.:.+.+.S F W F m j F I m S W / ] | ] +.1.1._ / W R _ +.;.] _ I R R / R / R / / S R B z ",
"W W W d j S / +.;.;._ / / / I B B R _ _ +.R B j z S d j m S I B S F m F B F S B S S I W R W / | W R R W / _ R W W W R R R I d z ",
"W I / j d z 9 8 8 8 8 4 8 4 4 8 i d r i d 9 9 j R W F B m i i r 9 9 9 r r r 8 8 > > ; ; X ; % ; X % @ X ; % % @ @ % % % ; > z I ",
"W R / W R / R I I W / W R R _ ] _ / / R R | $.:.$.| ] _ | ;.$.| | +.;.$./ / / / | / I I I F S F F B S F F I I R I I I R I W / / ",
"/ W R / _ | _ | / W / / / R I / _ W / F F +.9.7.1.;.+.] | 1.1.5.5.1.:.;.+.$.+._ | +.R W | ] _ | / I R W _ | | | +.] _ _ _ $./ _ ",
"W W R F I F R | _ _ / W R I S B m z S m B | +.+.| $.| ] ] $.$.$.$.:.$.;.+.$.| ] _ _ F F ] +.$.] R R / ] ] | ] ;.$.] | +._ / F I ",
"R I I R W I F F R / / / R R m d z S S B B ] $.$.] _ R R R _ ] | ] ] _ | ] +.| _ ] _ m _ ] ] ] ] / _ ] ] +.| +.| / W | | W S S S ",
"R R I R W R R S S I W / I / F z F R / I m $._ / _ _ W _ _ I S R I I / / ;.| / ] _ | B W B m I _ | | +.+.| | / I / / / _ +.R S z ",
"/ / W R R W W R I W F R I F R S S m S B m / / ] ] I R ] $.+._ F I F W I F R I W W / B F F F W W W / ] _ R W / _ ] ] ] / I R z z ",
"R R / _ _ _ W R W ] W z d m I m m B F B F R +.$.W F I m z R R W W W W W W R I F S F d m I F m S F I R m F R I W _ / I / R W F z ",
"_ W W F S F R W I d ; i R ] / d z F F d I _ $.+._ / / F I I S / R B B S F W I S S z i 9 m z i 9 i j r i d i d i j j m m S S z z ",
"] W R R R W S d 8 r B _ R R F m j I F z R | +.W I R / ;.| R / R I F S m S m d m i 9 i j r 9 8 r d d j z m d d d j m B z d d F | ",
"S S W ] | / B F _ _ ] / / R m m R ] S F I B > > 4 > 8 i d B z i % @ ; > ; . @ % @ 8 i S R W / +.+.| +.] +.;.] +.| +.] +.+.+.+.| ",
"8 z z F B B i 8 d r 9 9 ; . X @ d i > S W i 8 4 > 4 9 r d r r r d d r 9 i z j j j j z W ;.+.:.:.+.;.;._ | 5.$.$.:.+.+.+.+.+./ ] "
};
