/* XPM */
static char *_554803100975[] = {
/* columns rows colors chars-per-pixel */
"64 64 54 1 ",
"  c #4C3F3D",
". c #533D36",
"X c #4F433F",
"o c #55433D",
"O c #5A443E",
"+ c #5B483E",
"@ c #61453F",
"# c #60483F",
"$ c #4D4543",
"% c #4F4847",
"& c #4F4948",
"* c #544642",
"= c #5A4641",
"- c #554944",
"; c #5B4A44",
": c #564A48",
"> c #5B4D49",
", c #5F504B",
"< c #634641",
"1 c #634B45",
"2 c #6A4D46",
"3 c #654E4A",
"4 c #6C4E49",
"5 c #724E4A",
"6 c #7A4F4C",
"7 c #665049",
"8 c #6E514A",
"9 c #7A5147",
"0 c #73524C",
"q c #7B534D",
"w c #76594F",
"e c #7E584F",
"r c #775650",
"t c #7D5651",
"y c #765951",
"u c #7C5851",
"i c #814F4B",
"p c #85544D",
"a c #89554E",
"s c #84584E",
"d c #89594E",
"f c #845651",
"g c #8B5651",
"h c #835A53",
"j c #8D5A52",
"k c #8F5E59",
"l c #905652",
"z c #915C54",
"x c #935D58",
"c c #8E6155",
"v c #8E6359",
"b c #926154",
"n c #946259",
"m c #986258",
/* pixels */
"0fffffffffftfppsspfffffffesfff026gggffpfgfffffgfgggfgggfggggggf3",
"8pfpaaiggaaappppapppaappappfpp5=flagfgaggggggggllgggigggggggggg5",
"8aaappaaapaaasaapaapspgapsaapp5;iggaagaggggggggggfggggggggggfgl5",
"8paaapppapiapaaaapagfppapaaagp51fggapaiagggggggiggggggggggkgggg5",
"8fapapaaappsaafaaaaaaappgpppaa5<ilaaappgggigggglgggiggggggggggg3",
"5ppppagpappaaaaaiaapsaapgpppapr1illagaaggglglgggggglggggggggggg5",
"0pfgppapppasagpaagaappapfapaaa51ilgaaaaagglggfgggggggggggiggggg4",
"8gpppaapppaafaagapppppppppaapp51flaagagglgglilgigggggggggggg6gl4",
"8ppaaappaaappaaaapapgppppapapa01flgggaaalilggggggggigggggggigll4",
"8paaapppaappapaafgiaaaaaaapppa0=ilggagagglggggggggggggggggggggk5",
"0aaapiaappapappfipppaaaapaapaa8<iagfaaggggggllgig6gggiggggiglgg4",
"8apappagagaagappappgaapaapappg01glggagggllilggagggggggggggggggl4",
"8gaiaaggpgfgapppaapgppaaiaagpf61illlilgggglggglgglggllllllllggg4",
"8fpappgffppfasppfpppppafpaasaf51fgflgfffggggggggg6ggigiggiilggg5",
"@+<<=<<<<<<<@<<<<@2<@.=<<<<<<<=o<<<<<<<<O<<<<<<<<<:<<4<<<<4<<<<:",
">;;>;;>;;>;;:*:>*>3;--;>;;;>>>:%:3>>>:::*:=:**::<::%:33:::::%:::",
"pp9pssssss9ss9;0qq9qp6iqiiff666pfi666t6666ifqq4@6f6f9sssssppssep",
"spddppagdpdddd1qaipifgipiaiigiiaiiippiiipfipii6=6ligddspdddppddp",
"ppsspddappppds#qiiiifigiffiiipiapipfaiifppaiip5:6gfidsppddppppap",
"spsdpppsdppppp=9aiiaifipipfiiipfppiiiiipipiiii616gffpdpppppppdps",
"d9dddpsspsppsa;6piiiifiiiiiifffiiipiiifiiiiiip61ildpdddpddppsdpp",
"ddppddpppddppa;6ipgiiipiipffiiiipifpiffifpifpi6>6gpdppddp9pdsppd",
"9dpddppppsdddd;6iififii6iipgaiifpfipiififiifip0<6gassddpdppsdppd",
"pddddpppdsddpp;9iafiippippifiiifiipiipipiiippp5;6fppsdspppdddddp",
"9dddpppdspddps+0aiaaiippiiifigiiiiipipfiiipifi6=#ppddpsspdddddpd",
"ddddppddpdsppd+6aiiiiffiifiiipiippiifiifapiiig0<ddpdddppdd9dpdpp",
"9ppdpspsdppppp;6aiiiigpiipigfipiip6fiiippiiiif6=sdpdppspps9dpppp",
"dpdppsppppppaa;qapiagiiiiifpipiiippiiiiaaafiip0=9dpdpdpppddppdpp",
"ddddhsdpppppdd;0aiiiiiiappiiiipiiaaiffiiiaiipp9;sdpdddhdsppsppdp",
"pdddddddddddpd1qapgpipaagiifapigaaiigpiaifafppq+pdpadsdddsdcdddd",
"##9w8888#88888-7945244444524522452422452142232>-7w#98w88#9788w##",
"++++oX--#++-+o$$.=-*****:=o*=X$$o.$**-:- ***-o*&ooo+X+--X+&++###",
"0ttfuffshfffeseseuftfuufffeuuu4<ftqtfqttttttttttq9ttqqqqquttttt;",
"0zjjjjklkzkjjjzdkxxjzzzzkkcbkc81kgjgjjkgxzggfjjjjjjjajjfjjjxzkh2",
"8jjxzzzljzzzzljjjjzzklzzjjllzzr1ggafgggjxljgjaaajffjggggjgggglg4",
"0jjzzzzzxgzzkjjjjjzzzzxxjdjxzj41ggjggllggglggjfjjggjjjjzggggkgx3",
"0gkjzzxzgzzzzzjzlzjllzzzjjjlzd81zljagjgzjgjgajjggjjajgjggggjggj3",
"0gkzjjjzzlljdjjllzzzzzddzzdzjd81jldjkjggjjjjapjjjgjjdjljdjagggj3",
"0zjllzjlldzjjjzlzzzzzjljzzzjjb81jljaajgjafajjfggggaaajjljagjjgg2",
"0zzdzdzbzjzzjzjzzzzdlbzzjlzjkjw1jgajgggjajggjajgajfdgjggglggjjj<",
"8lzjjjzzjzdjzzzjzljzlzzzjzzjzd11jgggdljjgaaajggzjjdjgjgagjgjajj2",
"0kzzlzzzzzlzjzzzlzbzzjzjlzzzlj81xggglgjjgjjjjgzgggjkaggjjjjjfjg1",
"8jljzzdzlzzjjlzjdddlzzdzzlzzzb81zladjjgjgjgjglzggjjfjdgjjjjfjgj1",
"0jzzlllzjljjbzlzzzjzjlzlzzjlzz4<jazlagjgjjggjzggjggjgjggggggggg1",
"0zzjdlzzbzjjjzzzzljlzzzjzzjlzc8=xjjjajjjfjggjggjgggdjggjgggjajg1",
"0zzjzbzzzzzzzljzlzzzzzzzxjzzzz03jgjkjlljgjzjljgjjgjjggjgzzggjzj1",
"8tqqtteqtqtqeqquuqttttsqqqeetq7;q0qq9qq0t0qqq6qqq00q6qttqqqtqqw;",
"O*=oo+o*o*o=;;;>;-o;===+o=O;-;oo;;oo;*o=;;-+=-=**o=oO===.-==;;;*",
"yyyy0wwwwwwwwy-;w888808880809888880008808888888;3w0qww0rr0yyryrr",
"bvvccbccvccccc11spdsssdppaaapdssaassssfsfssesae,0xkgjkxnkkbbkjzk",
"bbbzbbbbbbcbnc82ppppdpppd9ep9sppeppsapp9ppppsss+8zbjjcjbjjczbzjz",
"dbdbdcbbbcbcmb72ppppppsssppppspp9psppppppppaap9;0zjccddjjjjdjjzz",
"bjcbdbbjbzbbnc21dppppppppp9dpppppppppaappppppp910bjdzjzdjcddcjkj",
"bbcbbbbbzdbbbc21pspppppdppppppppdpppfpspdppppsp10bzczzzjjjjccjjj",
"ccccccbbbbdcbc11spppppppsppppdpppipsppspppssppp10bcjddzdjcjbcbcd",
"bbbbbcbzbjbbbj42ppppppapppppppdpppepppapsapappp=0bjzjbbjddddjjjz",
"zbbbbbbbbbbbbb42ssppppdappppsppppdp9ppppdpppdpp<0djbbzjzbdjdcjbd",
"cccbbdcbbbccbc81sppdsppssapspppspesppppdps9p9pe1wzjjjcbjjjjjjbmd",
"zcbcbbzcbjbcbb11pas9pppppppppapspppppadpppppsdp<8bkjjjkzbzjbzlkj",
"bjjbbbbnbbbbzb18papppppdpppppeppppppdppppdpspp9+0zzzzzzzzjjjbzjj",
"bbbdbcbbbbccbb11dppppppppppp9psspppapppppppppps19zjbjcdddddjdjdc",
"bbmbbbbbbbbcbk22ddpddaappppdpppppapapddpdddpaap#wncjjzbzbcjbjbbz",
"ucchuhcfhvcuvu7;9q055qq090599w990q900999q5q59q5#8ueufueesfffesfs",
"o;oooo-+oooo-+o-oooooo+o++o.ooooO+ooOoo+OOooo;o*-+++O+Oo+o.++o;o"
};
