/* XPM */
static char *_a0a8e20557846f0bdc3819f841f35fa[] = {
/* columns rows colors chars-per-pixel */
"64 64 72 1 ",
"  c #7C7C7C",
". c #7E7E7E",
"X c #7f7f7f",
"o c #808080",
"O c #818181",
"+ c #828282",
"@ c #838383",
"# c #848484",
"$ c #858585",
"% c #868686",
"& c #878787",
"* c #888888",
"= c #898989",
"- c #8a8a8a",
"; c #8B8B8B",
": c #8c8c8c",
"> c #8D8D8D",
", c #8E8E8E",
"< c #8f8f8f",
"1 c #909090",
"2 c #919191",
"3 c #929292",
"4 c #939393",
"5 c #949494",
"6 c #959595",
"7 c #969696",
"8 c #979797",
"9 c #989898",
"0 c #999999",
"q c #9A9A9A",
"w c #9B9B9B",
"e c #9c9c9c",
"r c #9D9D9D",
"t c #9e9e9e",
"y c #9F9F9F",
"u c #A0A0A0",
"i c #a1a1a1",
"p c #A2A2A2",
"a c #a3a3a3",
"s c #A4A4A4",
"d c #A5A5A5",
"f c #a6a6a6",
"g c #A7A7A7",
"h c #a8a8a8",
"j c #A9A9A9",
"k c #AAAAAA",
"l c #ababab",
"z c #ACACAC",
"x c #adadad",
"c c #AEAEAE",
"v c #AFAFAF",
"b c #b0b0b0",
"n c #B1B1B1",
"m c #B2B2B2",
"M c #b3b3b3",
"N c #B4B4B4",
"B c #b5b5b5",
"V c #B6B6B6",
"C c #B7B7B7",
"Z c #b8b8b8",
"A c #B9B9B9",
"S c #bababa",
"D c #BBBBBB",
"F c #BCBCBC",
"G c #bdbdbd",
"H c #bebebe",
"J c #bfbfbf",
"K c #C0C0C0",
"L c #C1C1C1",
"P c #c2c2c2",
"I c #C3C3C3",
"U c #c4c4c4",
/* pixels */
"u5550,55504,0;454,0y,555054500Zy4ysu0y4005yy0u0yys0uy5syy00uuyyZ",
"5550000yy000504y0555y505440050Py4u5y0y55uy0u0uyusyyy05uyuyyyuuyH",
"y55055y5055540004054555y555004P44uuy50yyuu00y5yyy0yyys0uyuys00uP",
"05045554055y55y00y0yy4y5550u0yH;5u0y55050yy0yyu0yy0usyuuu0hsy0yP",
"y550005y005550u55050555,u54555P45s040y5yuu5yuyyu0yy5uu000yyuy0yP",
"y0454y0,055y50yu05005000y55505U04yy0y50uu5sususu0ushu0yyus0yuy0P",
"05y0,0y04505yy000y0045455y50y5U55ss0u5u00yu0y5uusyyussuyyyyu5y5P",
"0y5400454545y55yy5400545054y45P;5s00uy0ss0yyysy0uuy0yuuy50050uyP",
"545y5y5,000055505504y545505555H+5syyy5yyy000uyyyyuy0uyysssuyyuhP",
"y55505045y445y005040y054y55555P&,us0yu0u00yuuyy00yuy50uuussuy0uH",
"555y44040444y55u0,50,5005404y0H&00500ys0y0u0uyy00405y00sy00yyyyH",
"0055000uyy000u50550000yy54005yH&0uy00uyy5yyyyu5405y0yyuuuy05yy0H",
"s0y4000u00yu04455y50540050005yH&0uyuy50uyuuyy0uy0y5yuus0yuyuuysH",
"s50505000,45005505045400000y55H55y0yy000uyy5yyyyuy5550uy5000u0yH",
"yyuyyyyyyyyyyZBuyyyyuyyyyyyuhMZMMMhsyuyyyyyyyyyZMyuuyyyyuuyyyyyy",
"PPPPHHHPPPHHHHHHHPPUPHHZHHHPPUPPHHZHPPPUPHHHHHHZZHHPPPPPUUUPPHHH",
"050y05uyuy0uyZy 4;&;54,,;4,,;&44;;;;,,;;&;,5;& Zu54,,,05554,4444",
"uyuu0usssuuuyHy;5&;4004540544,,044454;,,444,;;&Hyy55yu455uu55500",
"uuus0yu0syuyuP4;5,;455555445,,,54,,55,;,,4;,;5&P5u,504,4uy454550",
"ysuyy0uyshuuuP;&y44,40,4455,;,5544;,5,45454;45+H;u545054500,5050",
"uhsu0uu00hsuuP4+5,4,;,,44;,404;;,;4;;,54,;44,4&H4005504450y55444",
"ysuusuyuyyuuuP0+,,44,;;4,5404,,&;50444544444,5&Py505550y445y0405",
"yyuy0uuususuyP5&,,5,5,;;,,4y5,;455,,,44,544,,5;P500540y54,50u500",
"uysu0yu0suuuuP;;54,4,5,405,4444,,,4;;44,,;,,54+H;5,40y5444y55y05",
"uuhsuss0uysyhP&+0;444;5,4,;54,5;;,,,4444,,54;4 P&55yu0554y05yy45",
"usuussssuuuusP& 4454555445405,4,5,454,45445445&H&04y000450555444",
"sussuyuuysuyuH&&0;;,54,,;4,0044;4,;544,5544,,0&H&4,45005455054,5",
"xyuhuhusyyy5hH+;y,,44444;444,4;,4,,5;,45y54,,,+H&000505540555550",
"hshushssyyyyuH&&4;444,5y,4,,;,455,5,,44,,55445&H&y4550y544504500",
"uhssuhuyuyuuhH5,0500445y0545545055545055;45045&H5hy0us00y0uu50y5",
"uuuyuyyyuyyyuZMyyyyyyyyuuyyshMBMBxhsyuyyyyyyyyyBMyyyyyyyyyuyyyyy",
"PPPPPHHPPPPHHHHHHPPPPHHZHHHHUPUPPHZHPPUPPHHHHHHHZZHPPPPPPPUPPPZH",
"55505044y50555,450y504045u4555Zu50,54;50,5,5,,50,;4,4;;;;,4,,4,Z",
"MsxhsxhxhxxhsususxhuhsshhxxsxuHyshyu0ussxsuy0yssh0suu0usyhxshsyH",
"hshxhssshhhxxxusuhhsssuhxuhhhxP5y555yyshxhu005sy00uyuyuuy0sushuP",
"xuuxsMBMMshMhyhhxsxhMxBMhuuhMsH;hyuyyusuuxhyy0suuhssssuuy0susuhP",
"uushBxxhuhhsshsuhsuhhhxxhuhxhsP4su0yuhhuussuyu0yyssusuuyyyyyu0yP",
"xssxusyshuu0sussuhhhxxsyhsyuusU0ssuyuuyyssuu00uuyyus0uuuyy0uy0yP",
"MhshxhusssxssshhxxxuussyhMhshxP5hsy0yu0s0uuyu0yy5uy5uysssuyyuuyH",
"xxuyhssBxuxhsshhxxhuhhxxusxsxsP,hs0yyssu5yy0s0ssy0y5yyusysyssuuH",
"hhxhshhsuhushxxysshsshhshssuxuH+h0u0uuuyyy00suyshuuu0usuyyyu0ssP",
"hshshshsxhhuusMssshhxuhsssxhssH&hy0yuuuuy0hssyusuyyuyyyss0uuuu0P",
"hshsxsushhxhhsxuhsusxssMhuxsshP&hh0ysyuyyusssshuysyysyyuuy0uu0uP",
"hsxsssyMhssshxhhssyshsuuxxsuxhH&hyhsyyyuysuhhhuuusyyysu0ussuuyyH",
"xhhsusshBhsuuxsxsuhuxsMhhxuusxH&hssssuhy0yuusuussuuuuyyuysyuuyyH",
"xhssshhMhshhshshhsBMhsxhBshxMhH5uuusuhsshshsssushusuuu0yuhushxsH",
"44;;44,,;4;,,44444,4,4,;,,44,,ZB;,&;;&;&;&&;,&;&,&;;;&4,,;&4,,&&",
"yyyyyyyyyyyyyyyyyyyyyyyyyyyshxBBMMssyyyyyyyyyyyyyyyyyyyyyyyyyyyy",
"PPPPPHHPPPPHHHZyHPPUPPHHHHHPUUPPHHZHPUPPPPHHHPHZyZHPPPPPUUPUPPHH",
"BxxhsxxxhsshMhHyu555055055y0005454yy55505554404HyMxhhxxxxxxxsxxh",
"shshBshsMhhhBxP45,,004545;,;,0,;4440y454;44445,P5Bxuuushsssssuhs",
"sMhhhxMshhhhBMH;04045005044,45,,;,44,,55544005;H;xushusuhhxuMsMh",
"xhhxsBMMhMMxBhP40055405044,04,045554055444,50;;H4Msyhuuuuxsuhsxs",
"hxhMhshxsxhxMuP0554,4440054,,004555,y55455500,;P0xsshssyusyhsyhs",
"shhsxhMMhsuhxsP554,44455545444y,44454505,4054,;P5Muhsssuuxyhxshu",
"MxhxhssMMhMhMuH,54400554044,440054;440u00540044H,hhushMhssyuxuss",
"hxhMxxxhMhhxMxP+555044504405545500,,5505y05055,P&suhBhhhhsuysysh",
"shhhshhhuBhhxsH;404555054y45554,5440044y54,,,5;H&hssuxxshusssMxy",
"xhshxBxhhhxxxsH&500455544450y54050050500545440,H&hushxhMMssMsxhs",
"MhsxMBxxxxBxxxH+5555040u545,4545544500,55545,5,H&Zxuxhsshhhhxhhx",
"shhhxuhBhshhMhH&u05,54405554;;,4440554454555554H&Mhssuhhsuyyuuuu",
"hxMMMMMxBMhxxsH55055055;5500544550500u00y55550,H5BhusxhxxsushsMx",
"yuy00yyuusyyy5ZB;&++&;,&++&;,& &&,+&+&;&&+&&&, BMy44055555y04505",
"yyyyyyyuuuyyyyyyyyyyyyyyyyyusMZMBxhuyyyyyyyyyyyyyyyuuuuuuuyyyyyy"
};
