/* XPM */
static char *_b0ae599b0f44b5c863addd21195d1ac[] = {
/* columns rows colors chars-per-pixel */
"64 64 55 1 ",
"  c #0D0B0C",
". c #100E10",
"X c #161415",
"o c #181617",
"O c #191718",
"+ c #1D1B1C",
"@ c #201E1F",
"# c #211F20",
"$ c #252324",
"% c #282627",
"& c #292728",
"* c #2D2B2C",
"= c #302E2F",
"- c #312F30",
"; c #343233",
": c #383637",
"> c #393738",
", c #3C3A3A",
"< c #413E3E",
"1 c #41403F",
"2 c #423F40",
"3 c #454243",
"4 c #494646",
"5 c #4A4748",
"6 c #4D4A4A",
"7 c #514E4E",
"8 c #524F50",
"9 c #555252",
"0 c #595556",
"q c #5B5758",
"w c #5D595A",
"e c #615D5D",
"r c #635F60",
"t c #666262",
"y c #696566",
"u c #6D6A6A",
"i c #716D6E",
"p c #757172",
"a c #7A7576",
"s c #7D7877",
"d c #7C7778",
"f c #7E7A7A",
"g c #827D7D",
"h c #84807F",
"j c #857F80",
"k c #868181",
"l c #8A8585",
"z c #8C8887",
"x c #8C8788",
"c c #8E8989",
"v c #928D8D",
"b c #95908F",
"n c #969191",
"m c #999494",
"M c #A3A2A3",
/* pixels */
"a***%&*=&**=-*-*-;*****-***&$&O0f+&%%%=%&*%**%&%%$#&#%%$&**&*%+g",
"z:->>>>>>,>>:>:;>,>,,3,,,,>>;:&wl&:::>>>>>:>:::;-;;;;;;>>,,>,--x",
"k;->:>,>>>>>:>>>>,>,,3,,11;;;:*wk%:;>>,>::>>::,>,,,1;,,,>;,1;;=d",
"i;;;:;>>>;;,:>,,>>>>,,1,31;>::*ta%:;:>>>:;>>::,,,;,,1,;>>;;;->%p",
"i;;:;;;>;::>;::>>,>>,>>,::::;>*ta&>:>:>::;::::>>,,,;,;-,;>>;;,#k",
"a&$**&&&%&%$$$&&&&*$%*-*&&&&&&@ra+&&&$&%%%%$$%%%$$%%%%%$&&#*-*.f",
"le63266433344445696807565365661il95116441445444565644514558,,31g",
"pddsaaasgglccvvcvnbvkkggjkjkkkffafffaadfgglccxnxvmxkkhghhhkhhggf",
"$$$**%***=*:,;-f9-<:--=-=-=**&%&&$%*&%&**==>>;,k7>;;-=;=-=*==&&&",
"=;;=->::>>;;=*$h9%-*:>;:>;-;:;:;-:;=:,::>:-:=%&x:&=;,;>>;;;;=>>-",
";;-;;;:;:->,;-;k9-,,<<<<,,1,>;;;;;-;;::::-,:;=1c1;,1111,,1,>;;;;",
";-;;-;-*;;;**-&gw=,:;>,<,>,>::-;;-;--;-*;;;*==:c3=>;>>,>>>,>>>-;",
";;;;--;>:>>;;;$fw*3,>;;:,>,>:;;;;;:=-->,:>:;-=*c5,2>;;;,>,,>>;>;",
"#@#@@$$&$$#$##ogq+-*--**&$$$%$$$+##@#$$$$$$##+#c<$*-;=**&$$$$###",
"9qwwqq009990wqwxa0997690699790900wq0qw099999e0rct596580888880808",
"vhghlxkfhkkkkhkaakkkklxccvccccbnckxxlkkkgllllxlfxvcmcxxxxccvvmmv",
"a$X@%*$+$$%%$@%#$$&&*=*====;=-&ri+-***$&%*&&*&&=-;-,:*%*&*==-;;p",
"a=%*%$&**&**&&&***&*&$$$$&&$&&O8i#=&*--*=*;===-*&&&$$&%&$&%$$%X9",
"p&%****-;;*::*;,=**==**=**=**=$yi#;;:;:::;>:=-:-;-=;;;;:>;;;;;Oy",
"g%$*&&;=*;:;=***===****&**&***@wf#*;:=-=;;--;=-====;;;---**%$&OM",
"f*&=;*--;*=*****=-****=**===**$ik;;:-;::;;-*::;:;-;-=&--**;;=;+x",
"aOX@$%&%$@@@@++++OO++++++@+@@$XigO##$%#$$$%%$$$$$$##$%&&$$##+$ v",
"ce451,1334334556778886665666666kl655444445<443433155112<1443553g",
"fklkgkhgghzlvnvvvcvzzzllhkkkkhhffkhkkkkghkxkvnvxxkxkxkgjggggkkkf",
"%%$%%;&$$$:*:1&ik*;--;$$$$@#$@#%%$$%%;%##*:*11,ki%:=;=*&###$##$$",
"**===*;*;;*=&&Xik&=;==;----;-;;**=-===--;-==&$+ky#;;*;--;-;-=;-*",
"--;;;;::,>>>:>$ip*,;;;,;=-=-*-;=--;:->::,,:>:;&gy*>;;:>-------;*",
"--*;;-*=;;=;-:$rp*,;:;;;-;;-;:---=---=--;-==;;$iu*::;;;=-;;-;:--",
";;;;;;*:;;:;;;&ti=1,,,;;;;>:::::;;;-;-;:;-;-;:*uy*1:>>:;;::;:::;",
"@$%$$@$$@@+$$%Xra@%&#$$#$$$$$%$$@$$$#$#$###%$$+pt+&%$$$$#$$$$&$#",
"555544333565464act98976656666865554344313453454gkq8908888889q084",
"vvcczzllhkkhkkkggxxllllcclccczvmnmvnncxlkxxllxxkgcvccccvvvvccxvc",
"c1$***%%$##%%%$$$&$#$#@%$@$$$#@yi>111>&$%#@$$@@$#&;=&&*--;;=&$$a",
"v;*;-*----------=-;;=====;*=--$tiX$$%%&-*********&&&*&=*&*&%&%@a",
"x;-:;;>>----*----;>;=-;---;;;:=if%:;;;;;;===;=====;;:=*;****&&Og",
"h;->>;;;--;;-:;--;;-;-;--===-<*tp#=*==--=*=*&********;====--=&@a",
"g;->>>>-;;;:-;>;--;->;:;;;-;;:*qp$;-=-;-;========--*====;*;*=*;x",
"x*@*$%%$$$$%$*%%%$$$$$$$$$$$#&XraX@@+###@@@++@@@@@@@++@@@@#$$@&n",
"xaw86865566666660eyy077776797tyjkyq344555667676665554331,,>::;3v",
"glxvvbncvbcvmmmvczhhhkklccxxxlkghkkxxxxxxxxzccvnvvvvvvczzlkkkkkh",
"*%%%%-,%=;*;,4<0c1@%$%$$&%%$%%$%&$$$&$$$$$$$&%;ad-*&&&%&*&&&&*&*",
"*===-=%=***%$$X;m0%>;:;;-;-;;-;-:;;:;;;=-;;===+paO&&*****=*&****",
"-;;:>::;-:---*&2m9%;;;:;>>>;:::::;;:;;:::;;;==*fd$;:;:;-=;==-=-=",
"=*===;-==-=****<b7;<>>>>>,,>>;=;=;;=;;,,;;;=;;*ig&*;;;;;;;==;==*",
"----;=-;---==;*4v7:<<<<<,>;-----=;:;;,,:,,;;--&ug&=;;;;;;;------",
"$#$$$$$##$$$#$X<b7O=-;&@&%&%#$$**$*&$*&$*&$$$$oyg+#$$$#$$#$$####",
"1343<333434333<ivgeqq9eyyeq9569q9q073,,133,,1,3fz0,31133333,354,",
"vbfzckgggkapaaaapsglzvzlzlxcvvvvxvcnnvnncccxlkkgdhlhllkkhhvvlgkn",
"f;%*******%***&*--***--*-=*-=;,tf&==*==***&*&&&**&&%&&&&$&&&&#*l",
"b>;;::;,:;:;;>>,>,;;;;-;;--==-+wa@*=*-=*====:-=;;==*;;--;-*---*f",
"c,>,>>>::;>>:>,,,,,>,,:>>::::;*df&:;:;:;;:;;:::;,,;>,>,>>;>;;-&g",
"p>,1:>;;>;>:>>>,,>>>,,,,>>>::>&wk$;;;;;;;;;;;:::;:;:>,>;;;-;;-&g",
"y;>>>,>>,>,,,,:,,,,,22<,,;,,,,*9x=::::::::::;;::::;;:::>>>>>>;&d",
"k*$%$%$$$%%$&$&$&$&&##$#$&$#&&O8c+$$&&%%%$$$$$@$$$$&$%$&***&%#+f",
"xdpuuiyyttyyuipipppapiuuiaptwrygxe909008wwwerrrrrqq86533311,76yl",
"zcvvcvcvvnvvvvccllxjlxvcxccvvcxllcxlccklklcnvvncznnnnnnnnnmnnbvz",
";-=-----:;,3:,-up%=********&=&**=&&&**&*&****&1ka18715:=;:1::;;:",
"=-------=;;*;;#wl*=;;-;;===-&*=***=*=&**;****&#hpX&&*==;=--*=;*&",
";>>;:>>>:1,:>,;7l-:;>,>,:>>1:>>:,:;-;=-,:::;:;*kd&,>1,11,,1>,:::",
";>,>>>>>:,,,:,=5f*;;;,>>>:-;:::;;;==>:::-;;;=*#pp$>:::>>>>::::::",
">,,,>>,>>,,,,,;5k=;;;;;::::>;;-;:;::::::;;;-::$gu&:::>:::;:::::;",
"*-;;-----*-=-;$6k$=*-;;:>::::::;:==:=&*;;::-&*$li+=*-&**-=*=*=-&",
">,,,>>>;;;>>>13ak;*=;:;;:;;;-;:;===;=:;=-;---*-la*:;;:;--;;;;:::",
"bbbvbbvvbvbbvbckklggflkjfkkgghklkklkkkkhfgkkxxkklvcccvvcccvvvvnv"
};
